<svg width="54" height="64" viewBox="0 0 54 64" fill="none" xmlns="http://www.w3.org/2000/svg">
<path d="M27 0C34.1608 0 41.0284 2.88979 46.0919 8.03364C51.1554 13.1775 54 20.1541 54 27.4286C54 38.784 45.48 50.6819 28.8 63.3905C28.2807 63.7861 27.6491 64 27 64C26.3509 64 25.7193 63.7861 25.2 63.3905C8.52 50.6819 0 38.784 0 27.4286C0 20.1541 2.84463 13.1775 7.90812 8.03364C12.9716 2.88979 19.8392 0 27 0Z" fill="white"/>
<path d="M22.3184 31.6813C19.0899 28.4527 19.1207 25.5165 22.3184 22.3187C25.5161 19.1209 28.4523 19.0901 31.6807 22.3187C34.9092 25.5473 34.8784 28.4835 31.6807 31.6813C30.0786 33.2835 28.5402 34.0901 26.9996 34.0923C25.4656 34.0923 23.9293 33.2923 22.3184 31.6813ZM18.4174 18.4176C15.4857 21.3495 14.0066 24.1626 14 26.9802V27.0176C14.0066 29.8242 15.4725 32.6374 18.4174 35.5824C21.3624 38.5275 24.1755 39.9934 26.982 40H27.0194C29.839 39.9934 32.6499 38.5143 35.5817 35.5824C41.4453 29.7187 41.5002 24.3341 35.5817 18.4176C32.6302 15.4659 29.8105 14 26.9974 14C24.1733 13.9978 21.3558 15.4791 18.4174 18.4176Z" fill="url(#paint0_linear_426_8732)"/>
<defs>
<linearGradient id="paint0_linear_426_8732" x1="18.1836" y1="35.7669" x2="35.5707" y2="18.4781" gradientUnits="userSpaceOnUse">
<stop stop-color="#0073FF"/>
<stop offset="1" stop-color="#00DEFF"/>
</linearGradient>
</defs>
</svg>
