<svg width="20" height="20" fill="none" xmlns="http://www.w3.org/2000/svg"><path d="M10 1.648c-2.23 0-4.328.869-5.906 2.446A8.297 8.297 0 0 0 1.648 10c0 2.23.869 4.328 2.446 5.906A8.297 8.297 0 0 0 10 18.352c2.23 0 4.328-.869 5.906-2.446A8.297 8.297 0 0 0 18.352 10c0-2.23-.869-4.328-2.446-5.906A8.297 8.297 0 0 0 10 1.648ZM10 0c5.523 0 10 4.477 10 10s-4.477 10-10 10S0 15.523 0 10 4.477 0 10 0Z" fill="#0073FF"/><path d="M9.724 8.506a.52.52 0 0 0-.513.513v5.206a.52.52 0 0 0 .513.512h.568a.52.52 0 0 0 .513-.512V9.019a.52.52 0 0 0-.513-.513h-.568Zm.319-3.17a.934.934 0 0 0-.997.927.952.952 0 0 0 .997.997.934.934 0 0 0 .914-.997.908.908 0 0 0-.914-.928Z" fill="#0073FF"/></svg>