<svg width="50" height="50" fill="none" xmlns="http://www.w3.org/2000/svg"><circle cx="25" cy="25" r="25" fill="#fff"/><path d="M10.368 4.99a24.841 24.841 0 0 0-8.9 12.198l23.251 7.555L10.37 4.99Z" fill="url(#a)"/><path d="M1.51 17.392A24.77 24.77 0 0 0 .32 25c0 2.618.406 5.142 1.159 7.511l23.282-7.565L1.51 17.392Z" fill="url(#b)"/><path d="M1.543 32.714a24.839 24.839 0 0 0 8.88 12.258l14.402-19.823-23.282 7.565Z" fill="url(#c)"/><path d="M10.598 45.098A24.673 24.673 0 0 0 25 49.786V25.274L10.598 45.098Z" fill="url(#d)"/><path d="M25.105 49.786a24.673 24.673 0 0 0 14.403-4.688L25.105 25.275v24.51Z" fill="url(#e)"/><path d="M39.671 45.01a24.837 24.837 0 0 0 8.88-12.258L25.27 25.187 39.672 45.01Z" fill="url(#f)"/><path d="M48.63 32.511A24.773 24.773 0 0 0 49.787 25c0-2.654-.417-5.211-1.19-7.608l-23.25 7.554 23.281 7.565Z" fill="url(#g)"/><path d="M48.532 17.188a24.84 24.84 0 0 0-8.9-12.198l-14.35 19.753 23.25-7.555Z" fill="url(#h)"/><path d="M39.457 4.864A24.672 24.672 0 0 0 25.105.214v24.403L39.457 4.864Z" fill="url(#i)"/><path d="M25 .213a24.673 24.673 0 0 0-14.352 4.651L25 24.617V.213Z" fill="url(#j)"/><defs><linearGradient id="a" x1="24.679" y1="24.786" x2="2.824" y2="23.226" gradientUnits="userSpaceOnUse"><stop stop-color="#8341EF"/><stop offset="1" stop-color="#3F68F9"/></linearGradient><linearGradient id="b" x1="24.786" y1="24.359" x2="-1.031" y2="23.117" gradientUnits="userSpaceOnUse"><stop stop-color="#4109EB"/><stop offset="1" stop-color="#00C2FF"/></linearGradient><linearGradient id="c" x1="24.785" y1="25.106" x2="16.938" y2="44.334" gradientUnits="userSpaceOnUse"><stop stop-color="#8341EF"/><stop offset="1" stop-color="#3F68F9"/></linearGradient><linearGradient id="d" x1="25" y1="26.175" x2="33.775" y2="43.127" gradientUnits="userSpaceOnUse"><stop stop-color="#4109EB"/><stop offset="1" stop-color="#00C2FF"/></linearGradient><linearGradient id="e" x1="25.105" y1="25.32" x2="38.945" y2="45.115" gradientUnits="userSpaceOnUse"><stop stop-color="#8341EF"/><stop offset="1" stop-color="#3F68F9"/></linearGradient><linearGradient id="f" x1="25.31" y1="25.145" x2="48.327" y2="34.421" gradientUnits="userSpaceOnUse"><stop stop-color="#4109EB"/><stop offset="1" stop-color="#00C2FF"/></linearGradient><linearGradient id="g" x1="25.536" y1="25.374" x2="39.241" y2="12.743" gradientUnits="userSpaceOnUse"><stop stop-color="#8341EF"/><stop offset="1" stop-color="#3F68F9"/></linearGradient><linearGradient id="h" x1="25.322" y1="24.252" x2="41.35" y2="5.481" gradientUnits="userSpaceOnUse"><stop stop-color="#4109EB"/><stop offset="1" stop-color="#00C2FF"/></linearGradient><linearGradient id="i" x1="25.105" y1="24.633" x2="24.759" y2=".33" gradientUnits="userSpaceOnUse"><stop stop-color="#8341EF"/><stop offset="1" stop-color="#3F68F9"/></linearGradient><linearGradient id="j" x1="25" y1="24.633" x2="7.603" y2="17.19" gradientUnits="userSpaceOnUse"><stop stop-color="#4109EB"/><stop offset="1" stop-color="#00C2FF"/></linearGradient></defs></svg>