<svg width="50" height="50" viewBox="0 0 50 50" fill="none" xmlns="http://www.w3.org/2000/svg">
<circle cx="25" cy="25" r="25" fill="white"/>
<path d="M10.3681 4.99023C6.25615 8.00203 3.1071 12.2507 1.46875 17.1884L24.7194 24.7431L10.3681 4.99023Z" fill="url(#paint0_linear_2513_1391)"/>
<path d="M1.50987 17.3916C0.73749 19.7889 0.320312 22.3457 0.320312 24.9998C0.320312 27.6183 0.726327 30.1419 1.47888 32.5112L24.761 24.9464L1.50987 17.3916Z" fill="url(#paint1_linear_2513_1391)"/>
<path d="M1.54297 32.7144C3.16551 37.673 6.30966 41.9427 10.4236 44.972L24.8254 25.1494L1.54297 32.7144Z" fill="url(#paint2_linear_2513_1391)"/>
<path d="M10.5977 45.0977C14.6495 48.0278 19.6226 49.7628 24.9998 49.7855V25.2749L10.5977 45.0977Z" fill="url(#paint3_linear_2513_1391)"/>
<path d="M25.1055 49.7857C30.4827 49.763 35.4558 48.028 39.5077 45.0978L25.1055 25.2749V49.7857Z" fill="url(#paint4_linear_2513_1391)"/>
<path d="M39.6714 45.0099C43.7854 41.9807 46.9294 37.711 48.5519 32.7524L25.2695 25.1875L39.6714 45.0099Z" fill="url(#paint5_linear_2513_1391)"/>
<path d="M48.6294 32.511C49.3819 30.1418 49.788 27.6182 49.788 24.9997C49.788 22.3456 49.3708 19.7889 48.5985 17.3916L25.3477 24.9463L48.6294 32.511Z" fill="url(#paint6_linear_2513_1391)"/>
<path d="M48.5319 17.1884C46.8936 12.2507 43.7445 8.00203 39.6325 4.99023L25.2812 24.743L48.5319 17.1884Z" fill="url(#paint7_linear_2513_1391)"/>
<path d="M39.4567 4.86447C35.4141 1.95648 30.4602 0.236019 25.1055 0.213379V24.6173L39.4567 4.86447Z" fill="url(#paint8_linear_2513_1391)"/>
<path d="M24.9996 0.213379C19.645 0.236019 14.691 1.95658 10.6484 4.86447L24.9996 24.6171V0.213379Z" fill="url(#paint9_linear_2513_1391)"/>
<defs>
<linearGradient id="paint0_linear_2513_1391" x1="24.6786" y1="24.7861" x2="2.82396" y2="23.2257" gradientUnits="userSpaceOnUse">
<stop stop-color="#8341EF"/>
<stop offset="1" stop-color="#3F68F9"/>
</linearGradient>
<linearGradient id="paint1_linear_2513_1391" x1="24.7862" y1="24.3588" x2="-1.03137" y2="23.1169" gradientUnits="userSpaceOnUse">
<stop stop-color="#4109EB"/>
<stop offset="1" stop-color="#00C2FF"/>
</linearGradient>
<linearGradient id="paint2_linear_2513_1391" x1="24.7847" y1="25.1064" x2="16.9379" y2="44.3343" gradientUnits="userSpaceOnUse">
<stop stop-color="#8341EF"/>
<stop offset="1" stop-color="#3F68F9"/>
</linearGradient>
<linearGradient id="paint3_linear_2513_1391" x1="24.9998" y1="26.1746" x2="33.7748" y2="43.1272" gradientUnits="userSpaceOnUse">
<stop stop-color="#4109EB"/>
<stop offset="1" stop-color="#00C2FF"/>
</linearGradient>
<linearGradient id="paint4_linear_2513_1391" x1="25.1055" y1="25.3201" x2="38.9446" y2="45.1152" gradientUnits="userSpaceOnUse">
<stop stop-color="#8341EF"/>
<stop offset="1" stop-color="#3F68F9"/>
</linearGradient>
<linearGradient id="paint5_linear_2513_1391" x1="25.3103" y1="25.1445" x2="48.3265" y2="34.4207" gradientUnits="userSpaceOnUse">
<stop stop-color="#4109EB"/>
<stop offset="1" stop-color="#00C2FF"/>
</linearGradient>
<linearGradient id="paint6_linear_2513_1391" x1="25.5359" y1="25.3736" x2="39.2409" y2="12.7435" gradientUnits="userSpaceOnUse">
<stop stop-color="#8341EF"/>
<stop offset="1" stop-color="#3F68F9"/>
</linearGradient>
<linearGradient id="paint7_linear_2513_1391" x1="25.322" y1="24.2518" x2="41.3499" y2="5.4806" gradientUnits="userSpaceOnUse">
<stop stop-color="#4109EB"/>
<stop offset="1" stop-color="#00C2FF"/>
</linearGradient>
<linearGradient id="paint8_linear_2513_1391" x1="25.1055" y1="24.6329" x2="24.7591" y2="0.329865" gradientUnits="userSpaceOnUse">
<stop stop-color="#8341EF"/>
<stop offset="1" stop-color="#3F68F9"/>
</linearGradient>
<linearGradient id="paint9_linear_2513_1391" x1="24.9996" y1="24.6327" x2="7.60338" y2="17.1899" gradientUnits="userSpaceOnUse">
<stop stop-color="#4109EB"/>
<stop offset="1" stop-color="#00C2FF"/>
</linearGradient>
</defs>
</svg>
