<svg width="54" height="54" fill="none" xmlns="http://www.w3.org/2000/svg"><path d="M29.426 53.001a3.41 3.41 0 0 1-4.858-.036l-4.237-4.364a5 5 0 0 0-3.588-1.517h-6.412a3.536 3.536 0 0 1-3.536-3.536v-6.16a5 5 0 0 0-1.433-3.504L1 29.446a3.49 3.49 0 0 1 0-4.892l4.362-4.438a5 5 0 0 0 1.433-3.505v-6.2a3.536 3.536 0 0 1 3.536-3.535h6.421a5 5 0 0 0 3.577-1.507l4.236-4.337a3.425 3.425 0 0 1 4.864-.036l4.452 4.425a5 5 0 0 0 3.525 1.455h6.32a3.398 3.398 0 0 1 3.398 3.397v6.321a5 5 0 0 0 1.454 3.525L53 24.567a3.439 3.439 0 0 1-.021 4.87l-4.49 4.438a5 5 0 0 0-1.485 3.556v6.221a3.432 3.432 0 0 1-3.432 3.432h-6.158a5 5 0 0 0-3.535 1.465L29.426 53Z" fill="#0073FF"/><path fill-rule="evenodd" clip-rule="evenodd" d="M36.46 17.54c.478.48.478 1.257 0 1.736L19.276 36.459a1.227 1.227 0 1 1-1.735-1.735L34.724 17.54c.479-.48 1.256-.48 1.735 0ZM20.25 18.409a1.84 1.84 0 1 0 0 3.681 1.84 1.84 0 0 0 0-3.681Zm-4.295 1.84a4.295 4.295 0 1 1 8.59 0 4.295 4.295 0 0 1-8.59 0ZM33.75 31.909a1.841 1.841 0 1 0 0 3.682 1.841 1.841 0 0 0 0-3.682Zm-4.295 1.84a4.295 4.295 0 1 1 8.59 0 4.295 4.295 0 0 1-8.59 0Z" fill="#fff"/></svg>