<svg width="212" height="212" fill="none" xmlns="http://www.w3.org/2000/svg"><circle cx="106" cy="106" r="106" fill="#fff" fill-opacity=".05"/><path d="M146.518 111.109a4.591 4.591 0 0 1-3.247-5.635l7.125-26.649c5.183-19.384-6.343-39.39-25.684-44.584-19.342-5.193-39.305 6.357-44.488 25.741l-7.12 26.63a4.579 4.579 0 0 1-5.623 3.254 4.59 4.59 0 0 1-3.246-5.635l7.12-26.63c3.135-11.727 10.666-21.547 21.23-27.644 10.546-6.102 22.82-7.742 34.503-4.604 11.684 3.137 21.499 10.69 27.583 21.276 6.089 10.57 7.725 22.87 4.595 34.578l-7.121 26.631c-.658 2.463-3.187 3.926-5.627 3.271Z" fill="#fff"/><path d="m54.168 32.632 19.075 5.123-6.347 23.738-19.075-5.122 6.347-23.739ZM167.814 63.15l19.075 5.122-6.347 23.74-19.075-5.123 6.347-23.739Z" fill="#505369"/><path d="M148.334 202.485 20.921 168.271c-5.45-1.464-8.727-7.126-7.262-12.606L40.727 54.426l147.236 39.538-27.068 101.239c-1.465 5.479-7.111 8.746-12.561 7.282Z" fill="#fff"/><path d="M148.334 202.485 20.921 168.271c-5.45-1.464-8.727-7.126-7.262-12.606L40.727 54.426l147.236 39.538-27.068 101.239c-1.465 5.479-7.111 8.746-12.561 7.282Z" fill="url(#a)"/><path d="M187.96 93.964c-8.821-4.99-15.127-10.892-13.616-16.684.951-3.628 5.637-7.019 12.532-9.032l-66.905-17.927-65.816-17.712c4.864 5.151 7.351 10.487 6.365 14.105-1.577 5.756-9.84 7.746-19.796 7.712L187.96 93.964ZM60.566 101.172a11.794 11.794 0 0 0 1.173 8.932 11.759 11.759 0 0 0 7.132 5.484 11.73 11.73 0 0 0 12.358-4.204 11.778 11.778 0 0 0 2.326-8.702 11.792 11.792 0 0 0-4.494-7.802 11.733 11.733 0 0 0-8.684-2.332 11.726 11.726 0 0 0-7.784 4.505 11.78 11.78 0 0 0-2.027 4.119ZM138.976 122.245a11.797 11.797 0 0 0 1.173 8.932 11.752 11.752 0 0 0 7.132 5.484 11.72 11.72 0 0 0 8.912-1.176 11.767 11.767 0 0 0 5.473-7.147 11.792 11.792 0 0 0-1.174-8.932 11.74 11.74 0 0 0-7.131-5.484 11.728 11.728 0 0 0-8.913 1.175 11.765 11.765 0 0 0-5.472 7.148Z" fill="#0073FF"/><path d="m155.426 123.987-8.87-2.382 7.125-26.648c.31-1.16.405-2.512.505-3.958.129-1.84.224-3.766.863-5.871l8.87 2.382c.231 2.491-.829 7.812-1.368 9.829l-7.125 26.648Zm-79.041-21.225-8.87-2.382 7.125-26.648c.554-2.07 1.43-3.92 2.213-5.566.617-1.307 1.22-2.561 1.506-3.632l8.87 2.382c-1.113 1.805-3.196 7.31-3.702 9.202l-7.125 26.649-.017-.005Z" fill="#0073FF"/><path d="M53.456 99.262a11.793 11.793 0 0 0 1.174 8.932 11.758 11.758 0 0 0 7.131 5.485 11.718 11.718 0 0 0 8.913-1.176 11.78 11.78 0 0 0 5.472-7.148 11.793 11.793 0 0 0-1.173-8.932 11.748 11.748 0 0 0-7.132-5.484 11.723 11.723 0 0 0-8.912 1.176 11.767 11.767 0 0 0-5.473 7.147ZM131.89 120.343a11.806 11.806 0 0 0 1.173 8.932 11.765 11.765 0 0 0 7.132 5.484 11.718 11.718 0 0 0 8.912-1.176 11.758 11.758 0 0 0 5.473-7.147 11.787 11.787 0 0 0-4.195-12.385 11.734 11.734 0 0 0-8.683-2.332 11.736 11.736 0 0 0-7.785 4.505 11.775 11.775 0 0 0-2.027 4.119Z" fill="#fff"/><path d="M142.713 125.333a4.59 4.59 0 0 1-3.246-5.635l7.125-26.648c5.182-19.384-6.343-39.39-25.685-44.584-19.342-5.194-39.305 6.356-44.487 25.74l-7.125 26.648a4.578 4.578 0 0 1-5.623 3.254 4.59 4.59 0 0 1-3.247-5.635l7.125-26.649c3.136-11.726 10.667-21.546 21.23-27.643 10.546-6.102 22.82-7.741 34.503-4.604 11.684 3.137 21.5 10.69 27.584 21.276 6.088 10.57 7.724 22.87 4.594 34.578l-7.125 26.649c-.654 2.445-3.183 3.908-5.623 3.253Z" fill="#fff"/><defs><linearGradient id="a" x1="30.409" y1="170.819" x2="132.306" y2="65.519" gradientUnits="userSpaceOnUse"><stop stop-color="#0073FF"/><stop offset="1" stop-color="#00C2FF"/></linearGradient></defs></svg>