<svg width="105" height="106" fill="none" xmlns="http://www.w3.org/2000/svg"><ellipse cx="52.5" cy="52.469" rx="52.5" ry="52.282" fill="#fff" fill-opacity=".05"/><path fill-rule="evenodd" clip-rule="evenodd" d="M60.528 22.017a15 15 0 0 0-17.322 0l-6.969 4.928C28.51 32.41 28.283 42.21 33.05 48.448H13.422a7 7 0 0 0-7 7v24.74c0 13.807 11.193 25 25 25h40.891c13.808 0 25-11.193 25-25v-24.74a7 7 0 0 0-7-7H70.685c4.766-6.238 4.54-16.038-3.189-21.503l-6.968-4.928Z" fill="#0073FF"/><mask id="a" style="mask-type:alpha" maskUnits="userSpaceOnUse" x="6" y="18" width="92" height="88"><path fill-rule="evenodd" clip-rule="evenodd" d="M57.123 20.186a9 9 0 0 0-10.515 0L24.12 36.371c-4.271 3.074-4.66 8.358-2.386 12.076h-8.316a7 7 0 0 0-7 7v24.74c0 13.808 11.193 25 25 25h40.891c13.808 0 25-11.192 25-25v-24.74a7 7 0 0 0-7-7h-8.311c2.274-3.718 1.884-9.002-2.387-12.076L57.123 20.186Z" fill="#0073FF"/></mask><g mask="url(#a)"><path fill="#fff" d="M19.172 54.799h66.201V83.98H19.172z"/><path d="M6.422 105.565V54.499l91.434 51.066H6.422Z" fill="#fff"/><path d="M6.422 105.565V54.499l91.434 51.066H6.422Z" fill="url(#b)"/><path d="M97.852 105.565V54.499L6.417 105.565h91.435Z" fill="#fff"/><path d="M97.852 105.565V54.499L6.417 105.565h91.435Z" fill="url(#c)"/><path d="M39.347 77.981c7.291-6.15 17.954-6.15 25.246 0 13.951 11.77 5.63 34.542-12.623 34.542S25.395 89.75 39.347 77.982Z" fill="#fff"/><path d="M39.347 77.981c7.291-6.15 17.954-6.15 25.246 0 13.951 11.77 5.63 34.542-12.623 34.542S25.395 89.75 39.347 77.982Z" fill="url(#d)"/></g><path d="M19.172 31.021h41.614c13.58 0 24.587 11.009 24.587 24.588H19.172V31.02Z" fill="#fff"/><path d="M19.172 31.021h41.614c13.58 0 24.587 11.009 24.587 24.588H19.172V31.02Z" fill="#fff"/><path fill-rule="evenodd" clip-rule="evenodd" d="M71.586 31.021H19.54a12.533 12.533 0 0 0-.835-.027c-6.67 0-12.099 5.291-12.284 11.889h11.667v.027h42.329c.18-6.412 5.314-11.59 11.726-11.876-.184-.008-.37-.013-.556-.013Z" fill="#fff"/><path fill-rule="evenodd" clip-rule="evenodd" d="M71.586 31.021H19.54a12.533 12.533 0 0 0-.835-.027c-6.67 0-12.099 5.291-12.284 11.889h11.667v.027h42.329c.18-6.412 5.314-11.59 11.726-11.876-.184-.008-.37-.013-.556-.013Z" fill="url(#e)"/><path fill-rule="evenodd" clip-rule="evenodd" d="M34.91 49.365h33.915v1.62H34.91v-1.62Zm0 5.402h33.915v1.622H34.91v-1.622Zm33.915 5.405H34.91v1.621h33.915v-1.62Z" fill="#fff"/><path fill-rule="evenodd" clip-rule="evenodd" d="M34.91 49.365h33.915v1.62H34.91v-1.62Zm0 5.402h33.915v1.622H34.91v-1.622Zm33.915 5.405H34.91v1.621h33.915v-1.62Z" fill="url(#f)"/><ellipse cx="84.936" cy="28.066" rx="13.159" ry="13.104" fill="url(#g)"/><path fill-rule="evenodd" clip-rule="evenodd" d="m82.935 31.345 4.313-7.44c-.635-.364-1.551.293-3.383 1.607l-2.901 2.082c-1.112.798-1.668 1.197-1.828 1.558-.23.521-.127 1.109.257 1.455.265.239.902.298 2.176.415.471.043.707.065.923.131.155.048.304.112.443.192Z" fill="#fff"/><path opacity=".5" d="m87.183 31.17.36-3.544c.227-2.237.34-3.355-.295-3.72l-4.313 7.439c.14.08.27.176.389.286.165.154.302.346.575.73.739 1.04 1.108 1.56 1.45 1.67.492.158 1.055-.047 1.393-.506.233-.318.302-.997.44-2.355Z" fill="#FFE8E8"/><defs><linearGradient id="b" x1="18.475" y1="105.565" x2="44.627" y2="41.905" gradientUnits="userSpaceOnUse"><stop stop-color="#0073FF"/><stop offset="1" stop-color="#00C2FF"/></linearGradient><linearGradient id="c" x1="85.799" y1="105.565" x2="59.646" y2="41.905" gradientUnits="userSpaceOnUse"><stop stop-color="#0073FF"/><stop offset="1" stop-color="#00C2FF"/></linearGradient><linearGradient id="d" x1="6.418" y1="127.587" x2="34.29" y2="49.782" gradientUnits="userSpaceOnUse"><stop stop-color="#0073FF"/><stop offset="1" stop-color="#00C2FF"/></linearGradient><linearGradient id="e" x1="15.083" y1="42.91" x2="17.358" y2="25.851" gradientUnits="userSpaceOnUse"><stop stop-color="#0073FF"/><stop offset="1" stop-color="#00C2FF"/></linearGradient><linearGradient id="f" x1="39.381" y1="61.793" x2="43.931" y2="44.911" gradientUnits="userSpaceOnUse"><stop stop-color="#0073FF"/><stop offset="1" stop-color="#00C2FF"/></linearGradient><linearGradient id="g" x1="84.936" y1="14.962" x2="84.936" y2="41.17" gradientUnits="userSpaceOnUse"><stop stop-color="#FF9898"/><stop offset="1" stop-color="#FF4F4F"/></linearGradient></defs></svg>