<svg width="19" height="18" fill="none" xmlns="http://www.w3.org/2000/svg"><path d="M3.583 3.833a2.083 2.083 0 1 1 4.166 0 2.083 2.083 0 0 1-4.166 0ZM5.666.5a3.333 3.333 0 1 0 0 6.667 3.333 3.333 0 0 0 0-6.667Zm6.25 4.167a1.25 1.25 0 1 1 2.5 0 1.25 1.25 0 0 1-2.5 0Zm1.25-2.5a2.5 2.5 0 1 0 0 5 2.5 2.5 0 0 0 0-5ZM2.541 8.833c-1.036 0-1.875.84-1.875 1.875v.232a1.742 1.742 0 0 0 .012.173 3.74 3.74 0 0 0 .648 1.724c.682.975 1.983 1.83 4.34 1.83 1.14 0 2.034-.2 2.73-.518a5.403 5.403 0 0 1-.223-1.29c-.538.317-1.33.558-2.507.558-2.018 0-2.905-.709-3.316-1.296a2.488 2.488 0 0 1-.429-1.132 1.269 1.269 0 0 1-.005-.066v-.215c0-.345.28-.625.625-.625h6.235a5.43 5.43 0 0 1 .757-1.097 1.87 1.87 0 0 0-.742-.153h-6.25Zm15.625 3.75a4.583 4.583 0 1 0-9.167 0 4.583 4.583 0 0 0 9.167 0ZM14 13v2.086a.417.417 0 1 1-.833 0V13h-2.088a.416.416 0 0 1 0-.833h2.087v-2.084a.417.417 0 0 1 .833 0v2.084h2.08a.416.416 0 0 1 0 .833H14Z" fill="#fff"/></svg>