<svg width="212" height="212" fill="none" xmlns="http://www.w3.org/2000/svg"><circle cx="106" cy="106" r="106" fill="#fff" fill-opacity=".05"/><path d="M75.773 175.637c-.594-2.214-3.141-5.072-7.037-4.029l-16.654 4.46c-3.324.89-4.741 4.533-4.078 7.006.668 2.492 2.864 5.147 7.036 4.03l16.673-4.465c4.154-1.113 4.654-4.787 4.06-7.002ZM23.98 71.169l16.654-4.46c4.154-1.113 4.667-4.81 4.078-7.007-.593-2.214-3.14-5.072-7.036-4.03L21.02 60.134c-3.323.89-4.74 4.533-4.078 7.006.686 2.487 2.883 5.142 7.037 4.03Z" fill="#fff"/><path d="M75.773 175.637c-.594-2.214-3.141-5.072-7.037-4.029l-16.654 4.46c-3.324.89-4.741 4.533-4.078 7.006.668 2.492 2.864 5.147 7.036 4.03l16.673-4.465c4.154-1.113 4.654-4.787 4.06-7.002ZM23.98 71.169l16.654-4.46c4.154-1.113 4.667-4.81 4.078-7.007-.593-2.214-3.14-5.072-7.036-4.03L21.02 60.134c-3.323.89-4.74 4.533-4.078 7.006.686 2.487 2.883 5.142 7.037 4.03Z" fill="url(#a)"/><path d="M149.755 7.894 33.231 39.1c-4.155 1.113-7.22 6.364-6.106 10.517l.742 2.768 8.327-2.23c6.388-1.711 12.279 1.438 14.055 8.063 1.776 6.626-1.75 12.297-8.138 14.008l-8.327 2.23 4.438 16.554 8.327-2.23c6.388-1.712 12.279 1.438 14.055 8.063 1.776 6.625-1.75 12.297-8.138 14.008l-8.328 2.23 4.448 16.59 8.327-2.23c6.389-1.711 12.28 1.439 14.055 8.064 1.776 6.625-1.75 12.297-8.138 14.008l-8.327 2.23 4.438 16.553 8.327-2.23c6.388-1.711 12.28 1.439 14.055 8.064 1.776 6.625-1.75 12.297-8.138 14.008l-8.327 2.23.742 2.768c1.108 4.134 6.376 7.173 10.549 6.056l116.524-31.207c4.154-1.113 7.218-6.364 6.105-10.516l-38.475-143.52c-1.108-4.133-6.376-7.173-10.548-6.055Z" fill="#fff"/><path d="M149.755 7.894 33.231 39.1c-4.155 1.113-7.22 6.364-6.106 10.517l.742 2.768 8.327-2.23c6.388-1.711 12.279 1.438 14.055 8.063 1.776 6.626-1.75 12.297-8.138 14.008l-8.327 2.23 4.438 16.554 8.327-2.23c6.388-1.712 12.279 1.438 14.055 8.063 1.776 6.625-1.75 12.297-8.138 14.008l-8.328 2.23 4.448 16.59 8.327-2.23c6.389-1.711 12.28 1.439 14.055 8.064 1.776 6.625-1.75 12.297-8.138 14.008l-8.327 2.23 4.438 16.553 8.327-2.23c6.388-1.711 12.28 1.439 14.055 8.064 1.776 6.625-1.75 12.297-8.138 14.008l-8.327 2.23.742 2.768c1.108 4.134 6.376 7.173 10.549 6.056l116.524-31.207c4.154-1.113 7.218-6.364 6.105-10.516l-38.475-143.52c-1.108-4.133-6.376-7.173-10.548-6.055Z" fill="url(#b)"/><path d="m44.696 148.454 16.654-4.46c4.155-1.112 4.667-4.81 4.079-7.006-.594-2.215-3.141-5.073-7.037-4.03l-16.654 4.461c-3.324.89-4.742 4.533-4.079 7.006.687 2.486 2.883 5.142 7.037 4.029Zm-10.36-38.643 16.655-4.46c4.154-1.113 4.672-4.792 4.078-7.007-.594-2.214-3.141-5.072-7.037-4.029l-16.654 4.46c-3.324.89-4.741 4.534-4.078 7.007.686 2.486 2.882 5.142 7.036 4.029Z" fill="#fff"/><path d="m44.696 148.454 16.654-4.46c4.155-1.112 4.667-4.81 4.079-7.006-.594-2.215-3.141-5.073-7.037-4.03l-16.654 4.461c-3.324.89-4.742 4.533-4.079 7.006.687 2.486 2.883 5.142 7.037 4.029Zm-10.36-38.643 16.655-4.46c4.154-1.113 4.672-4.792 4.078-7.007-.594-2.214-3.141-5.072-7.037-4.029l-16.654 4.46c-3.324.89-4.741 4.534-4.078 7.007.686 2.486 2.882 5.142 7.036 4.029Z" fill="url(#c)"/><g filter="url(#d)" fill="#fff"><path d="M112.04 89.955c7.778-2.08 12.397-10.068 10.316-17.842-2.081-7.774-10.073-12.39-17.851-10.31-7.778 2.079-12.396 10.067-10.316 17.841 2.08 7.774 10.073 12.39 17.851 10.31Z"/><path fill-rule="evenodd" clip-rule="evenodd" d="M137.025 119.858c-5.809 1.553-8.714 2.33-11 1.006-2.288-1.319-3.065-4.222-4.619-10.028-1.554-5.807-2.331-8.71-1.007-10.995 1.319-2.287 4.224-3.063 10.033-4.617 5.81-1.553 8.714-2.33 11-1.006 2.289 1.319 3.066 4.222 4.62 10.028 1.554 5.807 2.331 8.71 1.007 10.995-1.32 2.287-4.224 3.063-10.034 4.617Zm-2.709-18.341a2.121 2.121 0 0 0-.99-1.29 2.121 2.121 0 0 0-2.902.776 2.12 2.12 0 0 0-.213 1.611l.916 3.424-3.426.916a2.125 2.125 0 0 0-.514 3.891 2.127 2.127 0 0 0 1.612.212l3.426-.916.917 3.424a2.123 2.123 0 0 0 3.892.514 2.12 2.12 0 0 0 .213-1.611l-.916-3.424 3.425-.916a2.124 2.124 0 1 0-1.098-4.103l-3.426.916-.916-3.424Z"/><path d="M126.125 90.729c-1.66.463-3.196.941-4.5 1.482-2.182.912-4.467 2.3-5.964 4.894-1.502 2.593-1.564 5.264-1.261 7.608.269 2.107.934 4.592 1.641 7.231l.162.605c.706 2.64 1.371 5.124 2.19 7.085.636 1.53 1.511 3.11 2.873 4.435l-.088.024c-28.166 7.531-30.064.44-32.405-8.305-2.34-8.745 8.374-19.208 23.929-23.367 4.669-1.248 9.244-1.789 13.423-1.692Z"/></g><defs><linearGradient id="a" x1="53.146" y1="187.611" x2="99.673" y2="159.016" gradientUnits="userSpaceOnUse"><stop stop-color="#0073FF"/><stop offset="1" stop-color="#00C2FF"/></linearGradient><linearGradient id="b" x1="85.309" y1="196.813" x2="166.048" y2="34.703" gradientUnits="userSpaceOnUse"><stop stop-color="#0073FF"/><stop offset="1" stop-color="#00C2FF"/></linearGradient><linearGradient id="c" x1="42.799" y1="148.962" x2="70.564" y2="113.126" gradientUnits="userSpaceOnUse"><stop stop-color="#0073FF"/><stop offset="1" stop-color="#00C2FF"/></linearGradient><filter id="d" x="78.453" y="55.304" width="79.281" height="85.97" filterUnits="userSpaceOnUse" color-interpolation-filters="sRGB"><feFlood flood-opacity="0" result="BackgroundImageFix"/><feColorMatrix in="SourceAlpha" values="0 0 0 0 0 0 0 0 0 0 0 0 0 0 0 0 0 0 127 0" result="hardAlpha"/><feOffset dy="4"/><feGaussianBlur stdDeviation="5"/><feComposite in2="hardAlpha" operator="out"/><feColorMatrix values="0 0 0 0 0.243137 0 0 0 0 0.321569 0 0 0 0 0.737255 0 0 0 1 0"/><feBlend in2="BackgroundImageFix" result="effect1_dropShadow_2201_4448"/><feBlend in="SourceGraphic" in2="effect1_dropShadow_2201_4448" result="shape"/></filter></defs></svg>