<svg width="13" height="19" fill="none" xmlns="http://www.w3.org/2000/svg"><path fill-rule="evenodd" clip-rule="evenodd" d="M8.357.864a.825.825 0 0 0-.191-.525.935.935 0 0 0-.495-.31.994.994 0 0 0-.595.036.912.912 0 0 0-.45.364l-6.5 10.363a.818.818 0 0 0-.003.865.899.899 0 0 0 .34.318.983.983 0 0 0 .466.116h3.714v6.045c0 .19.067.374.191.525.124.151.298.26.495.31.197.049.406.036.595-.036a.912.912 0 0 0 .45-.364l6.5-10.363a.818.818 0 0 0 .003-.865.899.899 0 0 0-.34-.318.983.983 0 0 0-.466-.116H8.357V.864Z" fill="url(#a)"/><defs><linearGradient id="a" x1="-1.543" y1="17.484" x2="18.826" y2="7.497" gradientUnits="userSpaceOnUse"><stop stop-color="#FCFE5D"/><stop offset=".24" stop-color="#FDDC08"/><stop offset=".477" stop-color="#FD9F83"/><stop offset=".696" stop-color="#F97DD3"/><stop offset="1" stop-color="#C566E4"/></linearGradient></defs></svg>