<svg width="13" height="13" viewBox="0 0 13 13" fill="none" xmlns="http://www.w3.org/2000/svg">
<path d="M0.656341 1.96053C0.294129 1.59926 0.29413 1.01253 0.656342 0.651253C1.01723 0.291303 1.60135 0.291303 1.96223 0.651253L6.5 5.17727L11.0378 0.651254C11.3987 0.291304 11.9828 0.291303 12.3437 0.651253C12.7059 1.01253 12.7059 1.59926 12.3437 1.96053L7.80929 6.48316L12.3437 11.0058C12.7059 11.3671 12.7059 11.9538 12.3437 12.3151C11.9828 12.675 11.3987 12.675 11.0378 12.3151L6.5 7.78905L1.96223 12.3151C1.60135 12.675 1.01723 12.675 0.656342 12.3151C0.29413 11.9538 0.29413 11.3671 0.656342 11.0058L5.19071 6.48316L0.656341 1.96053Z" fill="#616380"/>
</svg>
