<svg width="20" height="20" fill="none" xmlns="http://www.w3.org/2000/svg"><path d="M10.529 20H9.47l-2.487-2.561H3.306l-.79-.745V13.09L0 10.53V9.47L2.517 6.91V3.29l.789-.744h3.678L9.471 0h1.058l2.561 2.547h3.619l.744.73V6.91L20 9.47v1.058l-2.591 2.561v3.604l-.745.745H13.09L10.53 20Z" fill="#0073FF"/><path fill-rule="evenodd" clip-rule="evenodd" d="M15.544 6.537c.337.36.32.926-.04 1.263l-6.355 5.957a.893.893 0 0 1-1.2.02l-3.176-2.78A.894.894 0 0 1 5.95 9.654L8.517 11.9l5.764-5.404a.894.894 0 0 1 1.263.041Z" fill="#fff"/></svg>