<svg width="54" height="64" fill="none" xmlns="http://www.w3.org/2000/svg"><path d="M27 0c7.16 0 14.028 2.89 19.092 8.034C51.155 13.177 54 20.154 54 27.429c0 11.355-8.52 23.253-25.2 35.962A2.97 2.97 0 0 1 27 64a2.97 2.97 0 0 1-1.8-.61C8.52 50.683 0 38.785 0 27.43c0-7.275 2.845-14.251 7.908-19.395C12.972 2.89 19.84 0 27 0Z" fill="#fff"/><path d="M21.958 32.041c-3.476-3.476-3.443-6.639 0-10.082 3.444-3.444 6.606-3.477 10.083 0 3.477 3.477 3.444 6.639 0 10.082-1.726 1.726-3.382 2.595-5.041 2.597-1.652 0-3.307-.862-5.042-2.597Zm-4.2-14.284C14.6 20.915 13.007 23.944 13 26.98v.04c.007 3.022 1.586 6.052 4.757 9.224 3.172 3.171 6.201 4.75 9.224 4.757h.04c3.036-.007 6.064-1.6 9.22-4.757 6.315-6.315 6.375-12.114 0-18.486C33.064 14.58 30.028 13 26.998 13c-3.041-.002-6.075 1.593-9.24 4.757Z" fill="url(#a)"/><defs><linearGradient id="a" x1="17.505" y1="36.441" x2="36.23" y2="17.823" gradientUnits="userSpaceOnUse"><stop stop-color="#0073FF"/><stop offset="1" stop-color="#00DEFF"/></linearGradient></defs></svg>