<svg width="20" height="20" viewBox="0 0 20 20" fill="none" xmlns="http://www.w3.org/2000/svg">
<g id="icon/crown">
<path id="Vector" d="M3.37241 4.83465L6.54324 7.62465L9.36824 4.14632C9.44735 4.04908 9.54737 3.97094 9.66086 3.91771C9.77435 3.86449 9.89839 3.83755 10.0237 3.83892C10.1491 3.84028 10.2725 3.8699 10.3848 3.92558C10.4971 3.98125 10.5954 4.06155 10.6724 4.16049L13.3682 7.62382L16.6416 4.79382C16.7701 4.68291 16.9295 4.61391 17.0983 4.59606C17.2671 4.5782 17.4374 4.61234 17.5863 4.6939C17.7352 4.77547 17.8556 4.90057 17.9315 5.05246C18.0073 5.20435 18.035 5.37578 18.0107 5.54382L16.7607 14.1663H3.26657L1.99741 5.58299C1.97219 5.41402 1.99953 5.24138 2.0757 5.08846C2.15187 4.93554 2.2732 4.80973 2.42326 4.72806C2.57331 4.64639 2.74484 4.61282 2.91462 4.63189C3.08439 4.65095 3.2442 4.72174 3.37241 4.83465ZM3.33157 14.9997H16.6649V15.833C16.6649 16.054 16.5771 16.266 16.4208 16.4222C16.2646 16.5785 16.0526 16.6663 15.8316 16.6663H4.16491C3.94389 16.6663 3.73193 16.5785 3.57565 16.4222C3.41937 16.266 3.33157 16.054 3.33157 15.833V14.9997Z" fill="url(#paint0_linear_4052_7334)"/>
</g>
<defs>
<linearGradient id="paint0_linear_4052_7334" x1="0.0857685" y1="15.6431" x2="17.3742" y2="0.158736" gradientUnits="userSpaceOnUse">
<stop stop-color="#FCFE5D"/>
<stop offset="0.240165" stop-color="#FDDC08"/>
<stop offset="0.477179" stop-color="#FD9F83"/>
<stop offset="0.695723" stop-color="#F97DD3"/>
<stop offset="1" stop-color="#C566E4"/>
</linearGradient>
</defs>
</svg>
