<svg width="20" height="16" viewBox="0 0 20 16" fill="none" xmlns="http://www.w3.org/2000/svg">
<path d="M2.04767 1.80237L5.85267 5.15037L9.24267 0.976366C9.33759 0.859676 9.45762 0.765905 9.59381 0.702037C9.73001 0.638168 9.87885 0.605847 10.0293 0.607481C10.1797 0.609115 10.3278 0.644661 10.4626 0.711474C10.5973 0.778286 10.7153 0.874642 10.8077 0.993366L14.0427 5.14937L17.9707 1.75337C18.1249 1.62028 18.3161 1.53748 18.5187 1.51605C18.7214 1.49462 18.9257 1.53559 19.1043 1.63346C19.283 1.73134 19.4276 1.88146 19.5186 2.06373C19.6096 2.246 19.6428 2.45172 19.6137 2.65337L18.1137 13.0004H1.92067L0.397668 2.70037C0.367415 2.4976 0.400213 2.29044 0.491618 2.10694C0.583024 1.92343 0.72862 1.77246 0.908688 1.67445C1.08876 1.57645 1.29459 1.53617 1.49832 1.55904C1.70205 1.58192 1.89382 1.66687 2.04767 1.80237ZM1.99867 14.0004H17.9987V15.0004C17.9987 15.2656 17.8933 15.5199 17.7058 15.7075C17.5182 15.895 17.2639 16.0004 16.9987 16.0004H2.99867C2.73345 16.0004 2.4791 15.895 2.29156 15.7075C2.10402 15.5199 1.99867 15.2656 1.99867 15.0004V14.0004Z" fill="url(#paint0_linear_3780_1864)"/>
<defs>
<linearGradient id="paint0_linear_3780_1864" x1="-1.8963" y1="14.7725" x2="18.8499" y2="-3.80873" gradientUnits="userSpaceOnUse">
<stop stop-color="#FCFE5D"/>
<stop offset="0.240165" stop-color="#FDDC08"/>
<stop offset="0.477179" stop-color="#FD9F83"/>
<stop offset="0.695723" stop-color="#F97DD3"/>
<stop offset="1" stop-color="#C566E4"/>
</linearGradient>
</defs>
</svg>
