<svg width="25" height="24" viewBox="0 0 25 24" fill="none" xmlns="http://www.w3.org/2000/svg">
<g id="Instagram">
<path id="Vector" d="M12.5012 3.27344C10.1311 3.27344 9.83362 3.2838 8.90274 3.32616C7.97367 3.36871 7.33951 3.5158 6.78462 3.73162C6.21064 3.95453 5.72374 4.25271 5.23867 4.73798C4.75323 5.22307 4.45505 5.70998 4.23142 6.2838C4.01507 6.83889 3.8678 7.47326 3.82598 8.40198C3.78435 9.33289 3.77344 9.63053 3.77344 12.0007C3.77344 14.3709 3.78398 14.6674 3.82616 15.5983C3.86889 16.5274 4.01598 17.1616 4.23161 17.7165C4.45469 18.2905 4.75286 18.7774 5.23812 19.2625C5.72301 19.748 6.20991 20.0469 6.78353 20.2698C7.33878 20.4856 7.97313 20.6327 8.90201 20.6753C9.83289 20.7176 10.1302 20.728 12.5001 20.728C14.8704 20.728 15.1669 20.7176 16.0978 20.6753C17.0269 20.6327 17.6617 20.4856 18.217 20.2698C18.7908 20.0469 19.277 19.748 19.7619 19.2625C20.2473 18.7774 20.5455 18.2905 20.7691 17.7167C20.9836 17.1616 21.1309 16.5273 21.1745 15.5985C21.2164 14.6676 21.2273 14.3709 21.2273 12.0007C21.2273 9.63053 21.2164 9.33307 21.1745 8.40216C21.1309 7.47307 20.9836 6.83889 20.7691 6.28398C20.5455 5.70998 20.2473 5.22307 19.7619 4.73798C19.2764 4.25253 18.791 3.95435 18.2165 3.73162C17.6601 3.5158 17.0256 3.36871 16.0965 3.32616C15.1656 3.2838 14.8693 3.27344 12.4984 3.27344H12.5012ZM11.7183 4.84616C11.9506 4.8458 12.2099 4.84616 12.5012 4.84616C14.8313 4.84616 15.1075 4.85453 16.0276 4.89635C16.8785 4.93526 17.3403 5.07744 17.6479 5.19689C18.0552 5.35507 18.3455 5.54416 18.6508 5.84962C18.9563 6.15507 19.1453 6.44598 19.3039 6.85326C19.4233 7.16053 19.5657 7.62235 19.6044 8.47326C19.6462 9.39326 19.6553 9.66962 19.6553 11.9987C19.6553 14.3278 19.6462 14.6042 19.6044 15.5242C19.5655 16.3751 19.4233 16.8369 19.3039 17.1442C19.1457 17.5514 18.9563 17.8414 18.6508 18.1467C18.3454 18.4522 18.0554 18.6413 17.6479 18.7994C17.3407 18.9194 16.8785 19.0613 16.0276 19.1002C15.1076 19.142 14.8313 19.1511 12.5012 19.1511C10.1709 19.1511 9.89471 19.142 8.97473 19.1002C8.12385 19.0609 7.66205 18.9187 7.35424 18.7993C6.94698 18.6411 6.65608 18.452 6.35063 18.1465C6.04519 17.8411 5.8561 17.5509 5.69756 17.1434C5.57811 16.8362 5.43575 16.3743 5.39702 15.5234C5.35521 14.6034 5.34684 14.3271 5.34684 11.9965C5.34684 9.66598 5.35521 9.39107 5.39702 8.47107C5.43593 7.62016 5.57811 7.15835 5.69756 6.85071C5.85574 6.44344 6.04519 6.15253 6.35063 5.84707C6.65608 5.54162 6.94698 5.35253 7.35424 5.19398C7.66187 5.07398 8.12385 4.93216 8.97473 4.89307C9.7798 4.85671 10.0918 4.8458 11.7183 4.84398V4.84616ZM17.1596 6.29526C16.5814 6.29526 16.1123 6.7638 16.1123 7.34216C16.1123 7.92035 16.5814 8.38944 17.1596 8.38944C17.7377 8.38944 18.2068 7.92035 18.2068 7.34216C18.2068 6.76398 17.7377 6.29489 17.1596 6.29489V6.29526ZM12.5012 7.51889C10.0262 7.51889 8.01949 9.52562 8.01949 12.0007C8.01949 14.4758 10.0262 16.4816 12.5012 16.4816C14.9762 16.4816 16.9821 14.4758 16.9821 12.0007C16.9821 9.52562 14.976 7.51889 12.501 7.51889H12.5012ZM12.5012 9.09162C14.1077 9.09162 15.4102 10.394 15.4102 12.0007C15.4102 13.6073 14.1077 14.9098 12.5012 14.9098C10.8945 14.9098 9.59217 13.6073 9.59217 12.0007C9.59217 10.394 10.8945 9.09162 12.5012 9.09162V9.09162Z" fill="url(#paint0_radial_3914_6040)"/>
<path id="Vector_2" d="M12.5012 3.27344C10.1311 3.27344 9.83362 3.2838 8.90274 3.32616C7.97367 3.36871 7.33951 3.5158 6.78462 3.73162C6.21064 3.95453 5.72374 4.25271 5.23867 4.73798C4.75323 5.22307 4.45505 5.70998 4.23142 6.2838C4.01507 6.83889 3.8678 7.47326 3.82598 8.40198C3.78435 9.33289 3.77344 9.63053 3.77344 12.0007C3.77344 14.3709 3.78398 14.6674 3.82616 15.5983C3.86889 16.5274 4.01598 17.1616 4.23161 17.7165C4.45469 18.2905 4.75286 18.7774 5.23812 19.2625C5.72301 19.748 6.20991 20.0469 6.78353 20.2698C7.33878 20.4856 7.97313 20.6327 8.90201 20.6753C9.83289 20.7176 10.1302 20.728 12.5001 20.728C14.8704 20.728 15.1669 20.7176 16.0978 20.6753C17.0269 20.6327 17.6617 20.4856 18.217 20.2698C18.7908 20.0469 19.277 19.748 19.7619 19.2625C20.2473 18.7774 20.5455 18.2905 20.7691 17.7167C20.9836 17.1616 21.1309 16.5273 21.1745 15.5985C21.2164 14.6676 21.2273 14.3709 21.2273 12.0007C21.2273 9.63053 21.2164 9.33307 21.1745 8.40216C21.1309 7.47307 20.9836 6.83889 20.7691 6.28398C20.5455 5.70998 20.2473 5.22307 19.7619 4.73798C19.2764 4.25253 18.791 3.95435 18.2165 3.73162C17.6601 3.5158 17.0256 3.36871 16.0965 3.32616C15.1656 3.2838 14.8693 3.27344 12.4984 3.27344H12.5012ZM11.7183 4.84616C11.9506 4.8458 12.2099 4.84616 12.5012 4.84616C14.8313 4.84616 15.1075 4.85453 16.0276 4.89635C16.8785 4.93526 17.3403 5.07744 17.6479 5.19689C18.0552 5.35507 18.3455 5.54416 18.6508 5.84962C18.9563 6.15507 19.1453 6.44598 19.3039 6.85326C19.4233 7.16053 19.5657 7.62235 19.6044 8.47326C19.6462 9.39326 19.6553 9.66962 19.6553 11.9987C19.6553 14.3278 19.6462 14.6042 19.6044 15.5242C19.5655 16.3751 19.4233 16.8369 19.3039 17.1442C19.1457 17.5514 18.9563 17.8414 18.6508 18.1467C18.3454 18.4522 18.0554 18.6413 17.6479 18.7994C17.3407 18.9194 16.8785 19.0613 16.0276 19.1002C15.1076 19.142 14.8313 19.1511 12.5012 19.1511C10.1709 19.1511 9.89471 19.142 8.97473 19.1002C8.12385 19.0609 7.66205 18.9187 7.35424 18.7993C6.94698 18.6411 6.65608 18.452 6.35063 18.1465C6.04519 17.8411 5.8561 17.5509 5.69756 17.1434C5.57811 16.8362 5.43575 16.3743 5.39702 15.5234C5.35521 14.6034 5.34684 14.3271 5.34684 11.9965C5.34684 9.66598 5.35521 9.39107 5.39702 8.47107C5.43593 7.62016 5.57811 7.15835 5.69756 6.85071C5.85574 6.44344 6.04519 6.15253 6.35063 5.84707C6.65608 5.54162 6.94698 5.35253 7.35424 5.19398C7.66187 5.07398 8.12385 4.93216 8.97473 4.89307C9.7798 4.85671 10.0918 4.8458 11.7183 4.84398V4.84616ZM17.1596 6.29526C16.5814 6.29526 16.1123 6.7638 16.1123 7.34216C16.1123 7.92035 16.5814 8.38944 17.1596 8.38944C17.7377 8.38944 18.2068 7.92035 18.2068 7.34216C18.2068 6.76398 17.7377 6.29489 17.1596 6.29489V6.29526ZM12.5012 7.51889C10.0262 7.51889 8.01949 9.52562 8.01949 12.0007C8.01949 14.4758 10.0262 16.4816 12.5012 16.4816C14.9762 16.4816 16.9821 14.4758 16.9821 12.0007C16.9821 9.52562 14.976 7.51889 12.501 7.51889H12.5012ZM12.5012 9.09162C14.1077 9.09162 15.4102 10.394 15.4102 12.0007C15.4102 13.6073 14.1077 14.9098 12.5012 14.9098C10.8945 14.9098 9.59217 13.6073 9.59217 12.0007C9.59217 10.394 10.8945 9.09162 12.5012 9.09162V9.09162Z" fill="url(#paint1_radial_3914_6040)"/>
</g>
<defs>
<radialGradient id="paint0_radial_3914_6040" cx="0" cy="0" r="1" gradientUnits="userSpaceOnUse" gradientTransform="translate(8.40963 22.0723) rotate(-90) scale(17.2987 16.0885)">
<stop stop-color="#FFDD55"/>
<stop offset="0.1" stop-color="#FFDD55"/>
<stop offset="0.5" stop-color="#FF543E"/>
<stop offset="1" stop-color="#C837AB"/>
</radialGradient>
<radialGradient id="paint1_radial_3914_6040" cx="0" cy="0" r="1" gradientUnits="userSpaceOnUse" gradientTransform="translate(0.849828 4.53083) rotate(78.6811) scale(7.7326 31.8729)">
<stop stop-color="#3771C8"/>
<stop offset="0.128" stop-color="#3771C8"/>
<stop offset="1" stop-color="#6600FF" stop-opacity="0"/>
</radialGradient>
</defs>
</svg>
