<svg width="18" height="18" viewBox="0 0 18 18" fill="none" xmlns="http://www.w3.org/2000/svg">
<g id="Group 3">
<path id="Vector" d="M9 18C13.9706 18 18 13.9706 18 9C18 4.02944 13.9706 0 9 0C4.02944 0 0 4.02944 0 9C0 13.9706 4.02944 18 9 18Z" fill="url(#paint0_linear_4101_6201)"/>
<path id="Vector_2" d="M7.34844 13.125C7.05687 13.125 7.10641 13.0149 7.00585 12.7373L6.14844 9.91544L12.7484 6" fill="#C8DAEA"/>
<path id="Vector_3" d="M7.35156 13.1246C7.57656 13.1246 7.67598 13.0217 7.80156 12.8996L9.00156 11.7327L7.50471 10.8301" fill="#A9C9DD"/>
<path id="Vector_4" d="M7.50206 10.8313L11.1291 13.511C11.5429 13.7393 11.8417 13.6211 11.9448 13.1267L13.4211 6.16948C13.5723 5.56347 13.1901 5.28861 12.7942 5.46837L4.12493 8.81119C3.53317 9.04854 3.53662 9.37869 4.01707 9.52579L6.24179 10.2202L11.3923 6.97079C11.6354 6.82335 11.8586 6.90261 11.6754 7.06517" fill="url(#paint1_linear_4101_6201)"/>
</g>
<defs>
<linearGradient id="paint0_linear_4101_6201" x1="12.0006" y1="3.0006" x2="7.5006" y2="13.5" gradientUnits="userSpaceOnUse">
<stop stop-color="#37AEE2"/>
<stop offset="1" stop-color="#1E96C8"/>
</linearGradient>
<linearGradient id="paint1_linear_4101_6201" x1="10.1244" y1="9.00045" x2="11.5328" y2="12.2054" gradientUnits="userSpaceOnUse">
<stop stop-color="#EFF7FC"/>
<stop offset="1" stop-color="white"/>
</linearGradient>
</defs>
</svg>
