<svg width="35" height="35" fill="none" xmlns="http://www.w3.org/2000/svg"><g clip-path="url(#a)"><path d="M17.404.884c-9.384 0-17 7.616-17 17s7.616 17 17 17 17-7.616 17-17-7.616-17-17-17Zm10.2 18.258c-.204 5.253-4.539 9.588-9.792 9.792A10.191 10.191 0 0 1 7.408 20.74c-.22-1.037.612-2.006 1.666-2.006.8 0 1.496.56 1.666 1.36a6.794 6.794 0 0 0 8.024 5.304c2.652-.51 4.794-2.652 5.304-5.304a6.8 6.8 0 0 0-6.664-8.16v3.043c0 .765-.918 1.139-1.445.595l-4.76-4.743a.842.842 0 0 1 0-1.207l4.743-4.743c.544-.527 1.462-.153 1.462.612v3.043a10.217 10.217 0 0 1 10.2 10.608Z" fill="#fff"/></g><defs><clipPath id="a"><path fill="#fff" transform="translate(.404 .884)" d="M0 0h33.927v33.927H0z"/></clipPath></defs></svg>