<svg width="25" height="25" fill="none" xmlns="http://www.w3.org/2000/svg"><g clip-path="url(#a)"><path d="m2.637 13.642 8.134 9.315c.711.776 1.542 1.164 2.49 1.164.848 0 1.577-.242 2.187-.727l7.066-5.676a3.288 3.288 0 0 0 1.17-2.184c.101-.808-.153-1.6-.763-2.377l-8.134-9.314c-.881-1.1-2.034-1.795-3.457-2.086L4.264.204C3.586.01 2.942.156 2.332.641l-.864.728c-.509.355-.763.938-.763 1.746l.407 6.938c.17 1.39.678 2.587 1.525 3.59Zm1.22-11.449 7.168 1.65c.745.162 1.491.598 2.237 1.31l8.134 9.314c.27.259.355.55.254.873 0 .194-.153.47-.458.825l-7.066 5.676a1.223 1.223 0 0 1-.864.267c-.34-.016-.593-.137-.763-.364L4.365 12.43c-.644-.777-.966-1.569-.966-2.377L2.891 2.92l.966-.728ZM6.755 5.59a.964.964 0 0 1-.305.728 1.061 1.061 0 0 1-.763.291c-.305 0-.56-.097-.762-.291a.964.964 0 0 1-.305-.728c0-.29.101-.533.305-.727.203-.194.457-.291.762-.291s.56.097.763.29a.964.964 0 0 1 .305.728Zm.559 7.229 9.964 3.008h.356c.474 0 .83-.243 1.067-.728a.896.896 0 0 0-.05-.776 1.078 1.078 0 0 0-.61-.534L8.075 10.78a.955.955 0 0 0-.838 0c-.288.13-.483.324-.585.582-.203.744.017 1.23.66 1.456Zm8.134 4.657c0 .42-.153.784-.458 1.091-.305.308-.695.461-1.169.461-.474 0-.864-.153-1.17-.46a1.497 1.497 0 0 1-.457-1.092c0-.42.161-.784.483-1.092.322-.307.703-.46 1.144-.46.44 0 .822.153 1.144.46.322.308.483.672.483 1.092Zm-3.254-8.247c0 .42-.16.784-.483 1.091a1.6 1.6 0 0 1-1.144.461 1.6 1.6 0 0 1-1.143-.46c-.322-.308-.483-.672-.483-1.092 0-.42.152-.785.457-1.092.305-.307.695-.46 1.17-.46.474 0 .864.153 1.169.46.305.307.457.671.457 1.092Z" fill="#4348BF"/></g><defs><clipPath id="a"><path fill="#fff" transform="translate(.705 .121)" d="M0 0h24v24H0z"/></clipPath></defs></svg>