<svg width="75" height="25" fill="none" xmlns="http://www.w3.org/2000/svg"><path d="M6.253 14.469H.557V9.733h5.696V3.94h4.928v5.792h5.696v4.736h-5.696v5.792H6.253v-5.792Z" fill="url(#a)"/><path d="M19.28 18.885h4.96V7.013l-4.96 3.52v-5.76l4.992-3.552H30v17.664h4v4.736H19.28v-4.736Z" fill="url(#b)"/><path d="M44.868 24.037c-1.259 0-2.432-.203-3.52-.608a7.34 7.34 0 0 1-2.848-2.016c-.81-.918-1.45-2.112-1.92-3.584-.448-1.494-.672-3.296-.672-5.408v-.64c0-1.963.224-3.638.672-5.024.47-1.387 1.11-2.518 1.92-3.392a7.182 7.182 0 0 1 2.848-1.952c1.088-.406 2.262-.608 3.52-.608 1.259 0 2.432.202 3.52.608a7.18 7.18 0 0 1 2.848 1.952c.811.874 1.44 2.005 1.888 3.392.47 1.386.704 3.061.704 5.024v.64c0 2.112-.235 3.914-.704 5.408-.448 1.472-1.077 2.666-1.888 3.584a7.34 7.34 0 0 1-2.848 2.016c-1.088.405-2.261.608-3.52.608Zm0-4.736c.427 0 .832-.107 1.216-.32.405-.214.747-.576 1.024-1.088.299-.534.534-1.238.704-2.112.17-.896.256-2.016.256-3.36v-.64c0-1.174-.085-2.155-.256-2.944-.17-.81-.405-1.462-.704-1.952-.277-.49-.618-.832-1.024-1.024a2.467 2.467 0 0 0-1.216-.32 2.65 2.65 0 0 0-1.248.32c-.384.192-.725.533-1.024 1.024-.277.49-.501 1.141-.672 1.952-.17.79-.256 1.77-.256 2.944v.64c0 1.344.086 2.464.256 3.36.17.874.395 1.578.672 2.112.299.512.64.874 1.024 1.088.406.213.822.32 1.248.32Z" fill="url(#c)"/><path d="M65.68 24.037c-1.258 0-2.431-.203-3.52-.608a7.34 7.34 0 0 1-2.847-2.016c-.811-.918-1.451-2.112-1.92-3.584-.448-1.494-.672-3.296-.672-5.408v-.64c0-1.963.224-3.638.672-5.024.47-1.387 1.11-2.518 1.92-3.392a7.182 7.182 0 0 1 2.848-1.952c1.088-.406 2.261-.608 3.52-.608 1.258 0 2.432.202 3.52.608a7.18 7.18 0 0 1 2.848 1.952c.81.874 1.44 2.005 1.888 3.392.47 1.386.704 3.061.704 5.024v.64c0 2.112-.235 3.914-.704 5.408-.448 1.472-1.078 2.666-1.888 3.584a7.34 7.34 0 0 1-2.848 2.016c-1.088.405-2.262.608-3.52.608Zm0-4.736c.427 0 .833-.107 1.217-.32.405-.214.746-.576 1.024-1.088.298-.534.533-1.238.704-2.112.17-.896.256-2.016.256-3.36v-.64c0-1.174-.086-2.155-.256-2.944-.17-.81-.406-1.462-.704-1.952-.278-.49-.619-.832-1.024-1.024a2.467 2.467 0 0 0-1.216-.32 2.65 2.65 0 0 0-1.248.32c-.384.192-.726.533-1.024 1.024-.277.49-.502 1.141-.672 1.952-.17.79-.256 1.77-.256 2.944v.64c0 1.344.085 2.464.256 3.36.17.874.394 1.578.672 2.112.298.512.64.874 1.024 1.088.405.213.821.32 1.248.32Z" fill="url(#d)"/><defs><linearGradient id="a" x1="3.463" y1="26.164" x2="33.937" y2="-41.639" gradientUnits="userSpaceOnUse"><stop offset=".099" stop-color="#FFC62F"/><stop offset=".342" stop-color="#FFEAA5"/><stop offset=".482" stop-color="#EBD084"/><stop offset="1" stop-color="#A37207"/></linearGradient><linearGradient id="b" x1="3.463" y1="26.164" x2="33.937" y2="-41.639" gradientUnits="userSpaceOnUse"><stop offset=".099" stop-color="#FFC62F"/><stop offset=".342" stop-color="#FFEAA5"/><stop offset=".482" stop-color="#EBD084"/><stop offset="1" stop-color="#A37207"/></linearGradient><linearGradient id="c" x1="3.463" y1="26.164" x2="33.937" y2="-41.639" gradientUnits="userSpaceOnUse"><stop offset=".099" stop-color="#FFC62F"/><stop offset=".342" stop-color="#FFEAA5"/><stop offset=".482" stop-color="#EBD084"/><stop offset="1" stop-color="#A37207"/></linearGradient><linearGradient id="d" x1="3.463" y1="26.164" x2="33.937" y2="-41.639" gradientUnits="userSpaceOnUse"><stop offset=".099" stop-color="#FFC62F"/><stop offset=".342" stop-color="#FFEAA5"/><stop offset=".482" stop-color="#EBD084"/><stop offset="1" stop-color="#A37207"/></linearGradient></defs></svg>