<svg width="21" height="21" fill="none" xmlns="http://www.w3.org/2000/svg"><path d="M10.88 6.295v13m-9-12a1 1 0 0 1 1-1h16a1 1 0 0 1 1 1v2a1 1 0 0 1-1 1h-16a1 1 0 0 1-1-1v-2Z" stroke="#4348BF" stroke-width="2" stroke-linecap="round" stroke-linejoin="round"/><path d="M17.88 10.296v7a2 2 0 0 1-2 2h-10a2 2 0 0 1-2-2v-7m2.5-4a2.5 2.5 0 1 1 0-5c.964-.017 1.91.451 2.712 1.343.803.892 1.426 2.166 1.787 3.657.362-1.49.985-2.765 1.788-3.657.802-.892 1.748-1.36 2.712-1.343a2.5 2.5 0 0 1 0 5" stroke="#4348BF" stroke-width="2" stroke-linecap="round" stroke-linejoin="round"/></svg>