<svg width="37" height="24" fill="none" xmlns="http://www.w3.org/2000/svg"><path d="M5.677 14.895.589 6.767h5.44l3.328 5.184 3.2-5.184h5.312l-5.056 7.968 5.376 8.992h-5.472l-3.552-6.048-3.552 6.048H.269l5.408-8.832Z" fill="url(#a)"/><path d="m19.311 19.63 7.424-6.143a46.878 46.878 0 0 0 1.857-1.6c.512-.49.928-.95 1.248-1.376.34-.427.586-.832.736-1.216.17-.406.255-.822.255-1.248 0-.747-.213-1.323-.64-1.728-.405-.405-.991-.608-1.76-.608-2.026 0-3.04 1.258-3.04 3.776h-5.76c0-2.73.726-4.843 2.177-6.336C23.279 1.657 25.488.91 28.43.91c1.366 0 2.56.181 3.585.544 1.023.341 1.877.832 2.56 1.472a5.55 5.55 0 0 1 1.504 2.24c.34.874.512 1.834.512 2.88 0 .768-.14 1.504-.416 2.208a8.06 8.06 0 0 1-1.12 2.048 12.718 12.718 0 0 1-1.697 1.92 30.92 30.92 0 0 1-2.144 1.824l-3.872 2.944h9.568v4.736h-17.6V19.63Z" fill="url(#b)"/><defs><linearGradient id="a" x1="1.984" y1="26.271" x2="42.455" y2="-19.238" gradientUnits="userSpaceOnUse"><stop offset=".099" stop-color="#FFC62F"/><stop offset=".342" stop-color="#FFEAA5"/><stop offset=".482" stop-color="#EBD084"/><stop offset="1" stop-color="#A37207"/></linearGradient><linearGradient id="b" x1="1.984" y1="26.271" x2="42.455" y2="-19.238" gradientUnits="userSpaceOnUse"><stop offset=".099" stop-color="#FFC62F"/><stop offset=".342" stop-color="#FFEAA5"/><stop offset=".482" stop-color="#EBD084"/><stop offset="1" stop-color="#A37207"/></linearGradient></defs></svg>