<svg width="81" height="24" fill="none" xmlns="http://www.w3.org/2000/svg"><path d="M9.296 23.803c-1.536 0-2.826-.192-3.872-.576-1.045-.406-1.898-.939-2.56-1.6a6.113 6.113 0 0 1-1.407-2.304 9.506 9.506 0 0 1-.48-2.816h5.568c.042.853.309 1.546.8 2.08.49.512 1.14.768 1.952.768 1.002 0 1.717-.31 2.143-.928.449-.64.673-1.536.673-2.688 0-1.216-.267-2.059-.8-2.528-.534-.491-1.206-.736-2.016-.736-1.131 0-2.006.437-2.624 1.312H1.457V.987h15.232V5.69H6.993v3.136c.896-.662 2.122-.992 3.68-.992 1.066 0 2.048.17 2.944.512.896.32 1.664.81 2.304 1.472.64.661 1.13 1.482 1.472 2.464.362.96.544 2.09.544 3.392 0 1.237-.203 2.357-.609 3.36a7.148 7.148 0 0 1-1.727 2.56c-.747.704-1.654 1.248-2.72 1.632-1.067.384-2.262.576-3.585.576ZM29.468 23.803c-1.259 0-2.432-.203-3.52-.608a7.34 7.34 0 0 1-2.848-2.016c-.81-.918-1.45-2.112-1.92-3.584-.448-1.494-.672-3.296-.672-5.408v-.64c0-1.963.224-3.638.672-5.024.47-1.387 1.11-2.518 1.92-3.392a7.182 7.182 0 0 1 2.848-1.952C27.036.773 28.209.57 29.468.57s2.432.202 3.52.608a7.182 7.182 0 0 1 2.848 1.952c.81.874 1.44 2.005 1.888 3.392.47 1.386.704 3.061.704 5.024v.64c0 2.112-.235 3.914-.704 5.408-.448 1.472-1.078 2.666-1.888 3.584a7.341 7.341 0 0 1-2.848 2.016c-1.088.405-2.262.608-3.52.608Zm0-4.736c.426 0 .832-.107 1.216-.32.405-.214.746-.576 1.024-1.088.299-.534.533-1.238.704-2.112.17-.896.256-2.016.256-3.36v-.64c0-1.174-.085-2.155-.256-2.944-.17-.811-.405-1.462-.704-1.952-.277-.491-.619-.832-1.024-1.024a2.467 2.467 0 0 0-1.216-.32 2.65 2.65 0 0 0-1.248.32c-.384.192-.725.533-1.024 1.024-.277.49-.501 1.141-.672 1.952-.17.789-.256 1.77-.256 2.944v.64c0 1.344.085 2.464.256 3.36.17.874.395 1.578.672 2.112.298.512.64.874 1.024 1.088.405.213.821.32 1.248.32ZM50.28 23.803c-1.258 0-2.432-.203-3.52-.608a7.34 7.34 0 0 1-2.848-2.016c-.81-.918-1.45-2.112-1.92-3.584-.448-1.494-.672-3.296-.672-5.408v-.64c0-1.963.224-3.638.672-5.024.47-1.387 1.11-2.518 1.92-3.392a7.182 7.182 0 0 1 2.849-1.952C47.848.773 49.02.57 50.28.57c1.258 0 2.431.202 3.52.608a7.182 7.182 0 0 1 2.847 1.952c.811.874 1.44 2.005 1.888 3.392.47 1.386.704 3.061.704 5.024v.64c0 2.112-.234 3.914-.704 5.408-.448 1.472-1.077 2.666-1.888 3.584a7.341 7.341 0 0 1-2.848 2.016c-1.088.405-2.261.608-3.52.608Zm0-4.736c.427 0 .832-.107 1.216-.32.406-.214.747-.576 1.024-1.088.299-.534.534-1.238.704-2.112.171-.896.256-2.016.256-3.36v-.64c0-1.174-.085-2.155-.256-2.944-.17-.811-.405-1.462-.704-1.952-.277-.491-.618-.832-1.024-1.024a2.467 2.467 0 0 0-1.215-.32 2.65 2.65 0 0 0-1.249.32c-.384.192-.725.533-1.024 1.024-.277.49-.5 1.141-.672 1.952-.17.789-.256 1.77-.256 2.944v.64c0 1.344.086 2.464.256 3.36.171.874.395 1.578.672 2.112.299.512.64.874 1.024 1.088.406.213.822.32 1.248.32ZM71.093 23.803c-1.259 0-2.432-.203-3.52-.608a7.34 7.34 0 0 1-2.848-2.016c-.81-.918-1.45-2.112-1.92-3.584-.448-1.494-.672-3.296-.672-5.408v-.64c0-1.963.224-3.638.672-5.024.47-1.387 1.11-2.518 1.92-3.392a7.182 7.182 0 0 1 2.848-1.952C68.661.773 69.834.57 71.093.57s2.432.202 3.52.608a7.182 7.182 0 0 1 2.848 1.952c.81.874 1.44 2.005 1.888 3.392.47 1.386.704 3.061.704 5.024v.64c0 2.112-.235 3.914-.704 5.408-.448 1.472-1.078 2.666-1.888 3.584a7.341 7.341 0 0 1-2.848 2.016c-1.088.405-2.262.608-3.52.608Zm0-4.736c.426 0 .832-.107 1.216-.32.405-.214.746-.576 1.024-1.088.299-.534.533-1.238.704-2.112.17-.896.256-2.016.256-3.36v-.64c0-1.174-.085-2.155-.256-2.944-.17-.811-.405-1.462-.704-1.952-.277-.491-.619-.832-1.024-1.024a2.467 2.467 0 0 0-1.216-.32 2.65 2.65 0 0 0-1.248.32c-.384.192-.725.533-1.024 1.024-.277.49-.501 1.141-.672 1.952-.17.789-.256 1.77-.256 2.944v.64c0 1.344.085 2.464.256 3.36.17.874.394 1.578.672 2.112.299.512.64.874 1.024 1.088.405.213.821.32 1.248.32Z" fill="#fff"/></svg>