<svg width="34" height="34" fill="none" xmlns="http://www.w3.org/2000/svg"><path d="m8.96 12.805 1.228.878a.455.455 0 0 0-.228-.086.556.556 0 0 0-.336.079l-1.228-.878c.1-.062.218-.09.336-.08a.469.469 0 0 1 .228.087Z" fill="#856400"/><path d="m8.396 12.798 1.228.878a.573.573 0 0 0-.061.041l-1.228-.878a.574.574 0 0 1 .06-.041Z" fill="#8A6800"/><path d="m8.335 12.84 1.228.877-.047.039-1.227-.878a.387.387 0 0 1 .046-.039Z" fill="#8F6C00"/><path d="m8.29 12.878 1.226.878a.488.488 0 0 0-.037.039l-1.228-.88a.478.478 0 0 1 .038-.037Z" fill="#946F00"/><path d="m8.251 12.915 1.228.88-.032.037-1.227-.873a.417.417 0 0 1 .031-.038" fill="#997300"/><path d="m8.22 12.96 1.227.877-.027.04-1.229-.879a.382.382 0 0 1 .029-.039Z" fill="#9E7700"/><path d="m8.191 12.992 1.229.878a.626.626 0 0 0-.024.042l-1.229-.88c.009-.013.016-.027.024-.04Z" fill="#A37B00"/><path d="m8.167 13.033 1.229.879a.413.413 0 0 0-.022.043l-1.228-.88.021-.042Z" fill="#A87F00"/><path d="m8.146 13.075 1.228.88a.49.49 0 0 0-.018.048l-1.228-.88c0-.016.01-.03.018-.047Z" fill="#AD8300"/><path d="m8.128 13.124 1.228.88c0 .018-.012.038-.017.057l-1.227-.88c0-.019.01-.038.016-.057Z" fill="#B38600"/><path d="m8.112 13.182 1.227.88a.663.663 0 0 0-.01.078L8.1 13.26a.501.501 0 0 1 .011-.078Z" fill="#B88A00"/><path d="m8.1 13.26 1.229.88a.459.459 0 0 0 0 .107l-1.225-.873a.563.563 0 0 1 0-.11" fill="#BD8E00"/><path d="m12.692 15.177 1.228.879-.034.034-1.228-.879a.383.383 0 0 0 .034-.034Z" fill="#946F00"/><path d="m12.658 15.211 1.228.88a.545.545 0 0 1-.046.037l-1.228-.878a.603.603 0 0 0 .046-.039Z" fill="#8F6C00"/><path d="m12.612 15.25 1.228.878a.337.337 0 0 1-.06.04l-1.226-.878.058-.04Z" fill="#8A6800"/><path d="m12.554 15.29 1.227.878a.561.561 0 0 1-.335.078.48.48 0 0 1-.228-.085l-1.228-.88a.47.47 0 0 0 .228.086.564.564 0 0 0 .336-.077Z" fill="#856400"/><path d="m17.454 10.012 1.229.878-4.762 5.166-1.228-.88 4.761-5.164Z" fill="#A27A00"/><path d="m8.104 13.37 1.228.879 1.014 7.822-1.229-.878-1.014-7.824Z" fill="#CA9800"/><path d="m9.118 21.192 1.228.879a.455.455 0 0 0 .034.127l-1.228-.88a.455.455 0 0 1-.034-.126Z" fill="#BD8E00"/><path d="m9.152 21.319 1.228.88c.01.022.021.045.034.067l-1.227-.885a.384.384 0 0 1-.035-.068" fill="#B88A00"/><path d="m9.187 21.381 1.227.88c.01.015.022.03.034.045l-1.228-.88a.34.34 0 0 1-.033-.045Z" fill="#B38600"/><path d="m9.22 21.432 1.228.88.032.035-1.228-.88a.394.394 0 0 1-.032-.035Z" fill="#AD8300"/><path d="m9.252 21.468 1.228.88.035.028-1.229-.878-.034-.03Z" fill="#A87F00"/><path d="m9.286 21.498 1.229.878.018.014-1.228-.871-.019-.014" fill="#A37B00"/><path d="m18.277 9.89 1.228.878a.559.559 0 0 0-.27-.099.652.652 0 0 0-.392.09l-1.227-.88a.646.646 0 0 1 .39-.09c.098.01.192.045.271.101Z" fill="#856400"/><path d="m17.616 9.88 1.227.879a.963.963 0 0 0-.068.045l-1.228-.878a.554.554 0 0 1 .07-.047Z" fill="#8A6800"/><path d="m17.547 9.922 1.228.878a.77.77 0 0 0-.053.044l-1.228-.878c.017-.016.036-.03.053-.044Z" fill="#8F6C00"/><path d="m17.494 9.97 1.228.878-.04.042-1.228-.88.04-.04Z" fill="#946F00"/><path d="m21.69 16.219 1.227.88a.554.554 0 0 1-.283.049.482.482 0 0 1-.233-.087l-1.227-.878a.469.469 0 0 0 .232.085.552.552 0 0 0 .283-.05Z" fill="#856400"/><path d="m24.837 2.35 1.228.88c.19.137.377.276.567.426l-1.227-.88c-.189-.149-.378-.29-.567-.426" fill="#A37B00"/><path d="m25.403 2.777 1.226.879c.411.328.804.676 1.178 1.044l-1.229-.88c-.387-.378-.78-.726-1.175-1.043Z" fill="#A87F00"/><path d="m26.578 3.82 1.229.88c.52.51 1.011 1.047 1.472 1.61L28.05 5.43c-.46-.562-.951-1.1-1.472-1.61Z" fill="#AD8300"/><path d="m28.05 5.431 1.229.878c.367.448.731.925 1.093 1.432l-1.228-.88c-.36-.507-.725-.983-1.093-1.43Z" fill="#B38600"/><path d="m25.509 14.445 1.228.878-3.82 1.775-1.226-.88 3.818-1.773Z" fill="#886700"/><path d="m26.018 14.479 1.228.879a.461.461 0 0 0-.227-.086.552.552 0 0 0-.284.053l-1.226-.88a.546.546 0 0 1 .283-.052c.082.008.161.037.227.086M13.546 32.434l1.229.878c-1.765-.176-3.425-.828-5.007-1.961l-1.228-.88c1.583 1.134 3.242 1.785 5.007 1.963Z" fill="#856400"/><path d="M29.144 6.862c5.699 7.989 4.317 14.612-4.187 21.145-4.255 3.265-8.008 4.753-11.41 4.429-3.429-.345-6.465-2.485-9.301-6.461C1.409 21.999.326 18.359 1.004 14.9c.709-3.517 3.178-6.806 7.43-10.07 4.252-3.263 8.02-4.762 11.43-4.428 3.41.334 6.438 2.48 9.28 6.46Zm-3.003 8.283c.196-.356-.022-.715-.35-.748a.546.546 0 0 0-.284.052l-3.82 1.775a.55.55 0 0 1-.283.05.47.47 0 0 1-.384-.276l-2.57-5.885a.527.527 0 0 0-.179-.22.548.548 0 0 0-.27-.1.673.673 0 0 0-.55.222l-4.764 5.166a.567.567 0 0 1-.473.19.471.471 0 0 1-.25-.102l-2.978-2.442a.469.469 0 0 0-.254-.105.618.618 0 0 0-.468.185.585.585 0 0 0-.16.467l1.013 7.822c.01.105.06.203.137.278.078.074.18.118.289.126l12.031 1.182a.597.597 0 0 0 .327-.073c.1-.055.18-.137.232-.236l4.015-7.33" fill="url(#a)"/><path d="m29.144 6.862 1.228.879c.29.407.563.811.817 1.213l-1.227-.88c-.253-.4-.526-.804-.818-1.212Z" fill="#B38600"/><path d="m29.962 8.075 1.227.88a19.94 19.94 0 0 1 1.56 2.938l-1.228-.88a20.08 20.08 0 0 0-1.56-2.938" fill="#B88A00"/><path d="m31.517 11.014 1.228.88c.813 1.932 1.159 3.79 1.04 5.595l-1.227-.88c.119-1.804-.229-3.662-1.041-5.595Z" fill="#BD8E00"/><path d="m32.558 16.61 1.228.879c-.035.526-.11 1.05-.223 1.565l-1.228-.879c.113-.516.187-1.04.223-1.566Z" fill="#B88A00"/><path d="m32.335 18.175 1.228.88c-.084.382-.19.76-.315 1.131l-1.228-.876c.125-.372.23-.75.315-1.132" fill="#B38600"/><path d="m32.02 19.31 1.228.879c-.113.337-.244.672-.391 1.006l-1.227-.879c.142-.334.284-.67.39-1.006Z" fill="#AD8300"/><path d="m31.63 20.313 1.227.88a11.97 11.97 0 0 1-.478.966l-1.227-.88c.174-.321.335-.643.478-.966Z" fill="#A87F00"/><path d="m31.155 21.281 1.227.88c-.181.33-.378.66-.592.988l-1.228-.88c.214-.328.411-.657.593-.988Z" fill="#A37B00"/><path d="m30.56 22.27 1.227.879c-.234.356-.488.711-.761 1.065l-1.227-.878c.273-.354.527-.71.76-1.067Z" fill="#9E7700"/><path d="m29.799 23.336 1.227.878c-.313.408-.654.814-1.023 1.218l-1.228-.88c.369-.403.71-.809 1.024-1.216Z" fill="#997300"/><path d="m28.775 24.555 1.228.88c-.445.488-.93.976-1.452 1.462l-1.228-.878a24.561 24.561 0 0 0 1.452-1.464Z" fill="#946F00"/><path d="m27.325 26.016 1.229.878a32.576 32.576 0 0 1-2.366 1.99l-.017.013-1.229-.878.018-.014a32.8 32.8 0 0 0 2.365-1.989Z" fill="#8F6C00"/><path d="m24.94 28.02 1.228.877c-.977.756-2 1.453-3.062 2.09l-1.228-.879a31.483 31.483 0 0 0 3.062-2.089Z" fill="#8A6800"/><path d="m21.878 30.108 1.228.88c-3.018 1.794-5.774 2.569-8.331 2.324l-1.229-.878c2.553.243 5.314-.537 8.332-2.326Z" fill="#856400"/><defs><linearGradient id="a" x1="28.982" y1="4.458" x2="6.721" y2="29.996" gradientUnits="userSpaceOnUse"><stop stop-color="#FFB900"/><stop offset=".29" stop-color="#FFE89F"/><stop offset="1" stop-color="#A37207"/></linearGradient></defs></svg>