<svg width="54" height="24" fill="none" xmlns="http://www.w3.org/2000/svg"><path d="M5.856 13.864H.16V9.128h5.696V3.336h4.928v5.792h5.696v4.736h-5.696v5.792H5.856v-5.792Z" fill="url(#a)"/><path d="M18.882 18.28h4.96V6.408l-4.96 3.52v-5.76L23.874.616h5.728V18.28h4v4.736h-14.72V18.28Z" fill="url(#b)"/><path d="M44.471 23.432c-1.258 0-2.432-.203-3.52-.608a7.342 7.342 0 0 1-2.848-2.016c-.81-.917-1.45-2.112-1.92-3.584-.448-1.493-.672-3.296-.672-5.408v-.64c0-1.963.224-3.637.672-5.024.47-1.387 1.11-2.517 1.92-3.392A7.181 7.181 0 0 1 40.95.808C42.039.403 43.212.2 44.47.2c1.258 0 2.432.203 3.52.608a7.182 7.182 0 0 1 2.848 1.952c.81.875 1.44 2.005 1.888 3.392.47 1.387.704 3.061.704 5.024v.64c0 2.112-.235 3.915-.704 5.408-.448 1.472-1.077 2.667-1.888 3.584a7.343 7.343 0 0 1-2.848 2.016c-1.088.405-2.261.608-3.52.608Zm0-4.736c.427 0 .832-.107 1.216-.32.405-.213.747-.576 1.024-1.088.299-.533.533-1.237.704-2.112.17-.896.256-2.016.256-3.36v-.64c0-1.173-.085-2.155-.256-2.944-.17-.81-.405-1.461-.704-1.952-.277-.49-.619-.832-1.024-1.024a2.467 2.467 0 0 0-1.216-.32 2.65 2.65 0 0 0-1.248.32c-.384.192-.725.533-1.024 1.024-.277.49-.501 1.141-.672 1.952-.17.79-.256 1.77-.256 2.944v.64c0 1.344.085 2.464.256 3.36.17.875.395 1.579.672 2.112.299.512.64.875 1.024 1.088.405.213.821.32 1.248.32Z" fill="url(#c)"/><defs><linearGradient id="a" x1="1.962" y1="25.559" x2="38.444" y2="-33.346" gradientUnits="userSpaceOnUse"><stop offset=".099" stop-color="#FFC62F"/><stop offset=".342" stop-color="#FFEAA5"/><stop offset=".482" stop-color="#EBD084"/><stop offset="1" stop-color="#A37207"/></linearGradient><linearGradient id="b" x1="1.962" y1="25.559" x2="38.444" y2="-33.346" gradientUnits="userSpaceOnUse"><stop offset=".099" stop-color="#FFC62F"/><stop offset=".342" stop-color="#FFEAA5"/><stop offset=".482" stop-color="#EBD084"/><stop offset="1" stop-color="#A37207"/></linearGradient><linearGradient id="c" x1="1.962" y1="25.559" x2="38.444" y2="-33.346" gradientUnits="userSpaceOnUse"><stop offset=".099" stop-color="#FFC62F"/><stop offset=".342" stop-color="#FFEAA5"/><stop offset=".482" stop-color="#EBD084"/><stop offset="1" stop-color="#A37207"/></linearGradient></defs></svg>