<svg width="336" height="110" fill="none" xmlns="http://www.w3.org/2000/svg"><path d="M110.333 55.022c0 30.366-24.699 54.978-55.167 54.978S0 85.388 0 55.022C0 24.655 24.713 0 55.166 0c30.454 0 55.167 24.611 55.167 55.022ZM61.5 19.117a69.955 69.955 0 0 0-6.334-.275c-2.154 0-4.237.087-6.304.275v29.34H61.5v-29.34Zm29.21 17.106A104.111 104.111 0 0 0 76.61 32.68v24.64c0 17.744-7.548 27.056-21.445 27.056-13.896 0-21.415-9.327-21.415-27.055V32.666c-4.931.882-9.631 2.097-14.1 3.543v21.228c0 19.492 15.907 35.428 35.515 35.428 19.609 0 35.544-15.921 35.544-35.428V36.209v.014ZM171.616 63.654c-4.975 0-8.734 2.025-10.6 5.09-1.894-3.05-6.001-5.09-10.296-5.09-8.43 0-12.739 5.336-12.739 11.945v15.863h7.866v-14.75c0-3.138 1.663-5.943 5.481-5.943 3.817 0 5.784 2.66 5.784 5.842v14.865h7.895V76.611c0-3.167 1.866-5.842 5.64-5.842 3.774 0 5.596 2.805 5.596 5.943v14.75h7.866V75.599c0-6.609-4.063-11.945-12.522-11.945M219.248 81.875v-17.7h-7.794l.058 4.31c-1.692-2.531-4.671-4.83-9.963-4.83-9.096 0-13.767 7.056-13.767 14.142-.173 7.172 5.119 14.316 13.376 14.316 4.367 0 8.373-1.938 10.296-5.365.781 2.256 2.733 4.728 6.782 4.728h4.511v-6.608h-1.258c-1.59 0-2.255-.578-2.255-2.979m-16.051 3.384c-4.483 0-7.809-3.08-7.809-7.418 0-4.339 3.34-7.303 7.809-7.303 4.468 0 7.953 3.022 7.953 7.303 0 4.28-3.341 7.418-7.953 7.418ZM227.765 73.487v17.975h7.867v-12.06c0-4.671 3.398-7.664 7.707-7.664h5.148v-8.112h-3.861c-4.757 0-8.228 4.048-8.98 6.42v-5.857h-7.866v9.313l-.015-.014ZM253.143 91.462h7.867V78.1l12.233 13.362h9.298l-12.682-14.027 11.699-13.26h-9.255L261.01 76.958V55.73h-7.867v35.732ZM291.752 79.966c0 3.008 1.562 6.03 6.594 6.03 4.613 0 5.278-2.777 5.278-2.777h8.648s-.81 8.894-13.94 8.894c-9.154 0-14.88-5.12-14.88-14.258 0-9.14 5.726-14.2 14.793-14.2s14.692 5.06 14.692 14.2c0 .997-.174 2.11-.174 2.11h-21.025.014Zm.116-4.801h12.682c0-2.227-1.287-5.394-6.29-5.394-5.004 0-6.392 3.167-6.392 5.394ZM330.911 84.622c-2.69 0-3.673-1.2-3.673-5.003v-9.617h8.532V63.67h-8.532v-5.452h-4.251l-7.592 7.26v4.525h3.977v10.643c0 7.635 3.73 10.86 11.539 10.86h4.873v-6.897h-4.873v.014ZM226.102 34.329c0 4.453-2.516 6.507-6.261 6.507s-6.175-2.024-6.175-6.507V19.623h-8.083v14.98c0 9.761 8.17 13.593 14.301 13.593 6.132 0 14.316-3.832 14.316-13.593v-14.98h-8.083l-.044 14.691.029.015ZM198.772 26.448v-6.825h-26.245v6.825h15.53L171.89 40.85v6.826h27.851V40.85h-17.107l16.138-14.402ZM274.646 19.088c-5.119 0-8.98 2.082-10.889 5.249-1.952-3.167-6.175-5.25-10.57-5.25-8.633 0-13.13 5.496-13.13 12.292v16.297h8.083v-15.14c0-3.254 1.706-6.103 5.625-6.103a5.616 5.616 0 0 1 2.343.362c.751.29 1.431.723 1.995 1.287a5.706 5.706 0 0 1 1.287 1.995 5.63 5.63 0 0 1 .347 2.343v15.27h8.083V32.42c0-3.254 1.924-6 5.799-6 3.875 0 5.741 2.862 5.741 6.101v15.14h8.083V31.393c0-6.796-4.164-12.29-12.855-12.29h.072l-.014-.015ZM158.5 34.329c0 4.453-2.516 6.507-6.232 6.507-3.717 0-6.204-2.024-6.204-6.507V19.623h-8.083v14.98c0 9.761 8.141 13.593 14.301 13.593s14.287-3.832 14.287-13.593v-14.98h-8.083v14.691l.014.015Z" fill="#fff"/></svg>