<svg width="20" height="20" viewBox="0 0 20 20" fill="none" xmlns="http://www.w3.org/2000/svg">
<path fill-rule="evenodd" clip-rule="evenodd" d="M10.0013 18.3327C14.6037 18.3327 18.3346 14.6017 18.3346 9.99935C18.3346 5.39698 14.6037 1.66602 10.0013 1.66602C5.39893 1.66602 1.66797 5.39698 1.66797 9.99935C1.66797 14.6017 5.39893 18.3327 10.0013 18.3327ZM7.66543 6.77909C7.42136 6.53501 7.02563 6.53501 6.78155 6.77909C6.53747 7.02316 6.53747 7.41889 6.78155 7.66297L9.11739 9.99881L6.78155 12.3346C6.53747 12.5787 6.53747 12.9744 6.78155 13.2185C7.02563 13.4626 7.42136 13.4626 7.66543 13.2185L10.0013 10.8827L12.3371 13.2185C12.5812 13.4626 12.9769 13.4626 13.221 13.2185C13.4651 12.9744 13.4651 12.5787 13.221 12.3346L10.8852 9.99881L13.221 7.66297C13.4651 7.41889 13.4651 7.02316 13.221 6.77909C12.9769 6.53501 12.5812 6.53501 12.3371 6.77909L10.0013 9.11492L7.66543 6.77909Z" fill="#646778"/>
</svg>
