<svg width="184" height="102" viewBox="0 0 184 102" fill="none" xmlns="http://www.w3.org/2000/svg">
    <path d="M125.094 7.08984L56.7074 12.8853C48.988 14.1349 49.5518 17.1993 49.5518 21.8743L42.5285 83.7541C42.4232 84.6816 43.5336 85.2348 44.2106 84.5921L58.8384 70.7052L125.094 77.079C129.769 77.079 134.552 72.8054 134.552 68.1304V16.0788C134.552 11.4038 129.629 7.08984 125.094 7.08984Z" fill="#0073FF"/>
    <g filter="url(#filter0_i_4416_29330)">
        <path d="M118.207 7.44141L50.207 13.2369C45.532 13.2369 41.707 17.0619 41.707 21.7369V85.2833C41.707 86.1742 42.7842 86.6204 43.4141 85.9904L58.707 70.6975L118.207 76.4929C122.882 76.4929 126.707 72.6679 126.707 67.9929V15.9414C126.707 11.2664 122.882 7.44141 118.207 7.44141Z" fill="white"/>
        <path d="M118.207 7.44141L50.207 13.2369C45.532 13.2369 41.707 17.0619 41.707 21.7369V85.2833C41.707 86.1742 42.7842 86.6204 43.4141 85.9904L58.707 70.6975L118.207 76.4929C122.882 76.4929 126.707 72.6679 126.707 67.9929V15.9414C126.707 11.2664 122.882 7.44141 118.207 7.44141Z" fill="url(#paint0_linear_4416_29330)"/>
    </g>
    <g clip-path="url(#clip0_4416_29330)">
        <path d="M107.044 37.8589C107.044 37.0222 106.702 36.2198 106.094 35.6282C105.486 35.0366 104.661 34.7042 103.802 34.7042H93.556L95.1123 27.4959C95.1447 27.3381 95.1609 27.1646 95.1609 26.9911C95.1609 26.3444 94.9859 25.6339 94.4476 25.3192L91.6099 24.4775C90.6483 24.1923 89.612 24.5538 89.0364 25.3752L82.5 34.7042C81.9002 35.2878 81.1057 35.414 81.1057 36.2815V52.0547C81.1057 52.8914 81.4473 53.6938 82.0553 54.2854C82.6634 54.877 83.4881 55.2094 84.348 55.2094H98.9382C100.284 55.2094 101.435 54.4207 101.921 53.285L106.817 42.1649C106.963 41.8022 107.044 41.4236 107.044 41.0135V37.8589ZM71.3789 55.2094H77.8634V36.2815H71.3789V55.2094Z" fill="white"/>
        <path d="M105.005 37.856C105.005 37.0194 104.663 36.217 104.055 35.6254C103.447 35.0338 102.622 34.7014 101.763 34.7014H91.517L93.0732 27.493C93.1057 27.3353 93.1219 27.1618 93.1219 26.9883C93.1219 26.3416 92.6429 25.631 92.4086 25.3163L91.7744 24.7051C91.17 24.1226 90.2125 24.1249 89.6109 24.7102L80.0231 34.0389C79.4233 34.6225 79.0666 35.4112 79.0666 36.2787V52.0519C79.0666 52.8886 79.4082 53.691 80.0163 54.2826C80.6243 54.8742 81.449 55.2066 82.3089 55.2066H96.8991C98.2447 55.2066 99.3957 54.4179 99.882 53.2822L104.778 42.1621C104.924 41.7993 105.005 41.4208 105.005 41.0107V37.856ZM69.3398 55.2066H75.8244V36.2787H69.3398V55.2066Z" fill="url(#paint1_linear_4416_29330)"/>
    </g>
    <path d="M151.748 46C151.363 46.1446 151.073 46.4338 150.977 46.9158L150.254 51.977L145.627 54.2424C145.193 54.4352 145 54.869 145 55.2547L154.447 54.4352L151.748 46Z" fill="white"/>
    <path d="M151.748 46C151.363 46.1446 151.073 46.4338 150.977 46.9158L150.254 51.977L145.627 54.2424C145.193 54.4352 145 54.869 145 55.2547L154.447 54.4352L151.748 46Z" fill="url(#paint2_linear_4416_29330)"/>
    <path d="M145 55.3038C145 55.6894 145.193 56.075 145.627 56.2678L150.254 58.5333L150.977 63.5944C151.025 64.0282 151.363 64.3656 151.748 64.5102L154.496 54.4844L145 55.3038Z" fill="white"/>
    <path d="M145 55.3038C145 55.6894 145.193 56.075 145.627 56.2678L150.254 58.5333L150.977 63.5944C151.025 64.0282 151.363 64.3656 151.748 64.5102L154.496 54.4844L145 55.3038Z" fill="url(#paint3_linear_4416_29330)"/>
    <path d="M162.495 49.4662C162.254 49.2251 161.917 49.0805 161.531 49.1287L156.47 49.9964L152.903 46.3331C152.566 45.9957 152.132 45.9475 151.746 46.0439L154.494 54.5273L162.495 49.4662Z" fill="white"/>
    <path d="M162.495 49.4662C162.254 49.2251 161.917 49.0805 161.531 49.1287L156.47 49.9964L152.903 46.3331C152.566 45.9957 152.132 45.9475 151.746 46.0439L154.494 54.5273L162.495 49.4662Z" fill="url(#paint4_linear_4416_29330)"/>
    <path d="M151.699 64.5102C152.085 64.6548 152.519 64.5585 152.856 64.221L156.423 60.5577L161.484 61.4254C161.918 61.5218 162.304 61.329 162.545 60.9916L154.447 54.4844L151.699 64.5102Z" fill="white"/>
    <path d="M151.699 64.5102C152.085 64.6548 152.519 64.5585 152.856 64.221L156.423 60.5577L161.484 61.4254C161.918 61.5218 162.304 61.329 162.545 60.9916L154.447 54.4844L151.699 64.5102Z" fill="url(#paint5_linear_4416_29330)"/>
    <path d="M154.445 54.4882L162.543 60.9954C162.784 60.6579 162.832 60.2241 162.64 59.8385L160.229 55.3076L162.64 50.7767C162.881 50.3429 162.784 49.8126 162.447 49.5234L154.445 54.4882Z" fill="white"/>
    <path d="M154.445 54.4882L162.543 60.9954C162.784 60.6579 162.832 60.2241 162.64 59.8385L160.229 55.3076L162.64 50.7767C162.881 50.3429 162.784 49.8126 162.447 49.5234L154.445 54.4882Z" fill="url(#paint6_linear_4416_29330)"/>
    <path d="M4.93596 86C4.6539 86.1058 4.44237 86.3173 4.37186 86.6699L3.843 90.3719L0.458335 92.0289C0.141023 92.17 0 92.4873 0 92.7693L6.91036 92.1699L4.93596 86Z" fill="white"/>
    <path d="M4.93596 86C4.6539 86.1058 4.44237 86.3173 4.37186 86.6699L3.843 90.3719L0.458335 92.0289C0.141023 92.17 0 92.4873 0 92.7693L6.91036 92.1699L4.93596 86Z" fill="url(#paint7_linear_4416_29330)"/>
    <path d="M0 92.8025C0 93.0846 0.141023 93.3666 0.458335 93.5076L3.843 95.1647L4.37186 98.8667C4.40711 99.184 4.6539 99.4308 4.93596 99.5365L6.9456 92.2031L0 92.8025Z" fill="white"/>
    <path d="M0 92.8025C0 93.0846 0.141023 93.3666 0.458335 93.5076L3.843 95.1647L4.37186 98.8667C4.40711 99.184 4.6539 99.4308 4.93596 99.5365L6.9456 92.2031L0 92.8025Z" fill="url(#paint8_linear_4416_29330)"/>
    <path d="M12.7959 88.5353C12.6196 88.359 12.3728 88.2533 12.0907 88.2885L8.38876 88.9231L5.77977 86.2436C5.53297 85.9968 5.21565 85.9616 4.93359 86.0321L6.94324 92.2373L12.7959 88.5353Z" fill="white"/>
    <path d="M12.7959 88.5353C12.6196 88.359 12.3728 88.2533 12.0907 88.2885L8.38876 88.9231L5.77977 86.2436C5.53297 85.9968 5.21565 85.9616 4.93359 86.0321L6.94324 92.2373L12.7959 88.5353Z" fill="url(#paint9_linear_4416_29330)"/>
    <path d="M4.90234 99.5365C5.1844 99.6423 5.5017 99.5718 5.7485 99.325L8.35751 96.6455L12.0595 97.2801C12.3768 97.3506 12.6588 97.2096 12.8351 96.9628L6.91199 92.2031L4.90234 99.5365Z" fill="white"/>
    <path d="M4.90234 99.5365C5.1844 99.6423 5.5017 99.5718 5.7485 99.325L8.35751 96.6455L12.0595 97.2801C12.3768 97.3506 12.6588 97.2096 12.8351 96.9628L6.91199 92.2031L4.90234 99.5365Z" fill="url(#paint10_linear_4416_29330)"/>
    <path d="M6.90625 92.2096L12.8294 96.9693C13.0057 96.7225 13.0409 96.4051 12.8999 96.1231L11.1371 92.809L12.8999 89.4948C13.0762 89.1775 13.0057 88.7897 12.7589 88.5781L6.90625 92.2096Z" fill="white"/>
    <path d="M6.90625 92.2096L12.8294 96.9693C13.0057 96.7225 13.0409 96.4051 12.8999 96.1231L11.1371 92.809L12.8999 89.4948C13.0762 89.1775 13.0057 88.7897 12.7589 88.5781L6.90625 92.2096Z" fill="url(#paint11_linear_4416_29330)"/>
    <path d="M8.71963 46C8.22137 46.1868 7.84768 46.5606 7.72312 47.1834L6.78887 53.7231L0.809673 56.6504C0.249125 56.8995 0 57.4601 0 57.9584L12.2075 56.8995L8.71963 46Z" fill="white"/>
    <path d="M8.71963 46C8.22137 46.1868 7.84768 46.5606 7.72312 47.1834L6.78887 53.7231L0.809673 56.6504C0.249125 56.8995 0 57.4601 0 57.9584L12.2075 56.8995L8.71963 46Z" fill="url(#paint12_linear_4416_29330)"/>
    <path d="M0 58.0198C0 58.518 0.249125 59.0163 0.809673 59.2654L6.78887 62.1927L7.72312 68.7324C7.7854 69.293 8.22137 69.729 8.71963 69.9158L12.2698 56.9609L0 58.0198Z" fill="white"/>
    <path d="M0 58.0198C0 58.518 0.249125 59.0163 0.809673 59.2654L6.78887 62.1927L7.72312 68.7324C7.7854 69.293 8.22137 69.729 8.71963 69.9158L12.2698 56.9609L0 58.0198Z" fill="url(#paint13_linear_4416_29330)"/>
    <path d="M22.604 50.4788C22.2926 50.1674 21.8566 49.9805 21.3583 50.0428L14.8186 51.1639L10.2097 46.4304C9.77367 45.9944 9.21311 45.9321 8.71484 46.0567L12.265 57.0185L22.604 50.4788Z" fill="white"/>
    <path d="M22.604 50.4788C22.2926 50.1674 21.8566 49.9805 21.3583 50.0428L14.8186 51.1639L10.2097 46.4304C9.77367 45.9944 9.21311 45.9321 8.71484 46.0567L12.265 57.0185L22.604 50.4788Z" fill="url(#paint14_linear_4416_29330)"/>
    <path d="M8.66016 69.9158C9.15842 70.1027 9.71895 69.9781 10.1549 69.5421L14.7639 64.8086L21.3036 65.9297C21.8642 66.0543 22.3624 65.8051 22.6739 65.3692L12.2103 56.9609L8.66016 69.9158Z" fill="white"/>
    <path d="M8.66016 69.9158C9.15842 70.1027 9.71895 69.9781 10.1549 69.5421L14.7639 64.8086L21.3036 65.9297C21.8642 66.0543 22.3624 65.8051 22.6739 65.3692L12.2103 56.9609L8.66016 69.9158Z" fill="url(#paint15_linear_4416_29330)"/>
    <path d="M12.2031 56.9698L22.6667 65.3781C22.9781 64.9421 23.0404 64.3815 22.7913 63.8833L19.6771 58.0287L22.7913 52.1741C23.1027 51.6135 22.9781 50.9284 22.5421 50.5547L12.2031 56.9698Z" fill="white"/>
    <path d="M12.2031 56.9698L22.6667 65.3781C22.9781 64.9421 23.0404 64.3815 22.7913 63.8833L19.6771 58.0287L22.7913 52.1741C23.1027 51.6135 22.9781 50.9284 22.5421 50.5547L12.2031 56.9698Z" fill="url(#paint16_linear_4416_29330)"/>
    <path d="M177.95 68.0146C177.663 67.9573 177.434 68.0719 177.205 68.3009L175.201 71.0495L171.765 70.935C171.479 70.935 171.193 71.1068 171.078 71.3358L176.862 73.7981L177.95 68.0146Z" fill="white"/>
    <path d="M177.95 68.0146C177.663 67.9573 177.434 68.0719 177.205 68.3009L175.201 71.0495L171.765 70.935C171.479 70.935 171.193 71.1068 171.078 71.3358L176.862 73.7981L177.95 68.0146Z" fill="url(#paint17_linear_4416_29330)"/>
    <path d="M171.08 71.3359C170.965 71.565 170.965 71.8513 171.137 72.0804L173.141 74.8289L171.996 78.0356C171.881 78.3219 171.996 78.6083 172.168 78.78L176.921 73.741L171.08 71.3359Z" fill="white"/>
    <path d="M171.08 71.3359C170.965 71.565 170.965 71.8513 171.137 72.0804L173.141 74.8289L171.996 78.0356C171.881 78.3219 171.996 78.6083 172.168 78.78L176.921 73.741L171.08 71.3359Z" fill="url(#paint18_linear_4416_29330)"/>
    <path d="M183.221 73.3983C183.163 73.1692 182.992 72.9974 182.763 72.8829L179.499 71.7949L178.525 68.531C178.468 68.2447 178.182 68.0729 177.953 68.0156L176.922 73.8564L183.221 73.3983Z" fill="white"/>
    <path d="M183.221 73.3983C183.163 73.1692 182.992 72.9974 182.763 72.8829L179.499 71.7949L178.525 68.531C178.468 68.2447 178.182 68.0729 177.953 68.0156L176.922 73.8564L183.221 73.3983Z" fill="url(#paint19_linear_4416_29330)"/>
    <path d="M172.168 78.8399C172.34 79.0116 172.626 79.1262 172.912 79.0116L176.176 77.9809L178.868 80.0996C179.097 80.2714 179.383 80.2714 179.612 80.1569L176.863 73.8008L172.168 78.8399Z" fill="white"/>
    <path d="M172.168 78.8399C172.34 79.0116 172.626 79.1262 172.912 79.0116L176.176 77.9809L178.868 80.0996C179.097 80.2714 179.383 80.2714 179.612 80.1569L176.863 73.8008L172.168 78.8399Z" fill="url(#paint20_linear_4416_29330)"/>
    <path d="M176.922 73.8591L179.67 80.2152C179.9 80.1007 180.071 79.8717 180.071 79.5281V76.0924L182.877 74.1454C183.163 73.9736 183.221 73.6301 183.163 73.3438L176.922 73.8591Z" fill="white"/>
    <path d="M176.922 73.8591L179.67 80.2152C179.9 80.1007 180.071 79.8717 180.071 79.5281V76.0924L182.877 74.1454C183.163 73.9736 183.221 73.6301 183.163 73.3438L176.922 73.8591Z" fill="url(#paint21_linear_4416_29330)"/>
    <g filter="url(#filter1_f_4416_29330)">
        <path d="M88 95C122.242 95 150 94.3284 150 93.5C150 92.6716 122.242 92 88 92C53.7583 92 26 92.6716 26 93.5C26 94.3284 53.7583 95 88 95Z" fill="url(#paint22_radial_4416_29330)" fill-opacity="0.15"/>
    </g>
    <defs>
        <filter id="filter0_i_4416_29330" x="41.707" y="7.44141" width="85" height="80.8438" filterUnits="userSpaceOnUse" color-interpolation-filters="sRGB">
            <feFlood flood-opacity="0" result="BackgroundImageFix"/>
            <feBlend mode="normal" in="SourceGraphic" in2="BackgroundImageFix" result="shape"/>
            <feColorMatrix in="SourceAlpha" type="matrix" values="0 0 0 0 0 0 0 0 0 0 0 0 0 0 0 0 0 0 127 0" result="hardAlpha"/>
            <feOffset dy="2"/>
            <feGaussianBlur stdDeviation="5"/>
            <feComposite in2="hardAlpha" operator="arithmetic" k2="-1" k3="1"/>
            <feColorMatrix type="matrix" values="0 0 0 0 0 0 0 0 0 0.870588 0 0 0 0 1 0 0 0 0.1 0"/>
            <feBlend mode="normal" in2="shape" result="effect1_innerShadow_4416_29330"/>
        </filter>
        <filter id="filter1_f_4416_29330" x="21" y="87" width="134" height="13" filterUnits="userSpaceOnUse" color-interpolation-filters="sRGB">
            <feFlood flood-opacity="0" result="BackgroundImageFix"/>
            <feBlend mode="normal" in="SourceGraphic" in2="BackgroundImageFix" result="shape"/>
            <feGaussianBlur stdDeviation="2.5" result="effect1_foregroundBlur_4416_29330"/>
        </filter>
        <linearGradient id="paint0_linear_4416_29330" x1="52.9116" y1="87.6975" x2="107.698" y2="8.81373" gradientUnits="userSpaceOnUse">
            <stop stop-color="#0073FF"/>
            <stop offset="1" stop-color="#00C2FF"/>
        </linearGradient>
        <linearGradient id="paint1_linear_4416_29330" x1="65.1072" y1="52.6902" x2="106.953" y2="18.7854" gradientUnits="userSpaceOnUse">
            <stop stop-color="#FCFE5D"/>
            <stop offset="0.240165" stop-color="#FDDC08"/>
            <stop offset="0.477179" stop-color="#FD9F83"/>
            <stop offset="0.695723" stop-color="#F97DD3"/>
            <stop offset="1" stop-color="#C566E4"/>
        </linearGradient>
        <linearGradient id="paint2_linear_4416_29330" x1="146.245" y1="55.2547" x2="152.641" y2="46.3789" gradientUnits="userSpaceOnUse">
            <stop stop-color="#0073FF"/>
            <stop offset="1" stop-color="#00C2FF"/>
        </linearGradient>
        <linearGradient id="paint3_linear_4416_29330" x1="146.252" y1="64.5102" x2="153.328" y2="55.3985" gradientUnits="userSpaceOnUse">
            <stop stop-color="#0073FF"/>
            <stop offset="1" stop-color="#00C2FF"/>
        </linearGradient>
        <linearGradient id="paint4_linear_4416_29330" x1="153.163" y1="54.5273" x2="158.571" y2="45.259" gradientUnits="userSpaceOnUse">
            <stop stop-color="#0073FF"/>
            <stop offset="1" stop-color="#00C2FF"/>
        </linearGradient>
        <linearGradient id="paint5_linear_4416_29330" x1="153.129" y1="64.5753" x2="159.982" y2="54.5628" gradientUnits="userSpaceOnUse">
            <stop stop-color="#0073FF"/>
            <stop offset="1" stop-color="#00C2FF"/>
        </linearGradient>
        <linearGradient id="paint6_linear_4416_29330" x1="155.543" y1="60.9954" x2="163.9" y2="52.748" gradientUnits="userSpaceOnUse">
            <stop stop-color="#0073FF"/>
            <stop offset="1" stop-color="#00C2FF"/>
        </linearGradient>
        <linearGradient id="paint7_linear_4416_29330" x1="0.91091" y1="92.7693" x2="5.58893" y2="86.2771" gradientUnits="userSpaceOnUse">
            <stop stop-color="#0073FF"/>
            <stop offset="1" stop-color="#00C2FF"/>
        </linearGradient>
        <linearGradient id="paint8_linear_4416_29330" x1="0.915557" y1="99.5365" x2="6.09176" y2="92.8717" gradientUnits="userSpaceOnUse">
            <stop stop-color="#0073FF"/>
            <stop offset="1" stop-color="#00C2FF"/>
        </linearGradient>
        <linearGradient id="paint9_linear_4416_29330" x1="5.96998" y1="92.2373" x2="9.92601" y2="85.458" gradientUnits="userSpaceOnUse">
            <stop stop-color="#0073FF"/>
            <stop offset="1" stop-color="#00C2FF"/>
        </linearGradient>
        <linearGradient id="paint10_linear_4416_29330" x1="5.94803" y1="99.5841" x2="10.9604" y2="92.2605" gradientUnits="userSpaceOnUse">
            <stop stop-color="#0073FF"/>
            <stop offset="1" stop-color="#00C2FF"/>
        </linearGradient>
        <linearGradient id="paint11_linear_4416_29330" x1="7.70923" y1="96.9693" x2="13.8217" y2="90.9367" gradientUnits="userSpaceOnUse">
            <stop stop-color="#0073FF"/>
            <stop offset="1" stop-color="#00C2FF"/>
        </linearGradient>
        <linearGradient id="paint12_linear_4416_29330" x1="1.60917" y1="57.9584" x2="9.87315" y2="46.4896" gradientUnits="userSpaceOnUse">
            <stop stop-color="#0073FF"/>
            <stop offset="1" stop-color="#00C2FF"/>
        </linearGradient>
        <linearGradient id="paint13_linear_4416_29330" x1="1.61738" y1="69.9158" x2="10.7614" y2="58.1421" gradientUnits="userSpaceOnUse">
            <stop stop-color="#0073FF"/>
            <stop offset="1" stop-color="#00C2FF"/>
        </linearGradient>
        <linearGradient id="paint14_linear_4416_29330" x1="10.5457" y1="57.0185" x2="17.5342" y2="45.0425" gradientUnits="userSpaceOnUse">
            <stop stop-color="#0073FF"/>
            <stop offset="1" stop-color="#00C2FF"/>
        </linearGradient>
        <linearGradient id="paint15_linear_4416_29330" x1="10.5074" y1="69.9999" x2="19.3621" y2="57.0622" gradientUnits="userSpaceOnUse">
            <stop stop-color="#0073FF"/>
            <stop offset="1" stop-color="#00C2FF"/>
        </linearGradient>
        <linearGradient id="paint16_linear_4416_29330" x1="13.6216" y1="65.3781" x2="24.4196" y2="54.7213" gradientUnits="userSpaceOnUse">
            <stop stop-color="#0073FF"/>
            <stop offset="1" stop-color="#00C2FF"/>
        </linearGradient>
        <linearGradient id="paint17_linear_4416_29330" x1="171.984" y1="73.7981" x2="175.769" y2="67.6996" gradientUnits="userSpaceOnUse">
            <stop stop-color="#0073FF"/>
            <stop offset="1" stop-color="#00C2FF"/>
        </linearGradient>
        <linearGradient id="paint18_linear_4416_29330" x1="171.78" y1="78.78" x2="177.187" y2="72.9342" gradientUnits="userSpaceOnUse">
            <stop stop-color="#0073FF"/>
            <stop offset="1" stop-color="#00C2FF"/>
        </linearGradient>
        <linearGradient id="paint19_linear_4416_29330" x1="177.752" y1="73.8564" x2="181.714" y2="68.0484" gradientUnits="userSpaceOnUse">
            <stop stop-color="#0073FF"/>
            <stop offset="1" stop-color="#00C2FF"/>
        </linearGradient>
        <linearGradient id="paint20_linear_4416_29330" x1="173.149" y1="80.2367" x2="177.395" y2="73.5598" gradientUnits="userSpaceOnUse">
            <stop stop-color="#0073FF"/>
            <stop offset="1" stop-color="#00C2FF"/>
        </linearGradient>
        <linearGradient id="paint21_linear_4416_29330" x1="177.747" y1="80.2152" x2="182.641" y2="74.1534" gradientUnits="userSpaceOnUse">
            <stop stop-color="#0073FF"/>
            <stop offset="1" stop-color="#00C2FF"/>
        </linearGradient>
        <radialGradient id="paint22_radial_4416_29330" cx="0" cy="0" r="1" gradientUnits="userSpaceOnUse" gradientTransform="translate(88.0034 93.5014) rotate(180) scale(61.4759 1.48531)">
            <stop/>
            <stop offset="1" stop-color="#1B1B50" stop-opacity="0"/>
        </radialGradient>
        <clipPath id="clip0_4416_29330">
            <rect width="38.9072" height="37.8557" fill="white" transform="translate(68.543 22.082)"/>
        </clipPath>
    </defs>
</svg>
