<svg xmlns="http://www.w3.org/2000/svg" width="180" height="130" viewBox="0 0 180 130" fill="none">
    <g clip-path="url(#clip0_4201_7249)">
        <path d="M56.7013 21.4595C56.7013 21.4595 46.743 20.9736 52.0254 51.3476C52.0254 51.3476 55.5813 61.6622 51.0921 68.3051H117.123V21.4595H56.7013Z" fill="#B1C9F6"/>
        <path d="M43.2797 103.444C43.2278 102.859 41.8356 98.9135 41.5918 98.3791C40.7488 96.5311 40.2668 93.9399 42.6624 91.9726C42.7234 91.9226 42.789 91.877 42.8574 91.8377C42.8829 91.823 42.913 91.8059 42.9474 91.7866C45.2782 90.4767 46.7189 92.8445 45.96 95.4081C45.7403 96.15 45.7058 96.719 46.0236 96.8856C46.7331 97.2492 47.8742 94.6227 48.6758 92.4558C49.2754 90.8349 49.4662 89.7415 51.1912 89.637C54.3233 89.4474 55.9433 92.1788 54.2642 94.8294C54.0345 95.1921 53.9949 95.4429 54.2552 95.5029C55.1531 95.7098 58.6127 93.406 60.6579 91.9677C61.6498 91.2702 62.8822 90.9565 64.0315 91.343C65.9865 92.0004 68.7729 93.414 68.5347 96.0915C68.18 100.184 65.8655 101.445 64.8575 101.333C63.8402 101.221 57.9138 98.9598 57.7831 99.7913C57.331 102.668 60.6088 106.932 57.7346 107.402C57.0853 107.508 56.4504 107.46 55.8698 107.182C52.734 105.677 52.4633 103.295 50.5034 102.398C48.5435 101.501 46.8822 101.51 47.6848 102.417C48.4968 103.332 52.034 104.22 53.1539 106.201C54.2739 108.181 55.2725 109.517 52.034 109.031C48.7861 108.546 43.513 106.163 43.2797 103.444Z" fill="white"/>
        <path d="M43.2797 103.444C43.2278 102.859 41.8356 98.9135 41.5918 98.3791C40.7488 96.5311 40.2668 93.9399 42.6624 91.9726C42.7234 91.9226 42.789 91.877 42.8574 91.8377C42.8829 91.823 42.913 91.8059 42.9474 91.7866C45.2782 90.4767 46.7189 92.8445 45.96 95.4081C45.7403 96.15 45.7058 96.719 46.0236 96.8856C46.7331 97.2492 47.8742 94.6227 48.6758 92.4558C49.2754 90.8349 49.4662 89.7415 51.1912 89.637C54.3233 89.4474 55.9433 92.1788 54.2642 94.8294C54.0345 95.1921 53.9949 95.4429 54.2552 95.5029C55.1531 95.7098 58.6127 93.406 60.6579 91.9677C61.6498 91.2702 62.8822 90.9565 64.0315 91.343C65.9865 92.0004 68.7729 93.414 68.5347 96.0915C68.18 100.184 65.8655 101.445 64.8575 101.333C63.8402 101.221 57.9138 98.9598 57.7831 99.7913C57.331 102.668 60.6088 106.932 57.7346 107.402C57.0853 107.508 56.4504 107.46 55.8698 107.182C52.734 105.677 52.4633 103.295 50.5034 102.398C48.5435 101.501 46.8822 101.51 47.6848 102.417C48.4968 103.332 52.034 104.22 53.1539 106.201C54.2739 108.181 55.2725 109.517 52.034 109.031C48.7861 108.546 43.513 106.163 43.2797 103.444Z" fill="url(#paint0_linear_4201_7249)"/>
        <path d="M65.2459 96.2054C65.2459 96.2054 47.0559 95.5047 43.0427 100.709C43.0427 100.709 42.1561 103.371 39.4215 105.801L38.9922 106.959C38.9922 106.959 42.1467 103.633 43.276 103.427C43.2667 103.437 41.5028 96.9808 65.2459 96.2054Z" fill="url(#paint1_linear_4201_7249)"/>
        <path d="M39.4101 105.801C39.4101 105.801 35.5089 108.688 35.2383 113.855L35.9476 113.92C35.9476 113.92 37.1982 108.576 39.4475 106.493C41.6967 104.4 39.4101 105.801 39.4101 105.801Z" fill="url(#paint2_linear_4201_7249)"/>
        <path d="M26.0819 95.7144C26.6092 94.579 27.5476 93.5964 28.5148 92.8015C30.4122 91.2421 33.0618 88.1964 30.9567 84.4663C30.8701 84.3129 30.9203 84.3574 30.8092 84.2207C28.8107 81.7612 26.0245 83.6691 25.8227 86.8318C25.7643 87.7478 25.5696 88.3949 25.1457 88.4479C24.157 88.5717 23.9884 84.8022 23.9988 82.0002C24.0054 80.211 23.026 78.5401 21.3756 77.8491C20.9576 77.6741 20.5086 77.4912 20.0418 77.3085C17.0138 76.1235 15.3282 78.7947 16.4978 81.8286C16.9014 82.8756 17.0262 83.613 16.5407 83.5522C15.4115 83.4109 12.3072 79.1021 10.6584 76.7019C9.97082 75.7009 8.92009 74.9854 7.70704 74.9274C5.27972 74.8115 1.27499 75.1326 0.403957 78.3575C-0.865328 83.0571 1.18793 85.4115 2.36388 85.7011C3.53984 85.9907 11.0716 85.8973 10.8756 86.8783C10.2007 90.256 4.82376 93.6683 7.82165 95.3644C8.50396 95.7505 9.23406 95.9578 9.99826 95.885C14.1048 95.4925 15.3834 92.9419 17.922 92.7551C20.4699 92.5589 22.3271 93.2409 21.0485 93.9323C19.7792 94.6143 15.4674 94.1565 13.4141 95.9036C11.3609 97.6508 9.6996 98.7346 13.5075 99.51C17.3246 100.295 24.1751 99.7997 25.547 96.866C25.7556 96.4169 25.9323 96.0365 26.0819 95.7144Z" fill="white"/>
        <path d="M26.0819 95.7144C26.6092 94.579 27.5476 93.5964 28.5148 92.8015C30.4122 91.2421 33.0618 88.1964 30.9567 84.4663C30.8701 84.3129 30.9203 84.3574 30.8092 84.2207C28.8107 81.7612 26.0245 83.6691 25.8227 86.8318C25.7643 87.7478 25.5696 88.3949 25.1457 88.4479C24.157 88.5717 23.9884 84.8022 23.9988 82.0002C24.0054 80.211 23.026 78.5401 21.3756 77.8491C20.9576 77.6741 20.5086 77.4912 20.0418 77.3085C17.0138 76.1235 15.3282 78.7947 16.4978 81.8286C16.9014 82.8756 17.0262 83.613 16.5407 83.5522C15.4115 83.4109 12.3072 79.1021 10.6584 76.7019C9.97082 75.7009 8.92009 74.9854 7.70704 74.9274C5.27972 74.8115 1.27499 75.1326 0.403957 78.3575C-0.865328 83.0571 1.18793 85.4115 2.36388 85.7011C3.53984 85.9907 11.0716 85.8973 10.8756 86.8783C10.2007 90.256 4.82376 93.6683 7.82165 95.3644C8.50396 95.7505 9.23406 95.9578 9.99826 95.885C14.1048 95.4925 15.3834 92.9419 17.922 92.7551C20.4699 92.5589 22.3271 93.2409 21.0485 93.9323C19.7792 94.6143 15.4674 94.1565 13.4141 95.9036C11.3609 97.6508 9.6996 98.7346 13.5075 99.51C17.3246 100.295 24.1751 99.7997 25.547 96.866C25.7556 96.4169 25.9323 96.0365 26.0819 95.7144Z" fill="url(#paint3_linear_4201_7249)"/>
        <path d="M4.01953 79.8242C4.01953 79.8242 24.5708 86.4858 26.9133 93.9321C26.9133 93.9321 26.82 97.2582 28.8733 101.079V102.546C28.8733 102.546 26.7173 97.5478 25.5507 96.8658C25.5414 96.8751 30.1425 90.4098 4.01953 79.8242Z" fill="url(#paint4_linear_4201_7249)"/>
        <path d="M28.8721 101.08C28.8721 101.08 32.0453 105.901 30.2348 111.759L29.4228 111.544C29.4228 111.544 30.2161 105.088 28.5548 101.837C26.8935 98.595 28.8721 101.08 28.8721 101.08Z" fill="url(#paint5_linear_4201_7249)"/>
        <path d="M40.3999 92.1106C39.391 89.9656 36.931 87.3474 35.2571 85.6691C33.0228 83.4289 30.8893 79.8986 33.284 75.7233C33.3758 75.5633 33.4846 75.4091 33.6038 75.2683C33.8392 74.9902 34.3011 74.4628 34.9255 73.8362C37.2732 71.4803 40.1653 73.7069 40.0194 77.0297C39.9264 79.1467 40.0961 80.9299 40.9132 81.0298C42.3286 81.2093 42.4695 75.3044 42.4185 71.5809C42.3941 69.793 43.3762 68.127 45.018 67.419C46.3446 66.8469 48.0252 66.1594 49.7361 65.558C52.8021 64.4801 54.6178 67.3229 53.2155 70.2548C52.0966 72.5944 51.3378 74.6817 52.2621 74.5645C53.8304 74.3656 58.3067 68.0473 60.3623 65.03C61.0455 64.0271 62.09 63.3225 63.3001 63.2325C66.3884 63.003 72.3118 63.1827 73.5413 67.7161C75.2213 73.9105 72.5054 77.0123 70.9654 77.3954C69.4161 77.7785 59.4858 77.657 59.7472 78.9463C59.8212 79.3116 60.4122 79.7392 61.3064 80.1381C64.7254 81.6631 68.1359 86.3944 65.3864 88.9351C64.0629 90.1582 62.5429 90.9793 60.9045 90.8212C55.4913 90.3074 53.8114 86.9439 50.4609 86.6917C47.1103 86.4301 44.6557 87.3363 46.3357 88.2426C48.0156 89.1489 53.6901 88.5416 56.3966 90.8399C59.1032 93.1476 61.2964 94.5678 56.266 95.5955C51.2355 96.6326 42.2105 95.9786 40.3999 92.1106Z" fill="white"/>
        <path d="M40.3999 92.1106C39.391 89.9656 36.931 87.3474 35.2571 85.6691C33.0228 83.4289 30.8893 79.8986 33.284 75.7233C33.3758 75.5633 33.4846 75.4091 33.6038 75.2683C33.8392 74.9902 34.3011 74.4628 34.9255 73.8362C37.2732 71.4803 40.1653 73.7069 40.0194 77.0297C39.9264 79.1467 40.0961 80.9299 40.9132 81.0298C42.3286 81.2093 42.4695 75.3044 42.4185 71.5809C42.3941 69.793 43.3762 68.127 45.018 67.419C46.3446 66.8469 48.0252 66.1594 49.7361 65.558C52.8021 64.4801 54.6178 67.3229 53.2155 70.2548C52.0966 72.5944 51.3378 74.6817 52.2621 74.5645C53.8304 74.3656 58.3067 68.0473 60.3623 65.03C61.0455 64.0271 62.09 63.3225 63.3001 63.2325C66.3884 63.003 72.3118 63.1827 73.5413 67.7161C75.2213 73.9105 72.5054 77.0123 70.9654 77.3954C69.4161 77.7785 59.4858 77.657 59.7472 78.9463C59.8212 79.3116 60.4122 79.7392 61.3064 80.1381C64.7254 81.6631 68.1359 86.3944 65.3864 88.9351C64.0629 90.1582 62.5429 90.9793 60.9045 90.8212C55.4913 90.3074 53.8114 86.9439 50.4609 86.6917C47.1103 86.4301 44.6557 87.3363 46.3357 88.2426C48.0156 89.1489 53.6901 88.5416 56.3966 90.8399C59.1032 93.1476 61.2964 94.5678 56.266 95.5955C51.2355 96.6326 42.2105 95.9786 40.3999 92.1106Z" fill="url(#paint6_linear_4201_7249)"/>
        <path d="M68.7744 69.6699C68.7744 69.6699 41.6901 78.4523 38.5915 88.2624C38.5915 88.2624 38.7222 92.6536 36.0156 97.6895V99.6235C36.0156 99.6235 38.8529 93.0367 40.4021 92.1304C40.4021 92.1304 34.3357 83.6096 68.7744 69.6699Z" fill="url(#paint7_linear_4201_7249)"/>
        <path d="M36.0176 97.6896C36.0176 97.6896 31.8365 104.043 34.2257 111.769L35.299 111.48C35.299 111.48 34.2537 102.968 36.4376 98.6799C38.6215 94.4008 36.0176 97.6896 36.0176 97.6896Z" fill="url(#paint8_linear_4201_7249)"/>
        <path d="M38.2624 128.529C47.2108 128.529 54.7118 122.316 56.6952 113.965C57.2619 111.578 55.2201 109.562 52.7675 109.562H23.7572C21.3046 109.562 19.2628 111.578 19.8295 113.965C21.8129 122.316 29.3139 128.529 38.2624 128.529Z" fill="white"/>
        <path d="M38.2624 128.529C47.2108 128.529 54.7118 122.316 56.6952 113.965C57.2619 111.578 55.2201 109.562 52.7675 109.562H23.7572C21.3046 109.562 19.2628 111.578 19.8295 113.965C21.8129 122.316 29.3139 128.529 38.2624 128.529Z" fill="url(#paint9_linear_4201_7249)"/>
        <path d="M42.9268 128.379C42.1521 128.473 41.3682 128.529 40.5749 128.529C30.1126 128.529 21.6289 120.036 21.6289 109.562H26.3327C26.3327 119.232 33.5751 127.221 42.9268 128.379Z" fill="#EFECEA"/>
        <path d="M55.136 127.156C57.1646 127.156 55.8341 129.492 53.8055 129.492H22.7216C20.6964 129.492 19.3628 127.156 21.3879 127.156H55.136Z" fill="white"/>
        <path d="M55.136 127.156C57.1646 127.156 55.8341 129.492 53.8055 129.492H22.7216C20.6964 129.492 19.3628 127.156 21.3879 127.156H55.136Z" fill="url(#paint10_linear_4201_7249)"/>
        <path d="M57.3537 109.555H18.9771C18.8172 109.555 18.6875 109.684 18.6875 109.844C18.6875 110.004 18.8172 110.134 18.9771 110.134H57.3537C57.5137 110.134 57.6434 110.004 57.6434 109.844C57.6434 109.684 57.5137 109.555 57.3537 109.555Z" fill="white"/>
        <path d="M57.3537 109.555H18.9771C18.8172 109.555 18.6875 109.684 18.6875 109.844C18.6875 110.004 18.8172 110.134 18.9771 110.134H57.3537C57.5137 110.134 57.6434 110.004 57.6434 109.844C57.6434 109.684 57.5137 109.555 57.3537 109.555Z" fill="url(#paint11_linear_4201_7249)"/>
        <path d="M127.119 38.2584C127.218 37.5403 127.085 36.8331 126.831 36.1541C126.142 34.3155 125.223 30.447 128.72 28.6069C128.851 28.5379 128.795 28.5466 128.936 28.5005C131.475 27.6698 132.576 30.2935 131.273 32.6262C130.896 33.3023 130.738 33.8504 131.013 34.0829C131.621 34.5915 133.312 32.2848 134.572 30.3492C135.517 28.8978 135.949 27.8726 137.658 28.1505C140.758 28.6546 141.743 31.6818 139.511 33.8921C139.203 34.1976 139.106 34.4349 139.347 34.55C140.174 34.9508 144.052 33.4642 146.363 32.5101C147.485 32.0468 148.758 32.0119 149.795 32.6429C151.557 33.7147 153.962 35.7053 153.151 38.2592C151.909 42.1739 149.38 42.8933 148.409 42.5663C147.448 42.2393 142.156 38.7263 141.848 39.5018C140.786 42.2088 143.031 47.086 140.128 46.9104C139.472 46.8707 138.863 46.6838 138.358 46.2848C135.623 44.1266 135.885 41.7441 134.177 40.4361C132.469 39.1374 130.835 38.773 131.423 39.8381C132.011 40.9032 135.269 42.5476 135.931 44.7245C136.585 46.9014 137.275 48.4243 134.214 47.2378C131.153 46.0512 126.524 42.5663 126.897 39.8568C126.994 39.1584 127.066 38.6413 127.119 38.2584Z" fill="white"/>
        <path d="M127.119 38.2584C127.218 37.5403 127.085 36.8331 126.831 36.1541C126.142 34.3155 125.223 30.447 128.72 28.6069C128.851 28.5379 128.795 28.5466 128.936 28.5005C131.475 27.6698 132.576 30.2935 131.273 32.6262C130.896 33.3023 130.738 33.8504 131.013 34.0829C131.621 34.5915 133.312 32.2848 134.572 30.3492C135.517 28.8978 135.949 27.8726 137.658 28.1505C140.758 28.6546 141.743 31.6818 139.511 33.8921C139.203 34.1976 139.106 34.4349 139.347 34.55C140.174 34.9508 144.052 33.4642 146.363 32.5101C147.485 32.0468 148.758 32.0119 149.795 32.6429C151.557 33.7147 153.962 35.7053 153.151 38.2592C151.909 42.1739 149.38 42.8933 148.409 42.5663C147.448 42.2393 142.156 38.7263 141.848 39.5018C140.786 42.2088 143.031 47.086 140.128 46.9104C139.472 46.8707 138.863 46.6838 138.358 46.2848C135.623 44.1266 135.885 41.7441 134.177 40.4361C132.469 39.1374 130.835 38.773 131.423 39.8381C132.011 40.9032 135.269 42.5476 135.931 44.7245C136.585 46.9014 137.275 48.4243 134.214 47.2378C131.153 46.0512 126.524 42.5663 126.897 39.8568C126.994 39.1584 127.066 38.6413 127.119 38.2584Z" fill="url(#paint12_linear_4201_7249)"/>
        <path d="M149.928 37.6521C149.928 37.6521 132.335 32.9712 127.277 37.1662C127.277 37.1662 125.83 39.5674 122.629 41.3332L121.957 42.3703C121.957 42.3703 125.765 39.8196 126.904 39.8664C126.904 39.8757 126.596 33.1955 149.928 37.6521Z" fill="url(#paint13_linear_4201_7249)"/>
        <path d="M122.62 41.3422C122.62 41.3422 118.177 43.3042 116.777 48.284L117.459 48.4989C117.459 48.4989 119.848 43.5658 122.498 42.0243C125.158 40.4733 122.62 41.3422 122.62 41.3422Z" fill="#DFDCF7"/>
        <path d="M107.347 29.6623C106.474 27.9309 103.405 24.6836 101.997 23.3495C99.704 21.1752 97.4858 17.7166 99.7541 13.4829C99.8405 13.3215 99.9441 13.1652 100.058 13.0219C100.283 12.739 100.725 12.2022 101.326 11.5612C103.603 9.13183 106.564 11.2715 106.519 14.6006C106.491 16.7142 106.715 18.4853 107.534 18.5629C108.955 18.6975 108.918 12.7946 108.755 9.07483C108.677 7.2874 109.609 5.59154 111.23 4.83476C112.538 4.22447 114.194 3.48876 115.884 2.83756C118.918 1.66824 120.819 4.45688 119.503 7.43019C118.454 9.80096 117.758 11.9077 118.677 11.7612C120.239 11.5196 124.525 5.07076 126.49 1.99449C127.142 0.972502 128.164 0.237397 129.37 0.110741C132.451 -0.212814 138.382 -0.2137 139.742 4.28682C141.599 10.4345 138.986 13.6111 137.455 14.0409C135.915 14.4707 125.985 14.6388 126.284 15.9282C126.368 16.2896 126.968 16.698 127.87 17.0694C131.333 18.4966 134.887 23.1349 132.21 25.7555C130.927 27.0114 129.439 27.8726 127.805 27.7657C122.373 27.4107 120.6 24.1033 117.24 23.9444C113.88 23.7856 111.454 24.7666 113.162 25.6168C114.86 26.467 120.516 25.6916 123.297 27.9152C126.069 30.1388 128.309 31.4935 123.307 32.6708C118.313 33.8573 109.27 33.4742 107.347 29.6623Z" fill="white"/>
        <path d="M107.347 29.6623C106.474 27.9309 103.405 24.6836 101.997 23.3495C99.704 21.1752 97.4858 17.7166 99.7541 13.4829C99.8405 13.3215 99.9441 13.1652 100.058 13.0219C100.283 12.739 100.725 12.2022 101.326 11.5612C103.603 9.13183 106.564 11.2715 106.519 14.6006C106.491 16.7142 106.715 18.4853 107.534 18.5629C108.955 18.6975 108.918 12.7946 108.755 9.07483C108.677 7.2874 109.609 5.59154 111.23 4.83476C112.538 4.22447 114.194 3.48876 115.884 2.83756C118.918 1.66824 120.819 4.45688 119.503 7.43019C118.454 9.80096 117.758 11.9077 118.677 11.7612C120.239 11.5196 124.525 5.07076 126.49 1.99449C127.142 0.972502 128.164 0.237397 129.37 0.110741C132.451 -0.212814 138.382 -0.2137 139.742 4.28682C141.599 10.4345 138.986 13.6111 137.455 14.0409C135.915 14.4707 125.985 14.6388 126.284 15.9282C126.368 16.2896 126.968 16.698 127.87 17.0694C131.333 18.4966 134.887 23.1349 132.21 25.7555C130.927 27.0114 129.439 27.8726 127.805 27.7657C122.373 27.4107 120.6 24.1033 117.24 23.9444C113.88 23.7856 111.454 24.7666 113.162 25.6168C114.86 26.467 120.516 25.6916 123.297 27.9152C126.069 30.1388 128.309 31.4935 123.307 32.6708C118.313 33.8573 109.27 33.4742 107.347 29.6623Z" fill="url(#paint14_linear_4201_7249)"/>
        <path d="M135.038 6.37891C135.038 6.37891 108.225 15.9648 105.425 25.859C105.425 25.859 105.686 30.2408 103.129 35.3608L103.185 37.2948C103.185 37.2948 105.826 30.6239 107.347 29.6803C107.338 29.6803 101.029 21.337 135.038 6.37891Z" fill="url(#paint15_linear_4201_7249)"/>
        <path d="M103.12 35.3608C103.12 35.3608 99.1343 41.8355 101.748 49.4874L102.812 49.1697C102.812 49.1697 101.514 40.6863 103.577 36.3418C105.63 31.9974 103.12 35.3608 103.12 35.3608Z" fill="#ECEBFC"/>
        <path d="M129.833 39.4453H60.8906V129.455H129.833V39.4453Z" fill="#DFDCF7"/>
        <path d="M130.926 39.4453H63.1406V129.455H130.926V39.4453Z" fill="#363845"/>
        <path d="M161.813 128.577C163.233 128.544 163.024 129.586 161.604 129.586H153.73C152.67 129.586 151.617 128.899 152.379 128.163C152.763 127.792 153.32 127.497 153.889 127.456C155 127.364 156.043 126.716 156.171 125.61C156.643 121.523 157.963 114.046 161.281 114.413C165.826 114.918 161.281 119.365 159.993 121.991C159.17 123.671 158.304 125.988 157.79 127.442C157.674 127.769 157.869 128.12 158.208 128.188C158.496 128.246 158.782 128.081 158.877 127.804C159.659 125.542 161.774 120.224 164.417 120.561C167.767 120.991 166.423 123.485 164.044 124.971C163.171 125.518 162.2 126.179 161.321 126.796C160.504 127.37 160.815 128.598 161.813 128.577Z" fill="white"/>
        <path d="M161.813 128.577C163.233 128.544 163.024 129.586 161.604 129.586H153.73C152.67 129.586 151.617 128.899 152.379 128.163C152.763 127.792 153.32 127.497 153.889 127.456C155 127.364 156.043 126.716 156.171 125.61C156.643 121.523 157.963 114.046 161.281 114.413C165.826 114.918 161.281 119.365 159.993 121.991C159.17 123.671 158.304 125.988 157.79 127.442C157.674 127.769 157.869 128.12 158.208 128.188C158.496 128.246 158.782 128.081 158.877 127.804C159.659 125.542 161.774 120.224 164.417 120.561C167.767 120.991 166.423 123.485 164.044 124.971C163.171 125.518 162.2 126.179 161.321 126.796C160.504 127.37 160.815 128.598 161.813 128.577Z" fill="url(#paint16_linear_4201_7249)"/>
        <path d="M130.93 39.4461H63.1441C63.5174 34.3169 62.9574 30.589 62.0521 27.9076C60.3162 22.7596 57.3203 21.4609 57.3203 21.4609H121.242C126.702 21.4609 130.93 24.7497 132.077 29.1222C132.124 29.2903 132.161 29.4492 132.199 29.6173C133.291 34.6065 130.976 39.3527 130.93 39.4461Z" fill="#ECEBFC"/>
        <path d="M130.928 39.4448H63.1427C63.5161 34.3155 62.9561 30.5877 62.0508 27.9062C68.9759 29.1769 86.1299 31.8864 104.497 31.4285C116.378 31.1296 125.767 30.3354 132.197 29.616C133.289 34.6052 130.975 39.3514 130.928 39.4448Z" fill="#DFDCF7"/>
        <path d="M112.982 60.1965H77.1249C76.7329 60.1965 76.4062 59.8789 76.4062 59.4771V59.2155C76.4062 58.8231 76.7236 58.4961 77.1249 58.4961H112.982C113.374 58.4961 113.701 58.8138 113.701 59.2155V59.4771C113.692 59.8789 113.374 60.1965 112.982 60.1965Z" fill="white"/>
        <path d="M112.982 60.1965H77.1249C76.7329 60.1965 76.4062 59.8789 76.4062 59.4771V59.2155C76.4062 58.8231 76.7236 58.4961 77.1249 58.4961H112.982C113.374 58.4961 113.701 58.8138 113.701 59.2155V59.4771C113.692 59.8789 113.374 60.1965 112.982 60.1965Z" fill="url(#paint17_linear_4201_7249)"/>
        <path d="M99.0761 63.0372H76.9662C76.6582 63.0372 76.4062 62.7849 76.4062 62.4766V61.916C76.4062 61.6077 76.6582 61.3555 76.9662 61.3555H99.0761C99.384 61.3555 99.636 61.6077 99.636 61.916V62.4766C99.636 62.7849 99.384 63.0372 99.0761 63.0372Z" fill="white"/>
        <path d="M99.0761 63.0372H76.9662C76.6582 63.0372 76.4062 62.7849 76.4062 62.4766V61.916C76.4062 61.6077 76.6582 61.3555 76.9662 61.3555H99.0761C99.384 61.3555 99.636 61.6077 99.636 61.916V62.4766C99.636 62.7849 99.384 63.0372 99.0761 63.0372Z" fill="url(#paint18_linear_4201_7249)"/>
        <path d="M72.94 62.7643V59.3167H72.4827C72.2027 59.3167 72.0721 59.2046 72.0721 58.9711C72.0721 58.8029 72.1841 58.6908 72.3987 58.616C72.5107 58.5787 72.688 58.5506 72.9214 58.5319C73.164 58.5132 73.36 58.5039 73.5 58.5039C73.64 58.5039 73.7333 58.5319 73.7707 58.588C73.808 58.644 73.8267 58.7935 73.8267 59.0271V62.755H74.2933C74.592 62.755 74.7506 62.8858 74.7506 63.1474C74.7506 63.4277 74.6013 63.5584 74.2933 63.5584H72.4081C72.2774 63.5584 72.1654 63.5211 72.0721 63.4557C71.9787 63.3809 71.9414 63.2875 71.9414 63.1567C71.9414 62.8858 72.0907 62.755 72.3987 62.755H72.94V62.7643Z" fill="white"/>
        <path d="M112.982 77.9758H77.1249C76.7329 77.9758 76.4062 77.6581 76.4062 77.2564V76.9948C76.4062 76.6024 76.7236 76.2754 77.1249 76.2754H112.982C113.374 76.2754 113.701 76.593 113.701 76.9948V77.2564C113.692 77.6581 113.374 77.9758 112.982 77.9758Z" fill="white"/>
        <path d="M112.982 77.9758H77.1249C76.7329 77.9758 76.4062 77.6581 76.4062 77.2564V76.9948C76.4062 76.6024 76.7236 76.2754 77.1249 76.2754H112.982C113.374 76.2754 113.701 76.593 113.701 76.9948V77.2564C113.692 77.6581 113.374 77.9758 112.982 77.9758Z" fill="url(#paint19_linear_4201_7249)"/>
        <path d="M99.0761 80.8165H76.9662C76.6582 80.8165 76.4062 80.5642 76.4062 80.2559V79.6953C76.4062 79.387 76.6582 79.1348 76.9662 79.1348H99.0761C99.384 79.1348 99.636 79.387 99.636 79.6953V80.2559C99.636 80.5642 99.384 80.8165 99.0761 80.8165Z" fill="white"/>
        <path d="M99.0761 80.8165H76.9662C76.6582 80.8165 76.4062 80.5642 76.4062 80.2559V79.6953C76.4062 79.387 76.6582 79.1348 76.9662 79.1348H99.0761C99.384 79.1348 99.636 79.387 99.636 79.6953V80.2559C99.636 80.5642 99.384 80.8165 99.0761 80.8165Z" fill="url(#paint20_linear_4201_7249)"/>
        <path d="M74.8299 80.4712C74.8299 80.7048 74.6712 80.8169 74.3445 80.8169H72.3473C72.058 80.8169 71.918 80.7048 71.918 80.4712C71.918 80.3965 71.9553 80.3124 72.03 80.219C72.142 80.0882 72.31 79.892 72.5246 79.6304C72.8606 79.2099 73.1313 78.8549 73.3553 78.5466C73.4299 78.4438 73.5419 78.2943 73.6819 78.0794C73.8032 77.8739 73.8592 77.6964 73.8592 77.5562C73.8592 77.3974 73.8126 77.2666 73.7099 77.1638C73.6072 77.061 73.4766 77.005 73.3179 77.005C73.1593 77.005 73.0286 77.0517 72.9166 77.1545C72.8419 77.2199 72.7766 77.3413 72.7299 77.5189C72.6739 77.7524 72.6366 77.8832 72.6179 77.9206C72.5526 78.0514 72.4593 78.1168 72.3193 78.1168C72.198 78.1168 72.1046 78.0701 72.03 77.986C71.9646 77.9113 71.9366 77.8085 71.9366 77.6777C71.9366 77.5375 71.9553 77.3881 72.002 77.2479C72.0953 76.9396 72.2726 76.6967 72.5153 76.5285C72.7486 76.3697 73.0379 76.2949 73.3739 76.2949C73.7472 76.2949 74.0552 76.407 74.2979 76.6313C74.5499 76.8648 74.6805 77.1638 74.6805 77.5375C74.6805 77.8085 74.5872 78.0888 74.4099 78.3784C74.3072 78.5372 74.1019 78.8175 73.7846 79.2193C73.6259 79.4248 73.3646 79.7238 73.0193 80.1255H74.3352C74.6712 80.1162 74.8299 80.2377 74.8299 80.4712Z" fill="white"/>
        <path d="M112.982 92.8039H77.1249C76.7329 92.8039 76.4062 92.4863 76.4062 92.0845V91.8229C76.4062 91.4305 76.7236 91.1035 77.1249 91.1035H112.982C113.374 91.1035 113.701 91.4212 113.701 91.8229V92.0845C113.692 92.4863 113.374 92.8039 112.982 92.8039Z" fill="white"/>
        <path d="M112.982 92.8039H77.1249C76.7329 92.8039 76.4062 92.4863 76.4062 92.0845V91.8229C76.4062 91.4305 76.7236 91.1035 77.1249 91.1035H112.982C113.374 91.1035 113.701 91.4212 113.701 91.8229V92.0845C113.692 92.4863 113.374 92.8039 112.982 92.8039Z" fill="url(#paint21_linear_4201_7249)"/>
        <path d="M99.0761 95.6446H76.9662C76.6582 95.6446 76.4062 95.3924 76.4062 95.084V94.5235C76.4062 94.2152 76.6582 93.9629 76.9662 93.9629H99.0761C99.384 93.9629 99.636 94.2152 99.636 94.5235V95.084C99.636 95.3924 99.384 95.6446 99.0761 95.6446Z" fill="white"/>
        <path d="M99.0761 95.6446H76.9662C76.6582 95.6446 76.4062 95.3924 76.4062 95.084V94.5235C76.4062 94.2152 76.6582 93.9629 76.9662 93.9629H99.0761C99.384 93.9629 99.636 94.2152 99.636 94.5235V95.084C99.636 95.3924 99.384 95.6446 99.0761 95.6446Z" fill="url(#paint22_linear_4201_7249)"/>
        <path d="M74.8264 94.2347C74.8264 94.6645 74.6771 95.0102 74.3691 95.2718C74.0798 95.5241 73.7158 95.6455 73.2771 95.6455C72.9411 95.6455 72.6425 95.5614 72.4092 95.4026C72.0265 95.141 71.8398 94.8327 71.8398 94.4776C71.8398 94.3749 71.8772 94.2814 71.9425 94.2067C72.0078 94.132 72.0918 94.0946 72.1945 94.0946C72.3065 94.0946 72.3998 94.1693 72.5025 94.3095C72.6518 94.5524 72.7451 94.6832 72.7731 94.7112C72.9131 94.8607 73.0905 94.9261 73.3051 94.9261C73.5944 94.9261 73.7998 94.814 73.9304 94.5991C73.9864 94.487 74.0144 94.3562 74.0144 94.188C74.0144 93.7769 73.7718 93.5527 73.2958 93.506C73.0251 93.4779 72.8945 93.3658 72.8945 93.1603C72.8945 93.0108 72.9691 92.908 73.1278 92.8426C73.4171 92.7305 73.5664 92.6745 73.5758 92.6745C73.7344 92.5717 73.8091 92.3942 73.8091 92.1326C73.8091 91.9831 73.7624 91.8616 73.6691 91.7682C73.5758 91.6748 73.4545 91.6374 73.3051 91.6374C73.1185 91.6374 72.9691 91.6841 72.8571 91.7775C72.7638 91.8523 72.6891 91.9924 72.6238 92.1793C72.5772 92.3288 72.4745 92.3942 72.3345 92.3942C72.2318 92.3942 72.1572 92.3474 72.0918 92.2634C72.0265 92.1793 71.9985 92.0765 71.9985 91.9737C71.9985 91.8429 72.0358 91.7121 72.1012 91.5907C72.2132 91.3758 72.3998 91.2076 72.6331 91.0861C72.8571 90.974 73.0905 90.918 73.3518 90.918C73.7064 90.918 73.9958 91.0207 74.2291 91.2356C74.4624 91.4505 74.5837 91.7308 74.5837 92.0765C74.5837 92.4969 74.4064 92.8239 74.0611 93.0762C74.5744 93.3004 74.8264 93.6741 74.8264 94.2347Z" fill="white"/>
        <path d="M108.791 45.4245H86.4849C86.0743 45.4245 85.7383 45.0881 85.7383 44.6771V44.2006C85.7383 43.7895 86.0743 43.4531 86.4849 43.4531H108.791C109.201 43.4531 109.537 43.7895 109.537 44.2006V44.6771C109.528 45.0881 109.201 45.4245 108.791 45.4245Z" fill="white"/>
        <path d="M108.791 45.4245H86.4849C86.0743 45.4245 85.7383 45.0881 85.7383 44.6771V44.2006C85.7383 43.7895 86.0743 43.4531 86.4849 43.4531H108.791C109.201 43.4531 109.537 43.7895 109.537 44.2006V44.6771C109.528 45.0881 109.201 45.4245 108.791 45.4245Z" fill="url(#paint23_linear_4201_7249)"/>
        <path d="M114.614 48.4421H80.6607C80.1567 48.4421 79.7461 48.031 79.7461 47.5265V47.3863C79.7461 46.8818 80.1567 46.4707 80.6607 46.4707H114.623C115.127 46.4707 115.538 46.8818 115.538 47.3863V47.5265C115.529 48.0403 115.118 48.4421 114.614 48.4421Z" fill="white"/>
        <path d="M114.614 48.4421H80.6607C80.1567 48.4421 79.7461 48.031 79.7461 47.5265V47.3863C79.7461 46.8818 80.1567 46.4707 80.6607 46.4707H114.623C115.127 46.4707 115.538 46.8818 115.538 47.3863V47.5265C115.529 48.0403 115.118 48.4421 114.614 48.4421Z" fill="url(#paint24_linear_4201_7249)"/>
        <path d="M95.015 69.304C87.6326 69.304 80.6235 68.379 75.397 67.0523C70.1239 65.7163 67.2773 63.5207 67.2773 61.5773C67.2773 59.8208 69.5919 58.1952 73.9784 56.8965C69.7786 58.1485 67.5293 59.9797 67.5293 61.5773C67.5293 63.3525 70.4412 65.109 75.5184 66.3983C80.7262 67.7157 87.6512 68.4444 95.015 68.4444C102.379 68.4444 109.304 67.7157 114.512 66.3983C119.589 65.109 122.501 63.3525 122.501 61.5773C122.501 59.6994 119.43 57.3636 114.502 55.4764C108.893 53.3368 101.968 52.5427 95.0243 52.5427C81.9768 52.5427 76.601 54.0656 71.9438 55.9809C76.6197 54.0656 81.9301 51.8887 95.0243 51.8887C102.005 51.8887 108.949 53.0752 114.586 55.2241C119.626 57.1488 122.753 59.5779 122.753 61.5773C122.753 63.5207 119.85 65.3239 114.568 66.6692C109.341 67.9866 102.397 69.304 95.015 69.304Z" fill="white"/>
        <path d="M95.015 69.304C87.6326 69.304 80.6235 68.379 75.397 67.0523C70.1239 65.7163 67.2773 63.5207 67.2773 61.5773C67.2773 59.8208 69.5919 58.1952 73.9784 56.8965C69.7786 58.1485 67.5293 59.9797 67.5293 61.5773C67.5293 63.3525 70.4412 65.109 75.5184 66.3983C80.7262 67.7157 87.6512 68.4444 95.015 68.4444C102.379 68.4444 109.304 67.7157 114.512 66.3983C119.589 65.109 122.501 63.3525 122.501 61.5773C122.501 59.6994 119.43 57.3636 114.502 55.4764C108.893 53.3368 101.968 52.5427 95.0243 52.5427C81.9768 52.5427 76.601 54.0656 71.9438 55.9809C76.6197 54.0656 81.9301 51.8887 95.0243 51.8887C102.005 51.8887 108.949 53.0752 114.586 55.2241C119.626 57.1488 122.753 59.5779 122.753 61.5773C122.753 63.5207 119.85 65.3239 114.568 66.6692C109.341 67.9866 102.397 69.304 95.015 69.304Z" fill="url(#paint25_linear_4201_7249)"/>
        <path d="M139.85 86.9833C139.85 86.9833 139.607 89.347 139.337 89.7955C139.066 90.244 137.937 91.6734 137.451 91.9537C136.966 92.234 137.75 90.0664 137.647 89.646C137.545 89.2256 137.246 90.4121 137.031 90.4402C136.817 90.4682 136.873 89.3938 136.863 89.0107C136.854 88.6183 137.899 87.656 138.273 86.8244C138.646 86.0023 139.85 86.9833 139.85 86.9833Z" fill="#FF9792"/>
        <path d="M110.808 65.159L110.266 64.1313C110.266 64.1313 110.537 62.3001 108.251 61.1415C108.251 61.1415 107.411 60.8052 106.944 61.4872C106.505 62.1132 107.775 62.0011 107.709 63.0755C107.644 64.15 108.148 64.7853 108.867 65.131L109.455 65.813L110.808 65.159Z" fill="#FF9792"/>
        <path d="M132.446 62.6996C132.446 62.6996 130.477 72.3602 119.66 75.5088C116.281 76.4898 108.609 65.3623 108.609 65.3623C108.609 65.3623 108.88 64.3346 110.569 64.5682C110.569 64.5682 118.036 69.5199 118.978 70.0525C119.809 70.529 125.297 63.9235 127.798 62.8491C130.309 61.8026 132.446 62.6996 132.446 62.6996Z" fill="white"/>
        <path d="M132.446 62.6996C132.446 62.6996 130.477 72.3602 119.66 75.5088C116.281 76.4898 108.609 65.3623 108.609 65.3623C108.609 65.3623 108.88 64.3346 110.569 64.5682C110.569 64.5682 118.036 69.5199 118.978 70.0525C119.809 70.529 125.297 63.9235 127.798 62.8491C130.309 61.8026 132.446 62.6996 132.446 62.6996Z" fill="url(#paint26_linear_4201_7249)"/>
        <path d="M103.658 60.8061L103.352 62.8008L113.397 64.3453L113.703 62.3506L103.658 60.8061Z" fill="#EFECEA"/>
        <path d="M101.168 61.4494L103.352 62.8041L103.66 60.8047L101.168 61.4494Z" fill="white"/>
        <path d="M101.168 61.4494L103.352 62.8041L103.66 60.8047L101.168 61.4494Z" fill="url(#paint27_linear_4201_7249)"/>
        <path d="M114.774 63.1866L114.681 63.8219C114.625 64.2143 114.261 64.4759 113.869 64.4198L113.402 64.3451L113.71 62.3457L114.214 62.4204C114.578 62.4858 114.83 62.8222 114.774 63.1866Z" fill="white"/>
        <path d="M114.774 63.1866L114.681 63.8219C114.625 64.2143 114.261 64.4759 113.869 64.4198L113.402 64.3451L113.71 62.3457L114.214 62.4204C114.578 62.4858 114.83 62.8222 114.774 63.1866Z" fill="url(#paint28_linear_4201_7249)"/>
        <path d="M145.356 123.411C145.356 123.411 146.7 124.635 146.439 125.504C146.178 126.373 144.964 126.952 144.806 128.017C144.638 129.082 143.985 129.662 143.397 129.662C142.809 129.662 140.587 129.662 140.587 129.662C140.587 129.662 140.158 128.914 141.203 128.69C142.249 128.466 142.65 127.214 142.585 126.055C142.519 124.897 142.687 123.346 142.687 123.346L144.908 122.832L145.356 123.411Z" fill="#242429"/>
        <path d="M128.894 126.579C128.894 126.579 129.137 129.372 128.549 129.662L121.008 129.643C121.008 129.643 121.008 128.774 122.221 128.578C123.434 128.382 125.562 127.672 125.917 126.093C126.272 124.514 128.894 126.579 128.894 126.579Z" fill="#242429"/>
        <path d="M122.527 87.1707C122.527 87.1707 122.929 92.0571 123.395 97.9432C124.03 105.931 124.795 115.732 124.87 117.591C125.001 120.815 125.523 125.981 125.523 125.981C125.523 125.981 126.765 127.205 129.256 126.691C129.256 126.691 131.478 119.32 132.103 111.528C132.112 111.397 132.122 111.276 132.131 111.145C132.719 103.213 133.634 86.498 133.634 86.498L122.527 87.1707Z" fill="white"/>
        <path d="M122.527 87.1707C122.527 87.1707 122.929 92.0571 123.395 97.9432C124.03 105.931 124.795 115.732 124.87 117.591C125.001 120.815 125.523 125.981 125.523 125.981C125.523 125.981 126.765 127.205 129.256 126.691C129.256 126.691 131.478 119.32 132.103 111.528C132.112 111.397 132.122 111.276 132.131 111.145C132.719 103.213 133.634 86.498 133.634 86.498L122.527 87.1707Z" fill="url(#paint29_linear_4201_7249)"/>
        <path d="M122.527 87.1707C122.527 87.1707 122.929 92.0571 123.395 97.9432L132.103 111.528C132.112 111.397 132.122 111.276 132.131 111.145C132.719 103.213 133.634 86.498 133.634 86.498L122.527 87.1707Z" fill="url(#paint30_linear_4201_7249)"/>
        <path d="M124.34 87.7593C124.34 87.7593 131.508 105.474 136.221 113.789C140.934 122.113 142.408 124.43 142.408 124.43C142.408 124.43 145.106 123.365 145.358 122.637C145.358 122.637 143.556 106.567 140.402 102.652C138.619 100.438 136.519 93.7949 136.426 91.4778C136.323 89.1514 135.791 84.5547 135.791 84.5547L124.34 87.7593Z" fill="white"/>
        <path d="M124.34 87.7593C124.34 87.7593 131.508 105.474 136.221 113.789C140.934 122.113 142.408 124.43 142.408 124.43C142.408 124.43 145.106 123.365 145.358 122.637C145.358 122.637 143.556 106.567 140.402 102.652C138.619 100.438 136.519 93.7949 136.426 91.4778C136.323 89.1514 135.791 84.5547 135.791 84.5547L124.34 87.7593Z" fill="url(#paint31_linear_4201_7249)"/>
        <path d="M133.777 60.4583C133.777 60.4583 128.923 62.8034 126.133 61.9345C126.133 61.9345 126.823 61.0656 128.027 60.421C127.934 59.8604 127.859 59.3746 127.813 58.9541C127.691 58.0011 127.691 57.4592 127.691 57.4592L129.558 55.9831L131.331 54.5723C131.191 58.543 133.777 60.4583 133.777 60.4583Z" fill="#FF9792"/>
        <path d="M136.338 85.4693C136.347 85.7682 135.712 86.1046 135.432 86.2354C133.361 87.151 131.419 87.7863 129.226 87.9919C126.631 88.2535 123.57 87.6742 122.516 87.6929C122.404 87.6929 122.31 87.6462 122.226 87.5808C122.152 87.5247 122.096 84.4042 122.152 80.4708C122.152 80.3119 122.152 80.1531 122.161 79.9943V79.9382C122.18 78.3966 122.236 76.7896 122.31 75.1827C122.46 71.6417 122.74 68.2315 123.216 66.3442C123.785 64.1206 125.073 62.6444 126.249 61.5793L127.219 60.7291C128.19 60.9159 129.207 60.8692 130.234 60.3647C131.354 59.8228 132.558 59.2436 132.754 59.393C134.219 60.4675 135.208 62.8686 135.731 65.9425C136.03 67.7083 136.179 69.6983 136.17 71.7725C136.17 72.5386 136.151 73.3234 136.104 74.0895C135.843 78.2845 136.104 81.9283 136.254 84.0398C136.291 84.6564 136.319 85.1329 136.338 85.4693Z" fill="url(#paint32_linear_4201_7249)"/>
        <path d="M136.239 85.2735C119.253 85.2362 133.103 66.8305 133.103 66.8305L135.856 65.9336C136.071 67.8209 136.183 69.9417 136.174 72.1654C136.174 72.9782 136.155 73.8191 136.127 74.6412C135.95 79.1259 136.136 83.0219 136.239 85.2735Z" fill="white"/>
        <path d="M136.239 85.2735C119.253 85.2362 133.103 66.8305 133.103 66.8305L135.856 65.9336C136.071 67.8209 136.183 69.9417 136.174 72.1654C136.174 72.9782 136.155 73.8191 136.127 74.6412C135.95 79.1259 136.136 83.0219 136.239 85.2735Z" fill="url(#paint33_linear_4201_7249)"/>
        <path d="M131.369 56.0945C131.369 56.0945 130.146 58.3275 127.813 58.9535C127.691 58.0005 127.691 57.4586 127.691 57.4586L129.558 55.9824L131.369 56.0945Z" fill="#FF7D78"/>
        <path d="M126.832 57.3956C126.832 57.3956 131.461 58.1524 131.891 55.3028C132.329 52.4532 133.216 50.6313 130.276 50.0333C127.336 49.426 126.599 50.4257 126.216 51.3414C125.852 52.2663 125.638 57.1246 126.832 57.3956Z" fill="#FF9792"/>
        <path d="M133.579 49.6955C133.626 49.6488 133.719 49.6114 133.934 49.5927C133.934 49.5927 133.766 49.4806 133.533 49.4806C133.486 49.1816 133.327 48.6491 132.814 48.5183C132.814 48.5183 133.094 48.6677 133.131 48.9854C132.534 48.3688 131.256 47.9203 127.709 48.2006C123.033 48.5743 124.573 51.5641 125.18 51.9191C125.786 52.2741 127.308 51.2931 128.437 51.3865C129.566 51.48 129.781 53.1057 130.164 53.3299C130.546 53.5541 130.397 53.1617 130.91 52.9281C131.424 52.6946 131.48 53.5541 131.33 54.1147C131.181 54.6753 131.89 55.404 131.89 55.404C131.89 55.404 131.89 55.404 132.609 54.6286C133.327 53.8531 133.999 50.5737 133.682 49.873C133.635 49.8263 133.607 49.7609 133.579 49.6955Z" fill="#242429"/>
        <path d="M132.742 59.3555C132.742 59.3555 135.672 60.7476 137.072 62.8778C139.247 66.1852 141.776 78.247 141.823 79.3588C141.869 80.4799 139.984 88.356 139.984 88.356C139.984 88.356 138.071 88.2252 137.576 87.2629C137.576 87.2629 137.959 79.1626 137.716 78.6394C137.473 78.1161 129.727 67.7735 130.604 65.5685C131.463 63.3729 132.742 59.3555 132.742 59.3555Z" fill="white"/>
        <path d="M132.742 59.3555C132.742 59.3555 135.672 60.7476 137.072 62.8778C139.247 66.1852 141.776 78.247 141.823 79.3588C141.869 80.4799 139.984 88.356 139.984 88.356C139.984 88.356 138.071 88.2252 137.576 87.2629C137.576 87.2629 137.959 79.1626 137.716 78.6394C137.473 78.1161 129.727 67.7735 130.604 65.5685C131.463 63.3729 132.742 59.3555 132.742 59.3555Z" fill="url(#paint34_linear_4201_7249)"/>
        <path d="M110.256 64.0831C110.256 64.0831 110.415 63.4572 109.976 63.1675C109.538 62.8872 109.136 62.1118 108.959 62.2239C108.576 62.4388 109.164 63.1115 109.062 63.9523C109.024 64.242 109.706 65.0081 110.256 64.0831Z" fill="#FF9792"/>
        <path d="M115.556 109.882H73.8751C73.5951 109.882 73.3711 109.658 73.3711 109.378C73.3711 109.097 73.5951 108.873 73.8751 108.873H115.556C115.836 108.873 116.06 109.097 116.06 109.378C116.069 109.649 115.836 109.882 115.556 109.882Z" fill="white"/>
        <path d="M115.556 109.882H73.8751C73.5951 109.882 73.3711 109.658 73.3711 109.378C73.3711 109.097 73.5951 108.873 73.8751 108.873H115.556C115.836 108.873 116.06 109.097 116.06 109.378C116.069 109.649 115.836 109.882 115.556 109.882Z" fill="url(#paint35_linear_4201_7249)"/>
        <path d="M115.556 111.909H73.8751C73.5951 111.909 73.3711 111.685 73.3711 111.405C73.3711 111.125 73.5951 110.9 73.8751 110.9H115.556C115.836 110.9 116.06 111.125 116.06 111.405C116.069 111.685 115.836 111.909 115.556 111.909Z" fill="white"/>
        <path d="M115.556 111.909H73.8751C73.5951 111.909 73.3711 111.685 73.3711 111.405C73.3711 111.125 73.5951 110.9 73.8751 110.9H115.556C115.836 110.9 116.06 111.125 116.06 111.405C116.069 111.685 115.836 111.909 115.556 111.909Z" fill="url(#paint36_linear_4201_7249)"/>
        <path d="M115.556 114.159H73.8751C73.5951 114.159 73.3711 113.935 73.3711 113.655C73.3711 113.375 73.5951 113.15 73.8751 113.15H115.556C115.836 113.15 116.06 113.375 116.06 113.655C116.069 113.935 115.836 114.159 115.556 114.159Z" fill="white"/>
        <path d="M115.556 114.159H73.8751C73.5951 114.159 73.3711 113.935 73.3711 113.655C73.3711 113.375 73.5951 113.15 73.8751 113.15H115.556C115.836 113.15 116.06 113.375 116.06 113.655C116.069 113.935 115.836 114.159 115.556 114.159Z" fill="url(#paint37_linear_4201_7249)"/>
        <path d="M110.05 116.411H73.8751C73.5951 116.411 73.3711 116.187 73.3711 115.907C73.3711 115.627 73.5951 115.402 73.8751 115.402H110.05C110.33 115.402 110.554 115.627 110.554 115.907C110.563 116.187 110.33 116.411 110.05 116.411Z" fill="white"/>
        <path d="M110.05 116.411H73.8751C73.5951 116.411 73.3711 116.187 73.3711 115.907C73.3711 115.627 73.5951 115.402 73.8751 115.402H110.05C110.33 115.402 110.554 115.627 110.554 115.907C110.563 116.187 110.33 116.411 110.05 116.411Z" fill="url(#paint38_linear_4201_7249)"/>
    </g>
    <defs>
        <linearGradient id="paint0_linear_4201_7249" x1="55.9352" y1="109.377" x2="55.9352" y2="89.5391" gradientUnits="userSpaceOnUse">
            <stop stop-color="#0073FF"/>
            <stop offset="1" stop-color="#00C2FF"/>
        </linearGradient>
        <linearGradient id="paint1_linear_4201_7249" x1="60.5179" y1="104.341" x2="59.5997" y2="95.7455" gradientUnits="userSpaceOnUse">
            <stop stop-color="#8341EF"/>
            <stop offset="1" stop-color="#3F68F9"/>
        </linearGradient>
        <linearGradient id="paint2_linear_4201_7249" x1="39.5012" y1="111.838" x2="36.9956" y2="105.998" gradientUnits="userSpaceOnUse">
            <stop stop-color="#8341EF"/>
            <stop offset="1" stop-color="#3F68F9"/>
        </linearGradient>
        <linearGradient id="paint3_linear_4201_7249" x1="17.2556" y1="100.155" x2="17.2556" y2="74.9082" gradientUnits="userSpaceOnUse">
            <stop stop-color="#0073FF"/>
            <stop offset="1" stop-color="#00C2FF"/>
        </linearGradient>
        <linearGradient id="paint4_linear_4201_7249" x1="24.3975" y1="97.0308" x2="20.276" y2="79.6951" gradientUnits="userSpaceOnUse">
            <stop stop-color="#8341EF"/>
            <stop offset="1" stop-color="#3F68F9"/>
        </linearGradient>
        <linearGradient id="paint5_linear_4201_7249" x1="30.2703" y1="108.946" x2="25.6027" y2="104.451" gradientUnits="userSpaceOnUse">
            <stop stop-color="#8341EF"/>
            <stop offset="1" stop-color="#3F68F9"/>
        </linearGradient>
        <linearGradient id="paint6_linear_4201_7249" x1="54.9814" y1="96.4466" x2="54.9813" y2="63.1699" gradientUnits="userSpaceOnUse">
            <stop stop-color="#0073FF"/>
            <stop offset="1" stop-color="#00C2FF"/>
        </linearGradient>
        <linearGradient id="paint7_linear_4201_7249" x1="62.875" y1="92.3526" x2="57.4411" y2="69.5" gradientUnits="userSpaceOnUse">
            <stop stop-color="#8341EF"/>
            <stop offset="1" stop-color="#3F68F9"/>
        </linearGradient>
        <linearGradient id="paint8_linear_4201_7249" x1="36.6219" y1="108.059" x2="30.4655" y2="102.14" gradientUnits="userSpaceOnUse">
            <stop stop-color="#8341EF"/>
            <stop offset="1" stop-color="#3F68F9"/>
        </linearGradient>
        <linearGradient id="paint9_linear_4201_7249" x1="39.9201" y1="128.766" x2="39.9201" y2="109.562" gradientUnits="userSpaceOnUse">
            <stop stop-color="#0073FF"/>
            <stop offset="1" stop-color="#00C2FF"/>
        </linearGradient>
        <linearGradient id="paint10_linear_4201_7249" x1="39.9477" y1="129.521" x2="39.9477" y2="127.156" gradientUnits="userSpaceOnUse">
            <stop stop-color="#0073FF"/>
            <stop offset="1" stop-color="#00C2FF"/>
        </linearGradient>
        <linearGradient id="paint11_linear_4201_7249" x1="39.8697" y1="110.141" x2="39.8697" y2="109.555" gradientUnits="userSpaceOnUse">
            <stop stop-color="#0073FF"/>
            <stop offset="1" stop-color="#00C2FF"/>
        </linearGradient>
        <linearGradient id="paint12_linear_4201_7249" x1="140.935" y1="47.9003" x2="140.935" y2="27.8145" gradientUnits="userSpaceOnUse">
            <stop stop-color="#0073FF"/>
            <stop offset="1" stop-color="#00C2FF"/>
        </linearGradient>
        <linearGradient id="paint13_linear_4201_7249" x1="144.891" y1="40.6832" x2="144.53" y2="35.104" gradientUnits="userSpaceOnUse">
            <stop stop-color="#8341EF"/>
            <stop offset="1" stop-color="#3F68F9"/>
        </linearGradient>
        <linearGradient id="paint14_linear_4201_7249" x1="121.413" y1="33.6827" x2="121.413" y2="-0.0117208" gradientUnits="userSpaceOnUse">
            <stop stop-color="#0073FF"/>
            <stop offset="1" stop-color="#00C2FF"/>
        </linearGradient>
        <linearGradient id="paint15_linear_4201_7249" x1="129.292" y1="29.7904" x2="123.388" y2="6.35747" gradientUnits="userSpaceOnUse">
            <stop stop-color="#8341EF"/>
            <stop offset="1" stop-color="#3F68F9"/>
        </linearGradient>
        <linearGradient id="paint16_linear_4201_7249" x1="159.785" y1="129.776" x2="159.785" y2="114.4" gradientUnits="userSpaceOnUse">
            <stop stop-color="#0073FF"/>
            <stop offset="1" stop-color="#00C2FF"/>
        </linearGradient>
        <linearGradient id="paint17_linear_4201_7249" x1="96.6852" y1="60.2178" x2="96.6852" y2="58.4961" gradientUnits="userSpaceOnUse">
            <stop stop-color="#0073FF"/>
            <stop offset="1" stop-color="#00C2FF"/>
        </linearGradient>
        <linearGradient id="paint18_linear_4201_7249" x1="89.0374" y1="63.0582" x2="89.0374" y2="61.3555" gradientUnits="userSpaceOnUse">
            <stop stop-color="#0073FF"/>
            <stop offset="1" stop-color="#00C2FF"/>
        </linearGradient>
        <linearGradient id="paint19_linear_4201_7249" x1="96.6852" y1="77.9971" x2="96.6852" y2="76.2754" gradientUnits="userSpaceOnUse">
            <stop stop-color="#0073FF"/>
            <stop offset="1" stop-color="#00C2FF"/>
        </linearGradient>
        <linearGradient id="paint20_linear_4201_7249" x1="89.0374" y1="80.8375" x2="89.0374" y2="79.1348" gradientUnits="userSpaceOnUse">
            <stop stop-color="#0073FF"/>
            <stop offset="1" stop-color="#00C2FF"/>
        </linearGradient>
        <linearGradient id="paint21_linear_4201_7249" x1="96.6852" y1="92.8252" x2="96.6852" y2="91.1035" gradientUnits="userSpaceOnUse">
            <stop stop-color="#0073FF"/>
            <stop offset="1" stop-color="#00C2FF"/>
        </linearGradient>
        <linearGradient id="paint22_linear_4201_7249" x1="89.0374" y1="95.6656" x2="89.0374" y2="93.9629" gradientUnits="userSpaceOnUse">
            <stop stop-color="#0073FF"/>
            <stop offset="1" stop-color="#00C2FF"/>
        </linearGradient>
        <linearGradient id="paint23_linear_4201_7249" x1="98.679" y1="45.4491" x2="98.679" y2="43.4531" gradientUnits="userSpaceOnUse">
            <stop stop-color="#0073FF"/>
            <stop offset="1" stop-color="#00C2FF"/>
        </linearGradient>
        <linearGradient id="paint24_linear_4201_7249" x1="99.208" y1="48.4667" x2="99.208" y2="46.4707" gradientUnits="userSpaceOnUse">
            <stop stop-color="#0073FF"/>
            <stop offset="1" stop-color="#00C2FF"/>
        </linearGradient>
        <linearGradient id="paint25_linear_4201_7249" x1="74.59" y1="69.304" x2="80.1528" y2="45.2142" gradientUnits="userSpaceOnUse">
            <stop stop-color="#0073FF"/>
            <stop offset="1" stop-color="#00C2FF"/>
        </linearGradient>
        <linearGradient id="paint26_linear_4201_7249" x1="111.751" y1="75.57" x2="118.495" y2="59.0493" gradientUnits="userSpaceOnUse">
            <stop stop-color="#0073FF"/>
            <stop offset="1" stop-color="#00C2FF"/>
        </linearGradient>
        <linearGradient id="paint27_linear_4201_7249" x1="101.496" y1="62.8041" x2="102.772" y2="60.6435" gradientUnits="userSpaceOnUse">
            <stop stop-color="#0073FF"/>
            <stop offset="1" stop-color="#00C2FF"/>
        </linearGradient>
        <linearGradient id="paint28_linear_4201_7249" x1="113.584" y1="64.4274" x2="115.093" y2="63.0683" gradientUnits="userSpaceOnUse">
            <stop stop-color="#0073FF"/>
            <stop offset="1" stop-color="#00C2FF"/>
        </linearGradient>
        <linearGradient id="paint29_linear_4201_7249" x1="123.991" y1="126.817" x2="143.285" y2="119.593" gradientUnits="userSpaceOnUse">
            <stop stop-color="#0073FF"/>
            <stop offset="1" stop-color="#00C2FF"/>
        </linearGradient>
        <linearGradient id="paint30_linear_4201_7249" x1="131.634" y1="105.452" x2="122.832" y2="90.4345" gradientUnits="userSpaceOnUse">
            <stop stop-color="#8341EF"/>
            <stop offset="1" stop-color="#3F68F9"/>
        </linearGradient>
        <linearGradient id="paint31_linear_4201_7249" x1="127.11" y1="124.43" x2="154.618" y2="104.72" gradientUnits="userSpaceOnUse">
            <stop stop-color="#0073FF"/>
            <stop offset="1" stop-color="#00C2FF"/>
        </linearGradient>
        <linearGradient id="paint32_linear_4201_7249" x1="133.779" y1="81.0955" x2="124.26" y2="62.9671" gradientUnits="userSpaceOnUse">
            <stop stop-color="#8341EF"/>
            <stop offset="1" stop-color="#3F68F9"/>
        </linearGradient>
        <linearGradient id="paint33_linear_4201_7249" x1="128.896" y1="85.2735" x2="141.274" y2="77.9144" gradientUnits="userSpaceOnUse">
            <stop stop-color="#0073FF"/>
            <stop offset="1" stop-color="#00C2FF"/>
        </linearGradient>
        <linearGradient id="paint34_linear_4201_7249" x1="132.023" y1="88.356" x2="149.491" y2="79.1124" gradientUnits="userSpaceOnUse">
            <stop stop-color="#0073FF"/>
            <stop offset="1" stop-color="#00C2FF"/>
        </linearGradient>
        <linearGradient id="paint35_linear_4201_7249" x1="96.5834" y1="109.895" x2="96.5834" y2="108.873" gradientUnits="userSpaceOnUse">
            <stop stop-color="#0073FF"/>
            <stop offset="1" stop-color="#00C2FF"/>
        </linearGradient>
        <linearGradient id="paint36_linear_4201_7249" x1="96.5834" y1="111.922" x2="96.5834" y2="110.9" gradientUnits="userSpaceOnUse">
            <stop stop-color="#0073FF"/>
            <stop offset="1" stop-color="#00C2FF"/>
        </linearGradient>
        <linearGradient id="paint37_linear_4201_7249" x1="96.5834" y1="114.172" x2="96.5834" y2="113.15" gradientUnits="userSpaceOnUse">
            <stop stop-color="#0073FF"/>
            <stop offset="1" stop-color="#00C2FF"/>
        </linearGradient>
        <linearGradient id="paint38_linear_4201_7249" x1="93.5893" y1="116.424" x2="93.5893" y2="115.402" gradientUnits="userSpaceOnUse">
            <stop stop-color="#0073FF"/>
            <stop offset="1" stop-color="#00C2FF"/>
        </linearGradient>
        <clipPath id="clip0_4201_7249">
            <rect width="179.408" height="129.671" fill="white"/>
        </clipPath>
    </defs>
</svg>