<svg width="175" height="211" viewBox="0 0 175 211" fill="none" xmlns="http://www.w3.org/2000/svg">
    <g filter="url(#filter0_f_4420_29334)">
        <path d="M83 206C117.242 206 145 205.328 145 204.5C145 203.672 117.242 203 83 203C48.7583 203 21 203.672 21 204.5C21 205.328 48.7583 206 83 206Z" fill="url(#paint0_radial_4420_29334)" fill-opacity="0.35"/>
    </g>
    <path d="M94.2463 11.341C94.2463 11.341 97.1667 20.503 87.4321 27.8898C77.6975 35.3339 64.2409 44.2096 64.2409 44.2096L59.1445 38.8842C59.1445 38.8842 74.6626 25.8284 80.6752 20.8466C86.745 15.8647 86.0578 3.49609 86.0578 3.49609L94.2463 11.341Z" fill="url(#paint1_linear_4420_29334)"/>
    <mask id="mask0_4420_29334" style="mask-type:luminance" maskUnits="userSpaceOnUse" x="58" y="0" width="37" height="45">
        <path d="M68.3649 22.0481C70.3691 17.2954 73.2322 12.5999 77.6987 10.0231C80.619 8.36245 84.1693 7.78983 87.4905 8.36245C89.9528 8.76329 92.2433 9.85126 94.1902 11.3973L86.059 3.55241C83.4821 1.37644 80.1609 0.0594115 76.7824 0.00214913C73.404 -0.0551132 70.0255 1.03287 67.3342 3.15158C63.2685 6.301 61.0926 11.3973 59.8901 16.4364C58.0577 23.766 57.8286 31.5537 59.1457 38.9978L64.242 44.3232C64.0702 36.65 65.5018 29.0341 68.3649 22.0481Z" fill="white"/>
    </mask>
    <g mask="url(#mask0_4420_29334)">
        <path d="M68.3649 22.0481C70.3691 17.2954 73.2322 12.5999 77.6987 10.0231C80.619 8.36245 84.1693 7.78983 87.4905 8.36245C89.9528 8.76329 92.2433 9.85126 94.1902 11.3973L86.059 3.55241C83.4821 1.37644 80.1609 0.0594115 76.7824 0.00214913C73.404 -0.0551132 70.0255 1.03287 67.3342 3.15158C63.2685 6.301 61.0926 11.3973 59.8901 16.4364C58.0577 23.766 57.8286 31.5537 59.1457 38.9978L64.242 44.3232C64.0702 36.65 65.5018 29.0341 68.3649 22.0481Z" fill="url(#paint2_linear_4420_29334)"/>
    </g>
    <path d="M46.4881 2.75C46.4881 2.75 56.6808 2.80726 61.0327 13.9162C65.3846 25.0823 69.9083 40.085 69.9083 40.085L62.8651 43.1772C62.8651 43.1772 54.7338 25.025 51.6417 17.9818C48.5495 10.9385 35.8945 7.84634 35.8945 7.84634L46.4881 2.75Z" fill="url(#paint3_linear_4420_29334)"/>
    <path d="M108.331 75.9844L107.888 78.9517L106.648 83.1147C109.704 84.7534 120.378 87.2335 123.832 87.1006L124.541 82.9818L125.471 80.0146C122.105 79.6603 111.52 77.1801 108.331 75.9844Z" fill="#0073FF"/>
    <path d="M134.988 74.1655C134.501 76.8227 132.996 78.3285 130.693 78.9043C130.471 78.9485 130.25 78.9042 130.073 78.7714L126.795 75.937L125.511 80.0115C122.145 79.7014 111.516 77.2213 108.371 76.0255L108.992 71.8182L105.537 72.7482C105.271 72.8368 105.006 72.7482 104.828 72.5268C103.323 70.6224 102.747 68.6295 103.101 66.5479C103.146 66.2822 103.323 66.1051 103.588 66.0165L109.169 64.245C110.143 63.935 111.206 63.935 112.18 64.1564L114.882 64.7764V64.8207C114.882 64.8207 114.483 68.4966 118.735 69.7367C122.898 70.9324 124.758 67.2566 124.847 67.1237L127.371 67.6994C128.39 67.9209 129.275 68.408 130.028 69.1166L134.811 73.634C134.944 73.7226 135.033 73.944 134.988 74.1655ZM106.689 83.0673L105.094 88.4704C104.474 91.0834 122.278 95.2465 122.898 92.6335L123.872 87.0532C120.418 87.1861 109.744 84.706 106.689 83.0673Z" fill="white"/>
    <path d="M134.988 74.1655C134.501 76.8227 132.996 78.3285 130.693 78.9043C130.471 78.9485 130.25 78.9042 130.073 78.7714L126.795 75.937L125.511 80.0115C122.145 79.7014 111.516 77.2213 108.371 76.0255L108.992 71.8182L105.537 72.7482C105.271 72.8368 105.006 72.7482 104.828 72.5268C103.323 70.6224 102.747 68.6295 103.101 66.5479C103.146 66.2822 103.323 66.1051 103.588 66.0165L109.169 64.245C110.143 63.935 111.206 63.935 112.18 64.1564L114.882 64.7764V64.8207C114.882 64.8207 114.483 68.4966 118.735 69.7367C122.898 70.9324 124.758 67.2566 124.847 67.1237L127.371 67.6994C128.39 67.9209 129.275 68.408 130.028 69.1166L134.811 73.634C134.944 73.7226 135.033 73.944 134.988 74.1655ZM106.689 83.0673L105.094 88.4704C104.474 91.0834 122.278 95.2465 122.898 92.6335L123.872 87.0532C120.418 87.1861 109.744 84.706 106.689 83.0673Z" fill="url(#paint4_linear_4420_29334)"/>
    <path d="M118.694 69.6503C122.857 70.8461 124.717 67.1702 124.805 67.0373L123.787 66.8159C121.572 70.2261 116.258 69.0303 115.726 65.0001V64.9115L114.885 64.7344V64.7787C114.84 64.7344 114.442 68.4103 118.694 69.6503Z" fill="#0073FF"/>
    <mask id="mask1_4420_29334" style="mask-type:luminance" maskUnits="userSpaceOnUse" x="28" y="2" width="42" height="42">
        <path d="M48.7856 29.7245C44.6055 26.4605 40.8261 22.4521 39.7381 17.5276C39.051 14.3209 39.5664 10.8852 41.227 8.02204C42.4295 5.90333 44.2619 4.07094 46.4378 2.75391L35.8443 7.85025C32.8094 9.56812 30.4044 12.2595 29.2019 15.3516C27.9994 18.4438 28.0566 21.8795 29.2592 24.9717C31.1488 29.6672 35.558 33.1602 40.1963 35.7943C47.0105 39.6881 54.7981 42.2076 62.7576 43.1811L69.8009 40.0889C62.185 38.0275 54.9127 34.4772 48.7856 29.7245Z" fill="white"/>
    </mask>
    <g mask="url(#mask1_4420_29334)">
        <path d="M48.7856 29.7245C44.6055 26.4605 40.8261 22.4521 39.7381 17.5276C39.051 14.3209 39.5664 10.8852 41.227 8.02204C42.4295 5.90333 44.2619 4.07094 46.4378 2.75391L35.8443 7.85025C32.8094 9.56812 30.4044 12.2595 29.2019 15.3516C27.9994 18.4438 28.0566 21.8795 29.2592 24.9717C31.1488 29.6672 35.558 33.1602 40.1963 35.7943C47.0105 39.6881 54.7981 42.2076 62.7576 43.1811L69.8009 40.0889C62.185 38.0275 54.9127 34.4772 48.7856 29.7245Z" fill="url(#paint5_linear_4420_29334)"/>
    </g>
    <path d="M36.1797 117.625L81.7032 154.502L90.4644 112.07L36.1797 117.625Z" fill="url(#paint6_linear_4420_29334)"/>
    <path d="M90.4643 112.07L81.7031 154.502L137.248 136.979L90.4643 112.07Z" fill="url(#paint7_linear_4420_29334)"/>
    <path d="M86.5125 143.103L70.25 134.914L83.4776 155.872L86.5125 143.103Z" fill="url(#paint8_linear_4420_29334)"/>
    <path d="M26.2695 169.501L37.6075 178.205L28.2737 158.965L26.2695 169.501Z" fill="url(#paint9_linear_4420_29334)"/>
    <path d="M80.7273 167.44L59.483 129.647L59.5403 129.418L49.1758 124.207L78.1505 178.377L80.7273 167.44Z" fill="url(#paint10_linear_4420_29334)"/>
    <path d="M32.5705 136.688L30.3945 147.968L49.1193 187.078L64.6374 198.989L32.5705 136.688Z" fill="url(#paint11_linear_4420_29334)"/>
    <path d="M59.4814 129.645L59.5387 129.473L70.304 134.913L83.5316 155.928L80.783 167.495L59.4814 129.645ZM28.2734 158.963L37.6072 178.203L49.1742 187.079L30.4494 147.969L28.2734 158.963ZM71.9073 204.601L73.2816 198.818L73.1671 198.875L34.515 126.553L32.5681 136.688L64.635 198.99L71.9073 204.601ZM75.6294 189.083L78.1489 178.375L49.1742 124.205L36.691 117.906L75.6294 189.083Z" fill="url(#paint12_linear_4420_29334)"/>
    <path d="M73.2783 198.819L75.6261 189.084L36.6877 117.85L36.1723 117.621L34.5117 126.554L73.1638 198.934L73.2783 198.819Z" fill="url(#paint13_linear_4420_29334)"/>
    <path d="M122.928 198.533L124.875 190.059L114.281 199.564L122.928 198.533Z" fill="url(#paint14_linear_4420_29334)"/>
    <path d="M100.478 201.166L127.335 179.578L129.74 169.328L88.9688 202.54L100.478 201.166Z" fill="url(#paint15_linear_4420_29334)"/>
    <path d="M114.281 199.563L124.874 190.057L127.336 179.578L100.48 201.166L114.281 199.563Z" fill="white"/>
    <path d="M83.4727 155.871L104.717 140.926L86.5076 143.102L83.4727 155.871Z" fill="white"/>
    <path d="M73.2812 198.82L134.781 147.627L137.243 136.977L75.629 189.085L73.2812 198.82Z" fill="white"/>
    <path d="M88.9731 202.543L129.744 169.33L132.263 158.508L77.0625 203.974L88.9731 202.543Z" fill="white"/>
    <path d="M73.2805 198.821L71.9062 204.605L77.0599 203.975L132.261 158.509L134.78 147.629L73.2805 198.821Z" fill="url(#paint16_linear_4420_29334)"/>
    <path d="M83.4752 155.873L80.7266 167.44L116.687 139.496L104.719 140.928L83.4752 155.873Z" fill="url(#paint17_linear_4420_29334)"/>
    <path d="M80.7291 167.441L78.1523 178.378L128.772 138.008L116.69 139.497L80.7291 167.441Z" fill="white"/>
    <path d="M78.1484 178.377L75.6289 189.085L137.243 136.977L128.768 138.007L78.1484 178.377Z" fill="url(#paint18_linear_4420_29334)"/>
    <path d="M113.535 44.6602L87.4805 63.614L90.1718 71.4017L129.053 45.5191L113.535 44.6602Z" fill="url(#paint19_linear_4420_29334)"/>
    <path d="M113.538 44.6627L65.3801 41.9141L42.2461 65.6207L87.4833 63.6165L113.538 44.6627Z" fill="url(#paint20_linear_4420_29334)"/>
    <path d="M42.2468 65.6214L33.3711 74.7261L90.1753 71.4048L87.484 63.6172L42.2468 65.6214Z" fill="url(#paint21_linear_4420_29334)"/>
    <path d="M67.5592 35.0442L63.7227 34.9297L65.0397 38.8235L67.5592 35.0442Z" fill="white"/>
    <path d="M86.168 46.9551L95.7308 46.6116L101.572 35.789L93.8984 35.6172L86.3397 46.7833L86.168 46.9551Z" fill="white"/>
    <path d="M67.7852 46.7818L68.0715 47.5835L77.1189 47.2399L85.422 35.4439L76.2027 35.2148L67.7852 46.7818Z" fill="white"/>
    <path d="M127.969 43.1172L126.652 45.5795L129.057 45.5222L127.969 43.1172Z" fill="url(#paint22_linear_4420_29334)"/>
    <path d="M77.1214 47.2412L85.4245 35.4451L93.9565 35.6169L86.3406 46.7258L86.1689 46.8976L77.1214 47.2412ZM67.7876 46.7831L76.2052 35.2734L67.5586 35.1016L65.0391 38.8809L67.7876 46.7831ZM127.97 43.1183L124.878 36.3613L120.813 36.2468L115.43 45.9814L126.653 45.5806L127.97 43.1183ZM101.572 35.7887L95.7317 46.6113L106.096 46.2677L111.192 36.0178L101.572 35.7887Z" fill="url(#paint23_linear_4420_29334)"/>
    <path d="M111.194 36.0156L106.098 46.2656L115.374 45.9793L120.814 36.2447L111.194 36.0156Z" fill="white"/>
    <path d="M53.7546 58.7481L41.1569 57.4883L34.8008 63.8444L46.5396 64.417L53.7546 58.7481Z" fill="url(#paint24_linear_4420_29334)"/>
    <path d="M31.6523 71.1211L33.3702 74.7286L37.7794 71.2929L31.6523 71.1211Z" fill="url(#paint25_linear_4420_29334)"/>
    <path d="M68.0727 47.5857L67.7864 46.784L54.1007 44.5508L47.3438 51.2505L61.0294 53.0829L68.0727 47.5857Z" fill="url(#paint26_linear_4420_29334)"/>
    <path d="M65.037 38.8235L63.7199 34.9297L60.9141 37.7355L64.9797 38.8808L65.037 38.8235Z" fill="url(#paint27_linear_4420_29334)"/>
    <path d="M46.5412 64.4186L37.78 71.2901L31.653 71.1183L30.3359 68.3697L34.8024 63.9033L46.5412 64.4186ZM53.7562 58.7497L61.0285 53.0807L47.4001 51.3055L41.1585 57.4899L53.7562 58.7497ZM65.0369 38.8224L60.914 37.7344L54.0998 44.5486L67.7282 46.7818L65.0369 38.8224Z" fill="url(#paint28_linear_4420_29334)"/>
    <path d="M89.9208 95.7387L56.2506 121.392C55.6207 121.908 54.4182 121.679 53.6165 120.877L35.4643 103.355C34.6627 102.553 34.3764 101.408 34.8917 100.721L59.3427 66.1914C60.3162 64.8171 62.0913 64.588 63.2938 65.7333L90.2644 91.7876C91.4669 92.8756 91.2951 94.6507 89.9208 95.7387Z" fill="#0073FF"/>
    <path d="M89.288 96.3715L55.6178 122.025C54.9879 122.54 53.7854 122.311 52.9837 121.51L34.8315 103.987C34.0299 103.186 33.7436 102.041 34.2589 101.353L58.7099 66.8242C59.6834 65.4499 61.4585 65.2208 62.661 66.3661L89.6316 92.4205C90.7768 93.5657 90.6623 95.3408 89.288 96.3715Z" fill="white"/>
    <path d="M89.288 96.3715L55.6178 122.025C54.9879 122.54 53.7854 122.311 52.9837 121.51L34.8315 103.987C34.0299 103.186 33.7436 102.041 34.2589 101.353L58.7099 66.8242C59.6834 65.4499 61.4585 65.2208 62.661 66.3661L89.6316 92.4205C90.7768 93.5657 90.6623 95.3408 89.288 96.3715Z" fill="url(#paint29_linear_4420_29334)"/>
    <path d="M86.7191 89.6153L51.0447 119.621L46.75 115.498L80.363 83.4883L86.7191 89.6153Z" fill="#0073FF"/>
    <path d="M56.3661 104.788L48.2921 112.633C47.7767 113.149 46.8033 112.977 46.0589 112.29C45.3717 111.602 45.1999 110.629 45.658 110.114L53.4457 101.982C54.0756 101.352 55.2208 101.41 56.0225 102.211C56.8814 103.013 56.996 104.158 56.3661 104.788Z" fill="#0073FF"/>
    <path opacity="0.5" d="M70.6205 81.9984L44.967 109.37C44.4517 109.885 43.5355 109.771 42.791 109.083C42.1039 108.396 41.8749 107.423 42.3902 106.85L67.0703 78.5053C67.9865 77.4746 69.5325 77.3601 70.5633 78.3336C71.5367 79.3643 71.5367 81.0249 70.6205 81.9984Z" fill="#0073FF"/>
    <path d="M75.2014 86.4647L60.714 100.551C60.0269 101.238 58.7671 101.181 57.9654 100.379C57.1637 99.5778 57.0492 98.3753 57.7364 97.6308L71.7084 83.029C72.6818 81.9982 74.2851 81.941 75.2586 82.9144C76.2321 83.8879 76.1748 85.4912 75.2014 86.4647Z" fill="#0073FF"/>
    <path d="M143.748 41C143.363 41.1446 143.073 41.4338 142.977 41.9158L142.254 46.977L137.627 49.2424C137.193 49.4352 137 49.869 137 50.2547L146.447 49.4352L143.748 41Z" fill="white"/>
    <path d="M143.748 41C143.363 41.1446 143.073 41.4338 142.977 41.9158L142.254 46.977L137.627 49.2424C137.193 49.4352 137 49.869 137 50.2547L146.447 49.4352L143.748 41Z" fill="url(#paint30_linear_4420_29334)"/>
    <path d="M137 50.3038C137 50.6894 137.193 51.075 137.627 51.2678L142.254 53.5333L142.977 58.5944C143.025 59.0282 143.363 59.3656 143.748 59.5102L146.496 49.4844L137 50.3038Z" fill="white"/>
    <path d="M137 50.3038C137 50.6894 137.193 51.075 137.627 51.2678L142.254 53.5333L142.977 58.5944C143.025 59.0282 143.363 59.3656 143.748 59.5102L146.496 49.4844L137 50.3038Z" fill="url(#paint31_linear_4420_29334)"/>
    <path d="M154.495 44.4662C154.254 44.2251 153.917 44.0805 153.531 44.1287L148.47 44.9964L144.903 41.3331C144.566 40.9957 144.132 40.9475 143.746 41.0439L146.494 49.5273L154.495 44.4662Z" fill="white"/>
    <path d="M154.495 44.4662C154.254 44.2251 153.917 44.0805 153.531 44.1287L148.47 44.9964L144.903 41.3331C144.566 40.9957 144.132 40.9475 143.746 41.0439L146.494 49.5273L154.495 44.4662Z" fill="url(#paint32_linear_4420_29334)"/>
    <path d="M143.699 59.5102C144.085 59.6548 144.519 59.5585 144.856 59.221L148.423 55.5577L153.484 56.4254C153.918 56.5218 154.304 56.329 154.545 55.9916L146.447 49.4844L143.699 59.5102Z" fill="white"/>
    <path d="M143.699 59.5102C144.085 59.6548 144.519 59.5585 144.856 59.221L148.423 55.5577L153.484 56.4254C153.918 56.5218 154.304 56.329 154.545 55.9916L146.447 49.4844L143.699 59.5102Z" fill="url(#paint33_linear_4420_29334)"/>
    <path d="M146.445 49.4882L154.543 55.9954C154.784 55.6579 154.832 55.2241 154.64 54.8385L152.229 50.3076L154.64 45.7767C154.881 45.3429 154.784 44.8126 154.447 44.5234L146.445 49.4882Z" fill="white"/>
    <path d="M146.445 49.4882L154.543 55.9954C154.784 55.6579 154.832 55.2241 154.64 54.8385L152.229 50.3076L154.64 45.7767C154.881 45.3429 154.784 44.8126 154.447 44.5234L146.445 49.4882Z" fill="url(#paint34_linear_4420_29334)"/>
    <path d="M4.93596 130C4.6539 130.106 4.44237 130.317 4.37186 130.67L3.843 134.372L0.458335 136.029C0.141023 136.17 0 136.487 0 136.769L6.91036 136.17L4.93596 130Z" fill="white"/>
    <path d="M4.93596 130C4.6539 130.106 4.44237 130.317 4.37186 130.67L3.843 134.372L0.458335 136.029C0.141023 136.17 0 136.487 0 136.769L6.91036 136.17L4.93596 130Z" fill="url(#paint35_linear_4420_29334)"/>
    <path d="M0 136.802C0 137.085 0.141023 137.367 0.458335 137.508L3.843 139.165L4.37186 142.867C4.40711 143.184 4.6539 143.431 4.93596 143.537L6.9456 136.203L0 136.802Z" fill="white"/>
    <path d="M0 136.802C0 137.085 0.141023 137.367 0.458335 137.508L3.843 139.165L4.37186 142.867C4.40711 143.184 4.6539 143.431 4.93596 143.537L6.9456 136.203L0 136.802Z" fill="url(#paint36_linear_4420_29334)"/>
    <path d="M12.7959 132.535C12.6196 132.359 12.3728 132.253 12.0907 132.289L8.38876 132.923L5.77977 130.244C5.53297 129.997 5.21565 129.962 4.93359 130.032L6.94324 136.237L12.7959 132.535Z" fill="white"/>
    <path d="M12.7959 132.535C12.6196 132.359 12.3728 132.253 12.0907 132.289L8.38876 132.923L5.77977 130.244C5.53297 129.997 5.21565 129.962 4.93359 130.032L6.94324 136.237L12.7959 132.535Z" fill="url(#paint37_linear_4420_29334)"/>
    <path d="M4.90234 143.537C5.1844 143.642 5.5017 143.572 5.7485 143.325L8.35751 140.645L12.0595 141.28C12.3768 141.351 12.6588 141.21 12.8351 140.963L6.91199 136.203L4.90234 143.537Z" fill="white"/>
    <path d="M4.90234 143.537C5.1844 143.642 5.5017 143.572 5.7485 143.325L8.35751 140.645L12.0595 141.28C12.3768 141.351 12.6588 141.21 12.8351 140.963L6.91199 136.203L4.90234 143.537Z" fill="url(#paint38_linear_4420_29334)"/>
    <path d="M6.90625 136.21L12.8294 140.969C13.0057 140.722 13.0409 140.405 12.8999 140.123L11.1371 136.809L12.8999 133.495C13.0762 133.177 13.0057 132.79 12.7589 132.578L6.90625 136.21Z" fill="white"/>
    <path d="M6.90625 136.21L12.8294 140.969C13.0057 140.722 13.0409 140.405 12.8999 140.123L11.1371 136.809L12.8999 133.495C13.0762 133.177 13.0057 132.79 12.7589 132.578L6.90625 136.21Z" fill="url(#paint39_linear_4420_29334)"/>
    <path d="M8.71963 85C8.22137 85.1868 7.84768 85.5606 7.72312 86.1834L6.78887 92.7231L0.809673 95.6504C0.249125 95.8995 0 96.4601 0 96.9584L12.2075 95.8995L8.71963 85Z" fill="white"/>
    <path d="M8.71963 85C8.22137 85.1868 7.84768 85.5606 7.72312 86.1834L6.78887 92.7231L0.809673 95.6504C0.249125 95.8995 0 96.4601 0 96.9584L12.2075 95.8995L8.71963 85Z" fill="url(#paint40_linear_4420_29334)"/>
    <path d="M0 97.0198C0 97.518 0.249125 98.0163 0.809673 98.2654L6.78887 101.193L7.72312 107.732C7.7854 108.293 8.22137 108.729 8.71963 108.916L12.2698 95.9609L0 97.0198Z" fill="white"/>
    <path d="M0 97.0198C0 97.518 0.249125 98.0163 0.809673 98.2654L6.78887 101.193L7.72312 107.732C7.7854 108.293 8.22137 108.729 8.71963 108.916L12.2698 95.9609L0 97.0198Z" fill="url(#paint41_linear_4420_29334)"/>
    <path d="M22.604 89.4788C22.2926 89.1674 21.8566 88.9805 21.3583 89.0428L14.8186 90.1639L10.2097 85.4304C9.77367 84.9944 9.21311 84.9321 8.71484 85.0567L12.265 96.0185L22.604 89.4788Z" fill="white"/>
    <path d="M22.604 89.4788C22.2926 89.1674 21.8566 88.9805 21.3583 89.0428L14.8186 90.1639L10.2097 85.4304C9.77367 84.9944 9.21311 84.9321 8.71484 85.0567L12.265 96.0185L22.604 89.4788Z" fill="url(#paint42_linear_4420_29334)"/>
    <path d="M8.66016 108.916C9.15842 109.103 9.71895 108.978 10.1549 108.542L14.7639 103.809L21.3036 104.93C21.8642 105.054 22.3624 104.805 22.6739 104.369L12.2103 95.9609L8.66016 108.916Z" fill="white"/>
    <path d="M8.66016 108.916C9.15842 109.103 9.71895 108.978 10.1549 108.542L14.7639 103.809L21.3036 104.93C21.8642 105.054 22.3624 104.805 22.6739 104.369L12.2103 95.9609L8.66016 108.916Z" fill="url(#paint43_linear_4420_29334)"/>
    <path d="M12.2031 95.9698L22.6667 104.378C22.9781 103.942 23.0404 103.382 22.7913 102.883L19.6771 97.0287L22.7913 91.1741C23.1027 90.6135 22.9781 89.9284 22.5421 89.5547L12.2031 95.9698Z" fill="white"/>
    <path d="M12.2031 95.9698L22.6667 104.378C22.9781 103.942 23.0404 103.382 22.7913 102.883L19.6771 97.0287L22.7913 91.1741C23.1027 90.6135 22.9781 89.9284 22.5421 89.5547L12.2031 95.9698Z" fill="url(#paint44_linear_4420_29334)"/>
    <path d="M161.77 61.6708C161.484 61.6136 161.255 61.7281 161.025 61.9572L159.021 64.7057L155.586 64.5912C155.299 64.5912 155.013 64.763 154.898 64.992L160.682 67.4543L161.77 61.6708Z" fill="white"/>
    <path d="M161.77 61.6708C161.484 61.6136 161.255 61.7281 161.025 61.9572L159.021 64.7057L155.586 64.5912C155.299 64.5912 155.013 64.763 154.898 64.992L160.682 67.4543L161.77 61.6708Z" fill="url(#paint45_linear_4420_29334)"/>
    <path d="M154.9 64.9922C154.786 65.2212 154.786 65.5076 154.957 65.7366L156.962 68.4852L155.816 71.6919C155.702 71.9782 155.816 72.2645 155.988 72.4363L160.741 67.3972L154.9 64.9922Z" fill="white"/>
    <path d="M154.9 64.9922C154.786 65.2212 154.786 65.5076 154.957 65.7366L156.962 68.4852L155.816 71.6919C155.702 71.9782 155.816 72.2645 155.988 72.4363L160.741 67.3972L154.9 64.9922Z" fill="url(#paint46_linear_4420_29334)"/>
    <path d="M167.041 67.0545C166.984 66.8255 166.812 66.6537 166.583 66.5392L163.319 65.4512L162.346 62.1872C162.288 61.9009 162.002 61.7291 161.773 61.6719L160.742 67.5126L167.041 67.0545Z" fill="white"/>
    <path d="M167.041 67.0545C166.984 66.8255 166.812 66.6537 166.583 66.5392L163.319 65.4512L162.346 62.1872C162.288 61.9009 162.002 61.7291 161.773 61.6719L160.742 67.5126L167.041 67.0545Z" fill="url(#paint47_linear_4420_29334)"/>
    <path d="M155.988 72.4961C156.16 72.6679 156.446 72.7824 156.733 72.6679L159.997 71.6372L162.688 73.7559C162.917 73.9277 163.203 73.9277 163.432 73.8131L160.684 67.457L155.988 72.4961Z" fill="white"/>
    <path d="M155.988 72.4961C156.16 72.6679 156.446 72.7824 156.733 72.6679L159.997 71.6372L162.688 73.7559C162.917 73.9277 163.203 73.9277 163.432 73.8131L160.684 67.457L155.988 72.4961Z" fill="url(#paint48_linear_4420_29334)"/>
    <path d="M160.742 67.5154L163.491 73.8715C163.72 73.757 163.892 73.5279 163.892 73.1843V69.7486L166.697 67.8017C166.984 67.6299 167.041 67.2863 166.984 67L160.742 67.5154Z" fill="white"/>
    <path d="M160.742 67.5154L163.491 73.8715C163.72 73.757 163.892 73.5279 163.892 73.1843V69.7486L166.697 67.8017C166.984 67.6299 167.041 67.2863 166.984 67L160.742 67.5154Z" fill="url(#paint49_linear_4420_29334)"/>
    <path d="M109.002 132.305C109.002 132.305 113.354 155.668 96.0038 175.652C78.6534 195.694 34.5041 197.641 12.8017 190.369L12 189.819C12 189.819 49.5068 196.954 74.874 176.969C95.0304 161.108 83.9215 135.569 83.9215 135.569L94.9731 129.957L109.002 132.305Z" fill="url(#paint50_linear_4420_29334)"/>
    <path d="M109.063 128.411L107.231 127.953L95.8927 114.439C94.5757 112.836 91.369 113.237 90.5673 115.126L83.6386 131.332L82.207 131.732L82.6079 134.424C82.8369 135.798 84.7266 136.772 86.6735 136.084L95.3201 133.107C95.8355 132.935 96.3508 132.878 96.8662 132.935L106.085 133.679C108.09 133.851 109.636 132.477 109.464 131.103L109.063 128.411Z" fill="white"/>
    <path d="M109.063 128.411L107.231 127.953L95.8927 114.439C94.5757 112.836 91.369 113.237 90.5673 115.126L83.6386 131.332L82.207 131.732L82.6079 134.424C82.8369 135.798 84.7266 136.772 86.6735 136.084L95.3201 133.107C95.8355 132.935 96.3508 132.878 96.8662 132.935L106.085 133.679C108.09 133.851 109.636 132.477 109.464 131.103L109.063 128.411Z" fill="url(#paint51_linear_4420_29334)"/>
    <path d="M94.978 130.643L86.3314 133.621C83.9837 134.422 81.6359 132.819 82.4376 130.929L90.2253 112.663C91.0269 110.83 94.1764 110.429 95.5507 111.975L108.721 127.608C110.038 129.211 108.263 131.33 105.801 131.158L96.5814 130.414C96.0088 130.414 95.4361 130.471 94.978 130.643Z" fill="white"/>
    <path d="M94.978 130.643L86.3314 133.621C83.9837 134.422 81.6359 132.819 82.4376 130.929L90.2253 112.663C91.0269 110.83 94.1764 110.429 95.5507 111.975L108.721 127.608C110.038 129.211 108.263 131.33 105.801 131.158L96.5814 130.414C96.0088 130.414 95.4361 130.471 94.978 130.643Z" fill="url(#paint52_linear_4420_29334)"/>
    <path d="M93.1441 112.088C93.8313 112.088 94.3466 112.317 94.6902 112.718L107.861 128.35C108.09 128.637 108.147 128.866 107.975 129.152C107.746 129.61 107.059 130.126 106.028 130.126C105.971 130.126 105.856 130.126 105.799 130.126L96.5799 129.381C96.4653 129.381 96.3508 129.381 96.179 129.381C95.6064 129.381 95.091 129.496 94.5757 129.668L85.9291 132.645C85.6427 132.76 85.3564 132.817 85.0129 132.817C84.2112 132.817 83.6386 132.473 83.3523 132.13C83.1805 131.901 83.1805 131.672 83.295 131.443L91.0827 113.176C91.4262 112.489 92.2852 112.088 93.1441 112.088ZM93.1441 111C91.8843 111 90.6818 111.573 90.2237 112.661L82.4361 130.985C81.8062 132.531 83.2377 133.848 85.0701 133.848C85.471 133.848 85.8718 133.79 86.3299 133.619L94.9765 130.641C95.3773 130.526 95.7782 130.412 96.2363 130.412C96.3508 130.412 96.4653 130.412 96.5226 130.412L105.742 131.156C105.856 131.156 105.971 131.156 106.085 131.156C108.376 131.156 109.979 129.152 108.719 127.606L95.5491 111.973C94.9765 111.344 94.0603 111 93.1441 111Z" fill="#0073FF"/>
    <path d="M144.098 86.3935C143.813 86.2834 143.498 86.2787 143.21 86.3801C142.923 86.4815 142.68 86.6824 142.527 86.9465L132.542 108.651L136.581 125.372C136.919 126.333 138.012 128.218 138.931 128.658C139.85 129.098 140.906 129.155 141.867 128.817L151.529 125.413C151.85 125.3 152.112 125.065 152.259 124.759C152.406 124.452 152.425 124.1 152.312 123.78L149.372 115.435C149.034 114.474 149.091 113.418 149.531 112.499C149.971 111.581 150.758 110.874 151.719 110.536C152.68 110.197 153.736 110.254 154.655 110.694C155.574 111.135 156.28 111.922 156.619 112.883L159.558 121.227C159.671 121.548 159.907 121.81 160.213 121.957C160.519 122.103 160.871 122.122 161.192 122.01L170.854 118.606C171.815 118.268 172.602 117.561 173.042 116.642C173.482 115.723 173.539 114.667 173.201 113.706L167.273 96.8792C166.885 95.7779 166.036 94.901 164.947 94.4788L144.098 86.3935Z" fill="#0073FF"/>
    <path d="M143.391 87.8778C143.106 87.7678 142.791 87.763 142.503 87.8644C142.215 87.9658 141.973 88.1667 141.82 88.4309L131.331 106.603C130.31 108.373 130.113 110.501 130.791 112.428L135.874 126.856C136.212 127.817 136.919 128.604 137.837 129.044C138.756 129.485 139.812 129.542 140.773 129.203L150.436 125.8C150.756 125.687 151.018 125.451 151.165 125.145C151.312 124.839 151.331 124.487 151.218 124.166L148.665 116.92C148.327 115.959 148.384 114.903 148.824 113.984C149.264 113.065 150.051 112.359 151.012 112.02C151.973 111.682 153.029 111.739 153.948 112.179C154.867 112.619 155.573 113.406 155.912 114.367L158.465 121.614C158.577 121.934 158.813 122.196 159.119 122.343C159.425 122.49 159.778 122.509 160.098 122.396L169.76 118.993C170.721 118.654 171.508 117.948 171.948 117.029C172.388 116.11 172.446 115.054 172.107 114.093L166.872 99.2312C166.29 97.5792 165.015 96.2639 163.382 95.6306L143.391 87.8778Z" fill="white"/>
    <path d="M143.391 87.8778C143.106 87.7678 142.791 87.763 142.503 87.8644C142.215 87.9658 141.973 88.1667 141.82 88.4309L131.331 106.603C130.31 108.373 130.113 110.501 130.791 112.428L135.874 126.856C136.212 127.817 136.919 128.604 137.837 129.044C138.756 129.485 139.812 129.542 140.773 129.203L150.436 125.8C150.756 125.687 151.018 125.451 151.165 125.145C151.312 124.839 151.331 124.487 151.218 124.166L148.665 116.92C148.327 115.959 148.384 114.903 148.824 113.984C149.264 113.065 150.051 112.359 151.012 112.02C151.973 111.682 153.029 111.739 153.948 112.179C154.867 112.619 155.573 113.406 155.912 114.367L158.465 121.614C158.577 121.934 158.813 122.196 159.119 122.343C159.425 122.49 159.778 122.509 160.098 122.396L169.76 118.993C170.721 118.654 171.508 117.948 171.948 117.029C172.388 116.11 172.446 115.054 172.107 114.093L166.872 99.2312C166.29 97.5792 165.015 96.2639 163.382 95.6306L143.391 87.8778Z" fill="url(#paint53_linear_4420_29334)"/>
    <defs>
        <filter id="filter0_f_4420_29334" x="16" y="198" width="134" height="13" filterUnits="userSpaceOnUse" color-interpolation-filters="sRGB">
            <feFlood flood-opacity="0" result="BackgroundImageFix"/>
            <feBlend mode="normal" in="SourceGraphic" in2="BackgroundImageFix" result="shape"/>
            <feGaussianBlur stdDeviation="2.5" result="effect1_foregroundBlur_4420_29334"/>
        </filter>
        <radialGradient id="paint0_radial_4420_29334" cx="0" cy="0" r="1" gradientUnits="userSpaceOnUse" gradientTransform="translate(83.0034 204.501) rotate(180) scale(61.4759 1.48531)">
            <stop/>
            <stop offset="1" stop-color="#1B1B50" stop-opacity="0"/>
        </radialGradient>
        <linearGradient id="paint1_linear_4420_29334" x1="54.93" y1="40.962" x2="104.557" y2="9.93923" gradientUnits="userSpaceOnUse">
            <stop stop-color="#FCFE5D"/>
            <stop offset="0.240165" stop-color="#FDDC08"/>
            <stop offset="0.477179" stop-color="#FD9F83"/>
            <stop offset="0.695723" stop-color="#F97DD3"/>
            <stop offset="1" stop-color="#C566E4"/>
        </linearGradient>
        <linearGradient id="paint2_linear_4420_29334" x1="54.0503" y1="40.7877" x2="106.226" y2="10.5169" gradientUnits="userSpaceOnUse">
            <stop stop-color="#FCFE5D"/>
            <stop offset="0.240165" stop-color="#FDDC08"/>
            <stop offset="0.477179" stop-color="#FD9F83"/>
            <stop offset="0.695723" stop-color="#F97DD3"/>
            <stop offset="1" stop-color="#C566E4"/>
        </linearGradient>
        <linearGradient id="paint3_linear_4420_29334" x1="31.8579" y1="39.9525" x2="80.3387" y2="10.7197" gradientUnits="userSpaceOnUse">
            <stop stop-color="#FCFE5D"/>
            <stop offset="0.240165" stop-color="#FDDC08"/>
            <stop offset="0.477179" stop-color="#FD9F83"/>
            <stop offset="0.695723" stop-color="#F97DD3"/>
            <stop offset="1" stop-color="#C566E4"/>
        </linearGradient>
        <linearGradient id="paint4_linear_4420_29334" x1="96.0392" y1="104.991" x2="124.135" y2="64.1023" gradientUnits="userSpaceOnUse">
            <stop stop-color="#0073FF"/>
            <stop offset="1" stop-color="#00C2FF"/>
        </linearGradient>
        <linearGradient id="paint5_linear_4420_29334" x1="23.4063" y1="39.9564" x2="75.729" y2="1.48863" gradientUnits="userSpaceOnUse">
            <stop stop-color="#FCFE5D"/>
            <stop offset="0.240165" stop-color="#FDDC08"/>
            <stop offset="0.477179" stop-color="#FD9F83"/>
            <stop offset="0.695723" stop-color="#F97DD3"/>
            <stop offset="1" stop-color="#C566E4"/>
        </linearGradient>
        <linearGradient id="paint6_linear_4420_29334" x1="29.7373" y1="151.117" x2="87.0567" y2="98.5627" gradientUnits="userSpaceOnUse">
            <stop stop-color="#FCFE5D"/>
            <stop offset="0.240165" stop-color="#FDDC08"/>
            <stop offset="0.477179" stop-color="#FD9F83"/>
            <stop offset="0.695723" stop-color="#F97DD3"/>
            <stop offset="1" stop-color="#C566E4"/>
        </linearGradient>
        <linearGradient id="paint7_linear_4420_29334" x1="75.1113" y1="151.117" x2="132.53" y2="97.2503" gradientUnits="userSpaceOnUse">
            <stop stop-color="#FCFE5D"/>
            <stop offset="0.240165" stop-color="#FDDC08"/>
            <stop offset="0.477179" stop-color="#FD9F83"/>
            <stop offset="0.695723" stop-color="#F97DD3"/>
            <stop offset="1" stop-color="#C566E4"/>
        </linearGradient>
        <linearGradient id="paint8_linear_4420_29334" x1="70.8207" y1="144.096" x2="145.271" y2="162.873" gradientUnits="userSpaceOnUse">
            <stop stop-color="#F4F5FA"/>
            <stop offset="0.1766" stop-color="#EFF1F3"/>
            <stop offset="0.6638" stop-color="#EFF1F3"/>
            <stop offset="1" stop-color="#EFF1F3"/>
        </linearGradient>
        <linearGradient id="paint9_linear_4420_29334" x1="26.6674" y1="167.395" x2="79.9212" y2="177.594" gradientUnits="userSpaceOnUse">
            <stop stop-color="#F4F5FA"/>
            <stop offset="0.1766" stop-color="#EFF1F3"/>
            <stop offset="0.6638" stop-color="#EFF1F3"/>
            <stop offset="1" stop-color="#EFF1F3"/>
        </linearGradient>
        <linearGradient id="paint10_linear_4420_29334" x1="50.283" y1="147.941" x2="198.6" y2="176.018" gradientUnits="userSpaceOnUse">
            <stop stop-color="#F4F5FA"/>
            <stop offset="0.1766" stop-color="#EFF1F3"/>
            <stop offset="0.6638" stop-color="#EFF1F3"/>
            <stop offset="1" stop-color="#EFF1F3"/>
        </linearGradient>
        <linearGradient id="paint11_linear_4420_29334" x1="31.5962" y1="163.984" x2="193.177" y2="192.848" gradientUnits="userSpaceOnUse">
            <stop stop-color="#F4F5FA"/>
            <stop offset="0.1766" stop-color="#EFF1F3"/>
            <stop offset="0.6638" stop-color="#EFF1F3"/>
            <stop offset="1" stop-color="#EFF1F3"/>
        </linearGradient>
        <linearGradient id="paint12_linear_4420_29334" x1="21.7156" y1="197.686" x2="110.572" y2="157.097" gradientUnits="userSpaceOnUse">
            <stop stop-color="#FCFE5D"/>
            <stop offset="0.240165" stop-color="#FDDC08"/>
            <stop offset="0.477179" stop-color="#FD9F83"/>
            <stop offset="0.695723" stop-color="#F97DD3"/>
            <stop offset="1" stop-color="#C566E4"/>
        </linearGradient>
        <linearGradient id="paint13_linear_4420_29334" x1="35.9545" y1="153.247" x2="230.886" y2="185.281" gradientUnits="userSpaceOnUse">
            <stop stop-color="#F4F5FA"/>
            <stop offset="0.1766" stop-color="#EFF1F3"/>
            <stop offset="0.6638" stop-color="#EFF1F3"/>
            <stop offset="1" stop-color="#EFF1F3"/>
        </linearGradient>
        <linearGradient id="paint14_linear_4420_29334" x1="113.024" y1="198.806" x2="125.594" y2="188.766" gradientUnits="userSpaceOnUse">
            <stop stop-color="#FCFE5D"/>
            <stop offset="0.240165" stop-color="#FDDC08"/>
            <stop offset="0.477179" stop-color="#FD9F83"/>
            <stop offset="0.695723" stop-color="#F97DD3"/>
            <stop offset="1" stop-color="#C566E4"/>
        </linearGradient>
        <linearGradient id="paint15_linear_4420_29334" x1="84.1302" y1="199.891" x2="128.798" y2="160.594" gradientUnits="userSpaceOnUse">
            <stop stop-color="#FCFE5D"/>
            <stop offset="0.240165" stop-color="#FDDC08"/>
            <stop offset="0.477179" stop-color="#FD9F83"/>
            <stop offset="0.695723" stop-color="#F97DD3"/>
            <stop offset="1" stop-color="#C566E4"/>
        </linearGradient>
        <linearGradient id="paint16_linear_4420_29334" x1="64.4445" y1="200.06" x2="139.623" y2="140.605" gradientUnits="userSpaceOnUse">
            <stop stop-color="#FCFE5D"/>
            <stop offset="0.240165" stop-color="#FDDC08"/>
            <stop offset="0.477179" stop-color="#FD9F83"/>
            <stop offset="0.695723" stop-color="#F97DD3"/>
            <stop offset="1" stop-color="#C566E4"/>
        </linearGradient>
        <linearGradient id="paint17_linear_4420_29334" x1="76.4588" y1="165.211" x2="114.226" y2="130.379" gradientUnits="userSpaceOnUse">
            <stop stop-color="#FCFE5D"/>
            <stop offset="0.240165" stop-color="#FDDC08"/>
            <stop offset="0.477179" stop-color="#FD9F83"/>
            <stop offset="0.695723" stop-color="#F97DD3"/>
            <stop offset="1" stop-color="#C566E4"/>
        </linearGradient>
        <linearGradient id="paint18_linear_4420_29334" x1="68.3167" y1="184.929" x2="138.017" y2="125.865" gradientUnits="userSpaceOnUse">
            <stop stop-color="#FCFE5D"/>
            <stop offset="0.240165" stop-color="#FDDC08"/>
            <stop offset="0.477179" stop-color="#FD9F83"/>
            <stop offset="0.695723" stop-color="#F97DD3"/>
            <stop offset="1" stop-color="#C566E4"/>
        </linearGradient>
        <linearGradient id="paint19_linear_4420_29334" x1="87.5043" y1="58.004" x2="129.033" y2="58.004" gradientUnits="userSpaceOnUse">
            <stop stop-color="#E7E8F5"/>
            <stop offset="0.6367" stop-color="#EFF1F3"/>
            <stop offset="1" stop-color="#B3B7CE"/>
        </linearGradient>
        <linearGradient id="paint20_linear_4420_29334" x1="33.7854" y1="63.7297" x2="58.3314" y2="10.8283" gradientUnits="userSpaceOnUse">
            <stop stop-color="#FCFE5D"/>
            <stop offset="0.240165" stop-color="#FDDC08"/>
            <stop offset="0.477179" stop-color="#FD9F83"/>
            <stop offset="0.695723" stop-color="#F97DD3"/>
            <stop offset="1" stop-color="#C566E4"/>
        </linearGradient>
        <linearGradient id="paint21_linear_4420_29334" x1="33.4036" y1="69.1605" x2="90.1482" y2="69.1605" gradientUnits="userSpaceOnUse">
            <stop stop-color="#E7E8F5"/>
            <stop offset="0.6367" stop-color="#EFF1F3"/>
            <stop offset="1" stop-color="#B3B7CE"/>
        </linearGradient>
        <linearGradient id="paint22_linear_4420_29334" x1="126.654" y1="44.3459" x2="129.056" y2="44.3459" gradientUnits="userSpaceOnUse">
            <stop stop-color="#E7E8F5"/>
            <stop offset="0.6367" stop-color="#EFF1F3"/>
            <stop offset="1" stop-color="#B3B7CE"/>
        </linearGradient>
        <linearGradient id="paint23_linear_4420_29334" x1="57.5706" y1="46.2728" x2="65.8334" y2="15.5752" gradientUnits="userSpaceOnUse">
            <stop stop-color="#FCFE5D"/>
            <stop offset="0.240165" stop-color="#FDDC08"/>
            <stop offset="0.477179" stop-color="#FD9F83"/>
            <stop offset="0.695723" stop-color="#F97DD3"/>
            <stop offset="1" stop-color="#C566E4"/>
        </linearGradient>
        <linearGradient id="paint24_linear_4420_29334" x1="30.3224" y1="60.9355" x2="68.0463" y2="60.9355" gradientUnits="userSpaceOnUse">
            <stop stop-color="#F4F5FA"/>
            <stop offset="0.1766" stop-color="#EBECF6"/>
            <stop offset="0.6638" stop-color="#D8D9EE"/>
            <stop offset="1" stop-color="#D1D2EB"/>
        </linearGradient>
        <linearGradient id="paint25_linear_4420_29334" x1="30.3234" y1="72.9071" x2="68.0473" y2="72.9071" gradientUnits="userSpaceOnUse">
            <stop stop-color="#F4F5FA"/>
            <stop offset="0.1766" stop-color="#EBECF6"/>
            <stop offset="0.6638" stop-color="#D8D9EE"/>
            <stop offset="1" stop-color="#D1D2EB"/>
        </linearGradient>
        <linearGradient id="paint26_linear_4420_29334" x1="30.3249" y1="48.7994" x2="68.0487" y2="48.7994" gradientUnits="userSpaceOnUse">
            <stop stop-color="#F4F5FA"/>
            <stop offset="0.1766" stop-color="#EBECF6"/>
            <stop offset="0.6638" stop-color="#D8D9EE"/>
            <stop offset="1" stop-color="#D1D2EB"/>
        </linearGradient>
        <linearGradient id="paint27_linear_4420_29334" x1="30.3242" y1="36.9043" x2="68.0479" y2="36.9043" gradientUnits="userSpaceOnUse">
            <stop stop-color="#F4F5FA"/>
            <stop offset="0.1766" stop-color="#EBECF6"/>
            <stop offset="0.6638" stop-color="#D8D9EE"/>
            <stop offset="1" stop-color="#D1D2EB"/>
        </linearGradient>
        <linearGradient id="paint28_linear_4420_29334" x1="25.8983" y1="68.6135" x2="70.2718" y2="33.1765" gradientUnits="userSpaceOnUse">
            <stop stop-color="#FCFE5D"/>
            <stop offset="0.240165" stop-color="#FDDC08"/>
            <stop offset="0.477179" stop-color="#FD9F83"/>
            <stop offset="0.695723" stop-color="#F97DD3"/>
            <stop offset="1" stop-color="#C566E4"/>
        </linearGradient>
        <linearGradient id="paint29_linear_4420_29334" x1="43.5742" y1="175.723" x2="71.0472" y2="65.8409" gradientUnits="userSpaceOnUse">
            <stop stop-color="#0073FF"/>
            <stop offset="1" stop-color="#00C2FF"/>
        </linearGradient>
        <linearGradient id="paint30_linear_4420_29334" x1="138.245" y1="50.2547" x2="144.641" y2="41.3789" gradientUnits="userSpaceOnUse">
            <stop stop-color="#0073FF"/>
            <stop offset="1" stop-color="#00C2FF"/>
        </linearGradient>
        <linearGradient id="paint31_linear_4420_29334" x1="138.252" y1="59.5102" x2="145.328" y2="50.3985" gradientUnits="userSpaceOnUse">
            <stop stop-color="#0073FF"/>
            <stop offset="1" stop-color="#00C2FF"/>
        </linearGradient>
        <linearGradient id="paint32_linear_4420_29334" x1="145.163" y1="49.5273" x2="150.571" y2="40.259" gradientUnits="userSpaceOnUse">
            <stop stop-color="#0073FF"/>
            <stop offset="1" stop-color="#00C2FF"/>
        </linearGradient>
        <linearGradient id="paint33_linear_4420_29334" x1="145.129" y1="59.5753" x2="151.982" y2="49.5628" gradientUnits="userSpaceOnUse">
            <stop stop-color="#0073FF"/>
            <stop offset="1" stop-color="#00C2FF"/>
        </linearGradient>
        <linearGradient id="paint34_linear_4420_29334" x1="147.543" y1="55.9954" x2="155.9" y2="47.748" gradientUnits="userSpaceOnUse">
            <stop stop-color="#0073FF"/>
            <stop offset="1" stop-color="#00C2FF"/>
        </linearGradient>
        <linearGradient id="paint35_linear_4420_29334" x1="0.91091" y1="136.769" x2="5.58893" y2="130.277" gradientUnits="userSpaceOnUse">
            <stop stop-color="#0073FF"/>
            <stop offset="1" stop-color="#00C2FF"/>
        </linearGradient>
        <linearGradient id="paint36_linear_4420_29334" x1="0.915557" y1="143.537" x2="6.09176" y2="136.872" gradientUnits="userSpaceOnUse">
            <stop stop-color="#0073FF"/>
            <stop offset="1" stop-color="#00C2FF"/>
        </linearGradient>
        <linearGradient id="paint37_linear_4420_29334" x1="5.96998" y1="136.237" x2="9.92601" y2="129.458" gradientUnits="userSpaceOnUse">
            <stop stop-color="#0073FF"/>
            <stop offset="1" stop-color="#00C2FF"/>
        </linearGradient>
        <linearGradient id="paint38_linear_4420_29334" x1="5.94803" y1="143.584" x2="10.9604" y2="136.26" gradientUnits="userSpaceOnUse">
            <stop stop-color="#0073FF"/>
            <stop offset="1" stop-color="#00C2FF"/>
        </linearGradient>
        <linearGradient id="paint39_linear_4420_29334" x1="7.70923" y1="140.969" x2="13.8217" y2="134.937" gradientUnits="userSpaceOnUse">
            <stop stop-color="#0073FF"/>
            <stop offset="1" stop-color="#00C2FF"/>
        </linearGradient>
        <linearGradient id="paint40_linear_4420_29334" x1="1.60917" y1="96.9584" x2="9.87315" y2="85.4896" gradientUnits="userSpaceOnUse">
            <stop stop-color="#0073FF"/>
            <stop offset="1" stop-color="#00C2FF"/>
        </linearGradient>
        <linearGradient id="paint41_linear_4420_29334" x1="1.61738" y1="108.916" x2="10.7614" y2="97.1421" gradientUnits="userSpaceOnUse">
            <stop stop-color="#0073FF"/>
            <stop offset="1" stop-color="#00C2FF"/>
        </linearGradient>
        <linearGradient id="paint42_linear_4420_29334" x1="10.5457" y1="96.0185" x2="17.5342" y2="84.0425" gradientUnits="userSpaceOnUse">
            <stop stop-color="#0073FF"/>
            <stop offset="1" stop-color="#00C2FF"/>
        </linearGradient>
        <linearGradient id="paint43_linear_4420_29334" x1="10.5074" y1="109" x2="19.3621" y2="96.0622" gradientUnits="userSpaceOnUse">
            <stop stop-color="#0073FF"/>
            <stop offset="1" stop-color="#00C2FF"/>
        </linearGradient>
        <linearGradient id="paint44_linear_4420_29334" x1="13.6216" y1="104.378" x2="24.4196" y2="93.7213" gradientUnits="userSpaceOnUse">
            <stop stop-color="#0073FF"/>
            <stop offset="1" stop-color="#00C2FF"/>
        </linearGradient>
        <linearGradient id="paint45_linear_4420_29334" x1="155.804" y1="67.4543" x2="159.589" y2="61.3558" gradientUnits="userSpaceOnUse">
            <stop stop-color="#0073FF"/>
            <stop offset="1" stop-color="#00C2FF"/>
        </linearGradient>
        <linearGradient id="paint46_linear_4420_29334" x1="155.601" y1="72.4363" x2="161.007" y2="66.5905" gradientUnits="userSpaceOnUse">
            <stop stop-color="#0073FF"/>
            <stop offset="1" stop-color="#00C2FF"/>
        </linearGradient>
        <linearGradient id="paint47_linear_4420_29334" x1="161.572" y1="67.5126" x2="165.534" y2="61.7046" gradientUnits="userSpaceOnUse">
            <stop stop-color="#0073FF"/>
            <stop offset="1" stop-color="#00C2FF"/>
        </linearGradient>
        <linearGradient id="paint48_linear_4420_29334" x1="156.97" y1="73.893" x2="161.216" y2="67.2161" gradientUnits="userSpaceOnUse">
            <stop stop-color="#0073FF"/>
            <stop offset="1" stop-color="#00C2FF"/>
        </linearGradient>
        <linearGradient id="paint49_linear_4420_29334" x1="161.568" y1="73.8715" x2="166.461" y2="67.8096" gradientUnits="userSpaceOnUse">
            <stop stop-color="#0073FF"/>
            <stop offset="1" stop-color="#00C2FF"/>
        </linearGradient>
        <linearGradient id="paint50_linear_4420_29334" x1="99.962" y1="131.114" x2="42.4624" y2="212.724" gradientUnits="userSpaceOnUse">
            <stop offset="0.114583" stop-color="#00C2FF"/>
            <stop offset="0.520833" stop-color="#0073FF"/>
            <stop offset="0.911458" stop-color="#0073FF" stop-opacity="0.01"/>
        </linearGradient>
        <linearGradient id="paint51_linear_4420_29334" x1="85.8017" y1="136.31" x2="100.69" y2="112.174" gradientUnits="userSpaceOnUse">
            <stop stop-color="#0073FF"/>
            <stop offset="1" stop-color="#00C2FF"/>
        </linearGradient>
        <linearGradient id="paint52_linear_4420_29334" x1="75" y1="151" x2="90.4638" y2="109.561" gradientUnits="userSpaceOnUse">
            <stop stop-color="#0073FF"/>
            <stop offset="1" stop-color="#00C2FF"/>
        </linearGradient>
        <linearGradient id="paint53_linear_4420_29334" x1="141.926" y1="128.797" x2="155.058" y2="85.6637" gradientUnits="userSpaceOnUse">
            <stop stop-color="#0073FF"/>
            <stop offset="1" stop-color="#00C2FF"/>
        </linearGradient>
    </defs>
</svg>
