<svg width="102" height="34" viewBox="0 0 102 34" fill="none" xmlns="http://www.w3.org/2000/svg">
<g id="premium gold">
<g id="logo">
<path d="M8.33315 12.8258L9.58871 13.7304C9.52074 13.6804 9.43993 13.6498 9.35529 13.6422C9.23482 13.6319 9.1142 13.6604 9.01168 13.7233L7.75612 12.8187C7.85851 12.7554 7.97911 12.7264 8.09973 12.7362C8.18434 12.7449 8.26499 12.7759 8.33315 12.8258Z" fill="#856400"/>
<path d="M7.75612 12.8187L9.01168 13.7233C8.99 13.7362 8.96913 13.7504 8.94929 13.7659L7.69372 12.8613C7.71357 12.8458 7.73445 12.8316 7.75612 12.8187Z" fill="#8A6800"/>
<path d="M7.69372 12.8613L8.94929 13.7659L8.9015 13.8058L7.6474 12.9012C7.66181 12.8867 7.67725 12.8734 7.69372 12.8613Z" fill="#8F6C00"/>
<path d="M7.6474 12.9012L8.9015 13.8058C8.8882 13.8184 8.87562 13.8317 8.86382 13.8456L7.60826 12.9396C7.62058 12.9261 7.63363 12.9132 7.6474 12.9012Z" fill="#946F00"/>
<path d="M7.60826 12.9396L8.86382 13.8456L8.83044 13.8838L7.57632 12.9849C7.58614 12.971 7.5968 12.9577 7.60822 12.945" fill="#997300"/>
<path d="M7.57632 12.9849L8.83045 13.8896L8.8029 13.9295L7.54734 13.0248C7.55618 13.011 7.56584 12.9976 7.57632 12.9849Z" fill="#9E7700"/>
<path d="M7.54736 13.019L8.80291 13.9237C8.79421 13.9379 8.78551 13.9521 8.77826 13.9664L7.5227 13.0603C7.5314 13.0461 7.53866 13.0318 7.54736 13.019Z" fill="#A37B00"/>
<path d="M7.5227 13.0603L8.77826 13.9664C8.77016 13.9806 8.76285 13.9956 8.75647 14.0107L7.50091 13.1046L7.5227 13.0603Z" fill="#A87F00"/>
<path d="M7.50091 13.1046L8.75647 14.0107C8.74932 14.027 8.74305 14.0435 8.73764 14.0604L7.48209 13.1543C7.48209 13.1373 7.49366 13.1217 7.50091 13.1046Z" fill="#AD8300"/>
<path d="M7.48209 13.1543L8.73764 14.0604C8.73764 14.0803 8.72602 14.1002 8.72022 14.1201L7.46612 13.2141C7.46612 13.1942 7.47629 13.1742 7.48209 13.1543Z" fill="#B38600"/>
<path d="M7.46612 13.2141L8.72022 14.1201C8.71523 14.1469 8.71192 14.174 8.71014 14.2012L7.45459 13.2952C7.45632 13.2679 7.46012 13.2408 7.46612 13.2141Z" fill="#B88A00"/>
<path d="M7.45459 13.2952L8.71014 14.2012C8.70582 14.2381 8.70578 14.2753 8.7101 14.3121L7.45744 13.4118C7.45384 13.3744 7.45384 13.3368 7.45744 13.2994" fill="#BD8E00"/>
<path d="M12.1477 15.2694L13.4032 16.1755L13.3684 16.211L12.1129 15.305C12.1252 15.2938 12.1368 15.2819 12.1477 15.2694Z" fill="#946F00"/>
<path d="M12.1129 15.305L13.3684 16.211C13.3537 16.2246 13.3382 16.2376 13.322 16.2496L12.0665 15.3449C12.0824 15.3321 12.0984 15.3192 12.1129 15.305Z" fill="#8F6C00"/>
<path d="M12.0665 15.3449L13.322 16.2496C13.3033 16.2654 13.2829 16.2792 13.2611 16.2908L12.007 15.3862L12.0665 15.3449Z" fill="#8A6800"/>
<path d="M12.007 15.3862L13.2611 16.2908C13.1589 16.3531 13.039 16.3811 12.9191 16.3716C12.8347 16.3628 12.7542 16.3324 12.6856 16.2834L11.4301 15.3773C11.4984 15.4267 11.579 15.4571 11.6635 15.4655C11.7838 15.4756 11.9041 15.448 12.007 15.3862Z" fill="#856400"/>
<path d="M17.0162 9.94815L18.2718 10.8528L13.4047 16.1753L12.1491 15.2692L17.0162 9.94815Z" fill="#A27A00"/>
<path d="M7.45743 13.4075L8.71298 14.3136L9.7496 22.3727L8.49405 21.4681L7.45743 13.4075Z" fill="#CA9800"/>
<path d="M8.49424 21.4668L9.7496 22.3727C9.75481 22.4177 9.76673 22.4619 9.7846 22.5037L8.52903 21.5977C8.51117 21.5559 8.49946 21.5118 8.49424 21.4668Z" fill="#BD8E00"/>
<path d="M8.52903 21.5977L9.7846 22.5037C9.79473 22.5276 9.80635 22.5511 9.8194 22.5736L8.56528 21.6619C8.55092 21.6398 8.53878 21.6165 8.52904 21.5922" fill="#B88A00"/>
<path d="M8.56528 21.6619L9.81943 22.5679C9.83007 22.5842 9.84168 22.5999 9.85422 22.6149L8.59867 21.7088C8.58625 21.6941 8.57506 21.6784 8.56528 21.6619Z" fill="#B38600"/>
<path d="M8.59863 21.7142L9.85419 22.6202C9.86433 22.633 9.87593 22.6444 9.88753 22.6572L8.63197 21.7512C8.6201 21.7395 8.60897 21.7272 8.59863 21.7142Z" fill="#AD8300"/>
<path d="M8.63197 21.7512L9.88753 22.6572L9.9223 22.687L8.66674 21.7824L8.63197 21.7512Z" fill="#A87F00"/>
<path d="M8.66674 21.7824L9.9223 22.687L9.94114 22.7015L8.68559 21.804L8.66674 21.7898" fill="#A37B00"/>
<path d="M17.8571 9.82298L19.1127 10.7276C19.0314 10.6698 18.9357 10.6345 18.8358 10.6252C18.6957 10.6129 18.5554 10.6453 18.4356 10.7176L17.1815 9.8116C17.3007 9.7392 17.4406 9.70675 17.5802 9.71914C17.6804 9.7287 17.776 9.76457 17.8571 9.82298Z" fill="#856400"/>
<path d="M17.1815 9.8116L18.4356 10.7176C18.4124 10.7319 18.3892 10.7475 18.366 10.7646L17.1104 9.85997C17.1328 9.8421 17.1566 9.82592 17.1815 9.8116Z" fill="#8A6800"/>
<path d="M17.1105 9.8556L18.366 10.7602C18.3472 10.7744 18.3298 10.7901 18.3124 10.8057L17.0568 9.90111C17.0742 9.88404 17.0931 9.86982 17.1105 9.8556Z" fill="#8F6C00"/>
<path d="M17.0568 9.90548L18.3124 10.8101L18.2718 10.8528L17.0162 9.94673L17.0568 9.90548Z" fill="#946F00"/>
<path d="M21.3454 16.3432L22.601 17.2492C22.5109 17.2917 22.4106 17.3094 22.311 17.3004C22.225 17.2919 22.1429 17.261 22.0733 17.2108L20.8191 16.3062C20.8883 16.3562 20.97 16.3866 21.0555 16.3944C21.1551 16.4035 21.2553 16.3858 21.3454 16.3432Z" fill="#856400"/>
<path d="M24.5626 2.05404L25.8181 2.96009C26.0124 3.10233 26.2038 3.24456 26.3981 3.3996L25.144 2.49355C24.9506 2.33994 24.7573 2.19344 24.564 2.05404" fill="#A37B00"/>
<path d="M25.1411 2.49357L26.3952 3.39962C26.815 3.73746 27.2166 4.09637 27.5986 4.47494L26.343 3.56889C25.9467 3.17916 25.5461 2.82072 25.1411 2.49357Z" fill="#A87F00"/>
<path d="M26.343 3.56889L27.5986 4.47494C28.1305 5.00058 28.6329 5.55429 29.1035 6.13349L27.8479 5.22885C27.3774 4.64917 26.875 4.09499 26.343 3.56889Z" fill="#AD8300"/>
<path d="M27.8479 5.22885L29.1035 6.13349C29.4785 6.59434 29.8511 7.08585 30.2213 7.60834L28.9657 6.70229C28.5975 6.1798 28.2249 5.68875 27.8479 5.22885Z" fill="#B38600"/>
<path d="M25.2498 14.5153L26.5053 15.4199L22.601 17.2492L21.3468 16.343L25.2498 14.5153Z" fill="#886700"/>
<path d="M25.7702 14.5503L27.0258 15.4563C26.958 15.4068 26.8778 15.3763 26.7938 15.3681C26.6939 15.36 26.5937 15.3787 26.5038 15.4222L25.2497 14.5161C25.3395 14.4723 25.4398 14.4536 25.5397 14.4621C25.6237 14.4703 25.7039 14.5008 25.7717 14.5503" fill="#856400"/>
<path d="M13.0219 33.0504L14.2775 33.955C12.4739 33.7729 10.7761 33.1016 9.15953 31.9338L7.90397 31.0277C9.52199 32.1955 11.2183 32.8669 13.0219 33.0504Z" fill="#856400"/>
<path d="M28.9657 6.70229C34.7912 14.9335 33.3791 21.7582 24.6858 28.4888C20.3363 31.8527 16.5001 33.386 13.0219 33.0518C9.51765 32.6962 6.41356 30.4915 3.51389 26.3951C0.614214 22.2987 -0.492017 18.5479 0.199554 14.9848C0.924472 11.3606 3.44864 7.97255 7.79525 4.61006C12.1419 1.24758 15.9941 -0.297115 19.4795 0.0470981C22.9649 0.391312 26.0603 2.60159 28.9657 6.70229ZM25.8965 15.2366C26.0965 14.8696 25.8733 14.4998 25.5383 14.4657C25.4385 14.4572 25.3381 14.4759 25.2484 14.5197L21.344 16.3489C21.2539 16.3915 21.1536 16.4092 21.054 16.4001C20.9684 16.3921 20.8865 16.3614 20.8173 16.3113C20.7481 16.2612 20.6941 16.1935 20.6611 16.1156L18.034 10.0521C17.9952 9.96166 17.9321 9.88332 17.8514 9.82544C17.7706 9.76756 17.6754 9.73232 17.5758 9.72349C17.4702 9.71504 17.364 9.73126 17.266 9.77082C17.168 9.81037 17.0809 9.87214 17.0119 9.95106L12.1433 15.2736C12.084 15.3413 12.0092 15.3943 11.9251 15.4284C11.8409 15.4625 11.7498 15.4767 11.6591 15.4699C11.5652 15.4604 11.4764 15.4237 11.4039 15.3646L8.35923 12.8484C8.28595 12.7873 8.19542 12.7496 8.09972 12.7403C8.01063 12.7363 7.92171 12.7513 7.83908 12.7842C7.75645 12.8171 7.68206 12.8672 7.62103 12.931C7.56001 12.9947 7.51379 13.0708 7.48555 13.1537C7.4573 13.2367 7.44772 13.3248 7.45744 13.4118L8.49407 21.4708C8.50473 21.5795 8.55426 21.681 8.63387 21.7572C8.71348 21.8335 8.81803 21.8797 8.92902 21.8876L21.228 23.1051C21.3445 23.1126 21.4607 23.0865 21.5623 23.0298C21.6638 22.9732 21.7462 22.8886 21.7992 22.7865L25.9037 15.2352" fill="url(#paint0_linear_2513_3945)"/>
<path d="M28.9657 6.70229L30.2213 7.60834C30.518 8.02746 30.7964 8.44403 31.0564 8.85841L29.8023 7.95236C29.5433 7.53988 29.2644 7.12331 28.9657 6.70229Z" fill="#B38600"/>
<path d="M29.8023 7.95236L31.0564 8.85841C31.6718 9.8232 32.2052 10.8359 32.6512 11.8865L31.3957 10.9804C30.9491 9.93007 30.4157 8.91729 29.8009 7.95221" fill="#B88A00"/>
<path d="M31.3913 10.9808L32.6469 11.8868C33.4776 13.8782 33.8314 15.7927 33.7111 17.6517L32.4555 16.7456C32.5773 14.8866 32.2221 12.9721 31.3913 10.9808Z" fill="#BD8E00"/>
<path d="M32.4555 16.7456L33.7111 17.6517C33.675 18.194 33.5989 18.7332 33.4834 19.2647L32.2278 18.3587C32.3433 17.8271 32.4195 17.288 32.4555 16.7456Z" fill="#B88A00"/>
<path d="M32.2278 18.3587L33.4834 19.2647C33.397 19.6588 33.2896 20.048 33.1616 20.431L31.906 19.5278C32.034 19.1448 32.1415 18.7555 32.2279 18.3614" fill="#B38600"/>
<path d="M31.906 19.5278L33.1615 20.4338C33.0455 20.7808 32.9122 21.1265 32.7614 21.4707L31.5073 20.5647C31.6523 20.2204 31.7973 19.8748 31.906 19.5278Z" fill="#AD8300"/>
<path d="M31.5073 20.5616L32.7614 21.4677C32.6165 21.8019 32.4526 22.1333 32.2729 22.4633L31.0187 21.5573C31.1971 21.2259 31.3609 20.8944 31.5073 20.5616Z" fill="#A87F00"/>
<path d="M31.0216 21.559L32.2757 22.465C32.0911 22.8054 31.8896 23.1449 31.6711 23.4834L30.4156 22.5774C30.6345 22.2389 30.836 21.9003 31.0216 21.559Z" fill="#A37B00"/>
<path d="M30.4127 22.5771L31.6682 23.4831C31.4285 23.8501 31.169 24.2161 30.8897 24.5812L29.6356 23.6766C29.9149 23.3115 30.1739 22.945 30.4127 22.5771Z" fill="#9E7700"/>
<path d="M29.6356 23.6766L30.8897 24.5812C30.5697 25.0013 30.2213 25.4194 29.8444 25.8357L28.5888 24.9296C28.9658 24.5133 29.3147 24.0957 29.6356 23.6766Z" fill="#997300"/>
<path d="M28.5888 24.9324L29.8444 25.8385C29.3891 26.342 28.8943 26.8441 28.3598 27.3448L27.1042 26.4401C27.6397 25.9385 28.1345 25.4359 28.5888 24.9324Z" fill="#946F00"/>
<path d="M27.107 26.4374L28.3626 27.342C27.6319 28.0276 26.8258 28.7113 25.9443 29.3931L25.9269 29.4059L24.6713 28.5012L24.6887 28.487C25.5702 27.8052 26.3763 27.122 27.107 26.4374Z" fill="#8F6C00"/>
<path d="M24.6685 28.5014L25.924 29.406C24.925 30.1841 23.8798 30.9032 22.7938 31.5595L21.5383 30.6534C22.6242 29.9976 23.6695 29.279 24.6685 28.5014Z" fill="#8A6800"/>
<path d="M21.5383 30.6534L22.7938 31.5595C19.7086 33.4086 16.8915 34.2067 14.2775 33.955L13.0219 33.0504C15.6316 33.3007 18.453 32.4968 21.5383 30.6534Z" fill="#856400"/>
</g>
<g id="premium">
<path d="M43.8552 13.8382C43.3526 13.8407 42.8533 13.7559 42.3793 13.5874C41.9203 13.4209 41.507 13.147 41.1733 12.7884C40.8071 12.3888 40.5296 11.915 40.3595 11.3987C40.1469 10.7448 40.0457 10.0593 40.0601 9.37138V9.12062C40.0447 8.45591 40.1476 7.79381 40.3637 7.16561C40.5452 6.6618 40.833 6.2036 41.207 5.82259C41.5486 5.4745 41.9617 5.20613 42.4173 5.03634C42.8822 4.86625 43.3732 4.77995 43.8678 4.78135C44.3198 4.77629 44.7702 4.83786 45.2045 4.9641C45.5973 5.0731 45.9653 5.25783 46.2882 5.50809C46.602 5.75229 46.8607 6.06085 47.0472 6.41335C47.2565 6.80788 47.3814 7.24221 47.4141 7.68836H45.8117C45.7541 7.21847 45.5165 6.7899 45.1497 6.4941C44.7785 6.23635 44.3352 6.10527 43.8847 6.1201C43.5957 6.11717 43.3091 6.17207 43.0413 6.2816C42.773 6.39636 42.5348 6.57242 42.3456 6.79586C42.1195 7.06744 41.9541 7.38488 41.8606 7.72662C41.7291 8.18197 41.668 8.65501 41.6793 9.12913V9.37989C41.6673 9.87837 41.7313 10.3757 41.8691 10.8546C41.9748 11.2059 42.1466 11.5335 42.3751 11.8194C42.5646 12.0532 42.8078 12.237 43.0835 12.3549C43.3323 12.4587 43.5985 12.5135 43.8678 12.5164C44.3538 12.544 44.8332 12.393 45.2172 12.0914C45.5525 11.7987 45.765 11.3885 45.8117 10.9439H47.4141C47.3742 11.4071 47.2438 11.8578 47.0304 12.2699C46.8412 12.622 46.5778 12.9281 46.2587 13.1667C45.9326 13.405 45.565 13.5795 45.175 13.6809C44.7436 13.7902 44.3 13.843 43.8552 13.8382Z" fill="#363845"/>
<path d="M50.9519 13.7617C50.6364 13.7673 50.3215 13.7301 50.0158 13.6512C49.7754 13.584 49.557 13.4534 49.3833 13.2729C49.2041 13.0792 49.0777 12.842 49.0164 12.5844C48.9305 12.2443 48.8908 11.894 48.8984 11.5431V4.91735H50.2646V11.4411C50.2619 11.6222 50.2774 11.803 50.311 11.9809C50.3288 12.1056 50.3798 12.2231 50.4586 12.3209C50.536 12.4089 50.637 12.4724 50.7495 12.5037C50.8969 12.5419 51.0486 12.5605 51.2007 12.5589H51.635V13.7489L51.4832 13.7702H50.9519V13.7617Z" fill="#363845"/>
<path d="M53.7055 6.26034C53.589 6.26556 53.4726 6.24718 53.3632 6.20631C53.2538 6.16543 53.1537 6.10287 53.0688 6.02234C52.9905 5.94336 52.9292 5.84905 52.8886 5.74524C52.848 5.64144 52.8289 5.53036 52.8326 5.41884C52.8293 5.30799 52.8485 5.19763 52.8891 5.09456C52.9297 4.9915 52.9909 4.8979 53.0688 4.81957C53.1527 4.73759 53.2527 4.67408 53.3623 4.63311C53.4719 4.59214 53.5888 4.57459 53.7055 4.58157C53.8215 4.57519 53.9376 4.59304 54.0464 4.63399C54.1552 4.67495 54.2545 4.73813 54.338 4.81957C54.4109 4.89859 54.4672 4.99168 54.5034 5.09321C54.5396 5.19474 54.5551 5.30262 54.5488 5.41033C54.5527 5.52226 54.5334 5.63376 54.492 5.7377C54.4506 5.84163 54.3881 5.93568 54.3085 6.01383C54.2292 6.09312 54.135 6.15574 54.0315 6.19806C53.928 6.24037 53.8172 6.26155 53.7055 6.26034ZM53.0224 13.6979V7.05084H54.3886V13.6979H53.0224Z" fill="#363845"/>
<path d="M58.9764 13.8382C58.5555 13.8435 58.1371 13.773 57.7409 13.6299C57.3683 13.4976 57.0307 13.281 56.7542 12.9966C56.4653 12.6906 56.2427 12.3273 56.1006 11.9299C55.935 11.4506 55.855 10.9456 55.8644 10.4381V10.1874C55.8563 9.70311 55.9437 9.22203 56.1216 8.77211C56.2739 8.38634 56.5052 8.03732 56.8005 7.74787C57.0836 7.47479 57.4195 7.26353 57.7873 7.12735C58.1675 6.98418 58.5705 6.91217 58.9764 6.91485C59.363 6.90724 59.748 6.96618 60.1149 7.08912C60.4239 7.1953 60.7101 7.35973 60.9583 7.57363C61.1921 7.77499 61.3866 8.01858 61.5317 8.29188C61.6762 8.57146 61.7745 8.87291 61.8227 9.18438H60.4522C60.3554 8.89311 60.1889 8.63037 59.9673 8.41938C59.6916 8.19941 59.344 8.09172 58.9933 8.11762C58.772 8.11706 58.5528 8.16037 58.3481 8.24511C58.1403 8.32562 57.953 8.45196 57.7999 8.61487C57.6291 8.79644 57.5009 9.01428 57.4246 9.25237C57.3294 9.55455 57.2838 9.87039 57.2897 10.1874V10.4381C57.2836 10.7761 57.3291 11.1129 57.4246 11.4369C57.5015 11.6869 57.6262 11.9193 57.7915 12.1211C57.9412 12.2901 58.1273 12.4224 58.3354 12.5079C58.5443 12.5933 58.7678 12.6366 58.9933 12.6354C59.325 12.6446 59.6506 12.5447 59.9209 12.3507C60.1784 12.1558 60.365 11.881 60.4522 11.5686H61.8564C61.8033 11.9017 61.6919 12.2226 61.5275 12.5164C61.3692 12.7917 61.1602 13.034 60.9119 13.2304C60.6586 13.4285 60.3733 13.5809 60.0685 13.6809C59.7154 13.7929 59.3465 13.8461 58.9764 13.8382Z" fill="#363845"/>
<path d="M63.1468 13.6979V4.91735H64.5172V9.94938L67.2539 7.05085H68.8858L66.284 9.80912L69.1346 13.6979H67.4479L65.31 10.7781L64.513 11.5814V13.7064L63.1468 13.6979Z" fill="#363845"/>
</g>
<g id="click">
<path d="M40.0586 29.2098V18.657H44.3217C44.9614 18.6443 45.5995 18.7274 46.215 18.9035C46.7027 19.0457 47.1562 19.2873 47.5475 19.6132C47.8998 19.917 48.1696 20.306 48.3319 20.7437C48.5071 21.2298 48.5928 21.744 48.5849 22.261C48.5923 22.7766 48.5066 23.2893 48.3319 23.774C48.1706 24.2123 47.9006 24.6015 47.5475 24.9045C47.1572 25.232 46.7034 25.4738 46.215 25.6143C45.5998 25.7919 44.9617 25.8764 44.3217 25.865H42.7531V29.2098H40.0586ZM42.7531 23.6338H44.0181C44.5266 23.6827 45.0368 23.5601 45.4687 23.2853C45.6109 23.1576 45.7228 22.9991 45.7958 22.8218C45.8688 22.6444 45.9011 22.4527 45.8904 22.261C45.9034 22.0691 45.872 21.8767 45.7989 21.6989C45.7257 21.5212 45.6127 21.363 45.4687 21.2367C45.0368 20.9619 44.5266 20.8393 44.0181 20.8882H42.7531V23.6338Z" fill="#FFC000"/>
<path d="M49.7824 29.2098V21.2197H51.8908V22.3078C51.9608 22.1522 52.0548 22.0088 52.1691 21.8827C52.295 21.7271 52.4363 21.5847 52.5907 21.4577C52.7662 21.3226 52.961 21.2151 53.1684 21.139C53.3914 21.0576 53.6271 21.0173 53.8642 21.02C54.0054 21.0156 54.1467 21.0256 54.2859 21.0497L54.5515 21.1092V23.1152C54.4423 23.0662 54.3276 23.0305 54.21 23.009C54.0031 22.9676 53.7926 22.9477 53.5817 22.9495C53.3463 22.9432 53.1121 22.9866 52.8944 23.077C52.716 23.1531 52.5573 23.2694 52.4305 23.417C52.3056 23.5642 52.2136 23.7366 52.1606 23.9228C52.099 24.1252 52.0677 24.3358 52.0679 24.5475V29.2226L49.7824 29.2098Z" fill="#FFC000"/>
<path d="M59.2068 29.4138C58.6559 29.4171 58.108 29.3325 57.5834 29.163C57.0984 29.0072 56.6525 28.7477 56.2762 28.4023C55.8977 28.0464 55.6012 27.6111 55.4075 27.1273C55.1873 26.5471 55.0813 25.9293 55.0955 25.3083V25.0065C55.0828 24.414 55.1859 23.8248 55.3991 23.2725C55.5892 22.8042 55.8768 22.3824 56.2425 22.0357C56.6061 21.6979 57.0375 21.4428 57.5075 21.2877C58.0119 21.1193 58.5405 21.0361 59.0719 21.0412C60.3875 21.0412 61.3714 21.3784 62.0236 22.0527C62.6758 22.7271 63.0075 23.7187 63.0188 25.0277V25.8098H57.4527C57.4546 26.0817 57.5105 26.3505 57.6171 26.6003C57.7091 26.8034 57.8411 26.9856 58.0051 27.1358C58.1665 27.2781 58.3563 27.3839 58.5617 27.446C58.7688 27.5126 58.9852 27.5456 59.2026 27.5438C59.5638 27.5621 59.924 27.4921 60.2526 27.3398C60.4804 27.2271 60.6569 27.031 60.7459 26.7915H62.8543C62.7854 27.1943 62.6424 27.5806 62.4326 27.9305C62.2475 28.2647 61.9947 28.5557 61.6905 28.7848C61.3602 29.0155 60.9897 29.1814 60.5984 29.2736C60.142 29.3779 59.6746 29.425 59.2068 29.4138ZM57.4737 24.3137H60.7628C60.7713 24.0763 60.7281 23.8398 60.6363 23.621C60.5565 23.4522 60.4362 23.3062 60.2863 23.196C60.1292 23.0811 59.9494 23.0014 59.7592 22.9622C59.5545 22.9156 59.3451 22.8928 59.1351 22.8942C58.9306 22.8942 58.7268 22.9184 58.5279 22.9665C58.3391 23.0151 58.1616 23.1003 58.0051 23.2173C57.8492 23.3279 57.7208 23.4734 57.6298 23.6423C57.5275 23.8466 57.474 24.0722 57.4737 24.301V24.3137Z" fill="#FFC000"/>
<path d="M64.2205 29.2098V21.2197H66.3879V22.3673C66.5906 21.992 66.8799 21.6713 67.2313 21.4323C67.6451 21.1423 68.1401 20.9933 68.6439 21.0072C69.1541 20.9771 69.6618 21.0999 70.1029 21.36C70.4526 21.6007 70.717 21.9476 70.8577 22.3502C71.0737 21.9518 71.3929 21.6199 71.7812 21.3897C72.2321 21.1244 72.7478 20.9919 73.2697 21.0072C73.6292 20.9814 73.9901 21.0324 74.3287 21.1569C74.6674 21.2815 74.9761 21.4767 75.2347 21.7298C75.7228 22.3485 75.9608 23.1303 75.9009 23.9185V29.2098H73.5817V24.505C73.6182 24.0866 73.527 23.667 73.3203 23.3023C73.2172 23.1809 73.087 23.0861 72.9403 23.0255C72.7937 22.9649 72.6348 22.9403 72.4769 22.9538C72.304 22.952 72.1327 22.9882 71.9751 23.06C71.8133 23.1303 71.6692 23.2363 71.5535 23.3703C71.4347 23.5146 71.3445 23.6805 71.2878 23.859C71.2193 24.0672 71.1865 24.2857 71.1908 24.505V29.2098H68.9011V24.505C68.9398 24.0865 68.8484 23.6662 68.6397 23.3023C68.5375 23.1798 68.4074 23.0842 68.2605 23.0235C68.1137 22.9628 67.9544 22.9389 67.7963 22.9538C67.6233 22.9511 67.4519 22.9874 67.2945 23.06C67.1314 23.128 66.9868 23.2344 66.8729 23.3703C66.7543 23.5154 66.6628 23.681 66.603 23.859C66.5365 24.0677 66.5037 24.2858 66.506 24.505V29.2098H64.2205Z" fill="#FFC000"/>
<path d="M78.6123 20.4717C78.2491 20.4952 77.8914 20.373 77.6172 20.1317C77.5026 20.0228 77.4119 19.8908 77.3509 19.7444C77.2899 19.5981 77.26 19.4405 77.263 19.2817C77.26 19.123 77.2899 18.9654 77.3509 18.819C77.4119 18.6726 77.5026 18.5407 77.6172 18.4317C77.8914 18.1904 78.2491 18.0682 78.6123 18.0917C78.9753 18.0701 79.3324 18.1921 79.6075 18.4317C79.7206 18.5415 79.8101 18.6737 79.8704 18.82C79.9306 18.9662 79.9602 19.1234 79.9575 19.2817C79.9602 19.44 79.9306 19.5972 79.8704 19.7435C79.8101 19.8897 79.7206 20.0219 79.6075 20.1317C79.3324 20.3714 78.9753 20.4934 78.6123 20.4717ZM77.4611 29.2098V21.2197H79.7635V29.2098H77.4611Z" fill="#FFC000"/>
<path d="M84.1236 29.4138C83.7415 29.4397 83.3584 29.3829 82.9998 29.2473C82.6413 29.1117 82.3156 28.9004 82.0448 28.6275C81.5641 28.1034 81.3237 27.31 81.3237 26.2475V21.224H83.6302V25.899C83.6009 26.3221 83.7138 26.7428 83.9507 27.0933C84.0821 27.2364 84.2444 27.3472 84.4249 27.4172C84.6055 27.4872 84.7996 27.5145 84.9923 27.497C85.2214 27.5029 85.4494 27.4624 85.6627 27.378C85.8452 27.305 86.0073 27.1883 86.135 27.038C86.2633 26.8903 86.3583 26.7163 86.4133 26.528C86.4731 26.3238 86.5029 26.1119 86.5019 25.899V21.224H88.8042V29.2098H86.6958V28.126C86.4671 28.5047 86.1445 28.8167 85.7597 29.0313C85.2582 29.3043 84.6931 29.4364 84.1236 29.4138Z" fill="#FFC000"/>
<path d="M90.3096 29.2098V21.2197H92.4812V22.3672C92.6825 21.9909 92.972 21.67 93.3245 21.4322C93.7378 21.1412 94.2332 20.9921 94.7371 21.0072C95.2473 20.9776 95.7548 21.1003 96.1961 21.36C96.5435 21.6033 96.8072 21.9493 96.9509 22.3502C97.1653 21.952 97.483 21.62 97.8702 21.3897C98.3213 21.1248 98.8369 20.9924 99.3587 21.0072C99.7189 20.9813 100.08 21.0323 100.42 21.1568C100.759 21.2813 101.069 21.4765 101.328 21.7297C101.815 22.3489 102.051 23.1308 101.99 23.9185V29.2098H99.6876V24.505C99.7241 24.0866 99.6329 23.6669 99.4262 23.3022C99.324 23.1798 99.1939 23.0841 99.047 23.0235C98.9002 22.9628 98.7409 22.9389 98.5828 22.9538C98.4098 22.9511 98.2384 22.9874 98.081 23.06C97.9179 23.128 97.7733 23.2344 97.6593 23.3702C97.5392 23.5143 97.4476 23.6802 97.3895 23.859C97.3229 24.0677 97.2902 24.2858 97.2925 24.505V29.2098H94.9902V24.505C95.0266 24.0866 94.9354 23.6669 94.7287 23.3022C94.6256 23.1809 94.4954 23.086 94.3487 23.0255C94.2021 22.9649 94.0433 22.9403 93.8854 22.9538C93.7124 22.952 93.5412 22.9882 93.3836 23.06C93.2217 23.1303 93.0776 23.2363 92.9619 23.3702C92.8432 23.5146 92.753 23.6804 92.6962 23.859C92.6277 24.0672 92.5949 24.2857 92.5992 24.505V29.2098H90.3096Z" fill="#FFC000"/>
</g>
</g>
<defs>
<linearGradient id="paint0_linear_2513_3945" x1="28.8" y1="4.22549" x2="5.84063" y2="30.3589" gradientUnits="userSpaceOnUse">
<stop stop-color="#FFB900"/>
<stop offset="0.29" stop-color="#FFE89F"/>
<stop offset="1" stop-color="#A37207"/>
</linearGradient>
</defs>
</svg>
