<svg width="37" height="24" fill="none" xmlns="http://www.w3.org/2000/svg"><path d="M6.628 13.44H.932V8.704h5.696V2.912h4.928v5.792h5.696v4.736h-5.696v5.792H6.628V13.44Z" fill="url(#a)"/><path d="M28.135 23.008c-1.536 0-2.827-.192-3.872-.576-1.045-.405-1.899-.938-2.56-1.6a6.114 6.114 0 0 1-1.408-2.304 9.504 9.504 0 0 1-.48-2.816h5.568c.043.854.31 1.547.8 2.08.49.512 1.141.768 1.952.768 1.002 0 1.717-.31 2.144-.928.448-.64.672-1.536.672-2.688 0-1.216-.267-2.059-.8-2.528-.534-.49-1.206-.736-2.016-.736-1.131 0-2.006.438-2.624 1.312h-5.216V.192h15.231v4.704h-9.695v3.136c.896-.661 2.122-.992 3.68-.992 1.066 0 2.048.17 2.944.512.896.32 1.664.81 2.304 1.472.64.661 1.13 1.483 1.472 2.464.362.96.544 2.09.544 3.392 0 1.237-.203 2.357-.608 3.36a7.15 7.15 0 0 1-1.728 2.56c-.747.704-1.653 1.248-2.72 1.632-1.067.384-2.261.576-3.584.576Z" fill="url(#b)"/><defs><linearGradient id="a" x1="1.851" y1="25.136" x2="42.311" y2="-20.459" gradientUnits="userSpaceOnUse"><stop offset=".099" stop-color="#FFC62F"/><stop offset=".342" stop-color="#FFEAA5"/><stop offset=".482" stop-color="#EBD084"/><stop offset="1" stop-color="#A37207"/></linearGradient><linearGradient id="b" x1="1.851" y1="25.136" x2="42.311" y2="-20.459" gradientUnits="userSpaceOnUse"><stop offset=".099" stop-color="#FFC62F"/><stop offset=".342" stop-color="#FFEAA5"/><stop offset=".482" stop-color="#EBD084"/><stop offset="1" stop-color="#A37207"/></linearGradient></defs></svg>