<svg width="102" height="34" fill="none" xmlns="http://www.w3.org/2000/svg"><path d="m8.333 12.826 1.256.904a.464.464 0 0 0-.234-.088.565.565 0 0 0-.343.081l-1.256-.904a.567.567 0 0 1 .344-.083c.084.009.165.04.233.09Z" fill="#856400"/><path d="m7.756 12.819 1.256.904a.598.598 0 0 0-.063.043l-1.255-.905a.6.6 0 0 1 .062-.042Z" fill="#8A6800"/><path d="m7.694 12.861 1.255.905-.047.04-1.255-.905a.394.394 0 0 1 .047-.04Z" fill="#8F6C00"/><path d="m7.647 12.901 1.255.905a.505.505 0 0 0-.038.04l-1.256-.906a.48.48 0 0 1 .04-.039Z" fill="#946F00"/><path d="m7.608 12.94 1.256.906-.034.038-1.254-.9a.436.436 0 0 1 .032-.039" fill="#997300"/><path d="m7.576 12.985 1.254.905-.027.04-1.256-.905a.411.411 0 0 1 .03-.04Z" fill="#9E7700"/><path d="m7.547 13.019 1.256.905a.62.62 0 0 0-.025.042l-1.255-.906.024-.041Z" fill="#A37B00"/><path d="m7.523 13.06 1.255.906a.419.419 0 0 0-.022.045l-1.255-.906.022-.045Z" fill="#A87F00"/><path d="m7.5 13.105 1.256.906a.512.512 0 0 0-.018.05l-1.256-.907c0-.017.012-.032.019-.05Z" fill="#AD8300"/><path d="m7.482 13.154 1.256.906c0 .02-.012.04-.018.06l-1.254-.906c0-.02.01-.04.016-.06Z" fill="#B38600"/><path d="m7.466 13.214 1.254.906a.689.689 0 0 0-.01.081l-1.255-.906a.52.52 0 0 1 .011-.08Z" fill="#B88A00"/><path d="m7.455 13.295 1.255.906a.476.476 0 0 0 0 .111l-1.253-.9a.586.586 0 0 1 0-.113" fill="#BD8E00"/><path d="m12.148 15.27 1.255.905-.035.036-1.255-.906a.433.433 0 0 0 .035-.036Z" fill="#946F00"/><path d="m12.113 15.305 1.255.906a.555.555 0 0 1-.046.039l-1.255-.905a.633.633 0 0 0 .046-.04Z" fill="#8F6C00"/><path d="m12.066 15.345 1.256.905a.346.346 0 0 1-.06.04l-1.255-.904.06-.041Z" fill="#8A6800"/><path d="m12.007 15.386 1.254.905a.57.57 0 0 1-.342.08.489.489 0 0 1-.233-.088l-1.256-.906c.068.05.149.08.234.088.12.01.24-.017.343-.079Z" fill="#856400"/><path d="m17.016 9.948 1.256.905-4.867 5.322-1.256-.906 4.867-5.32Z" fill="#A27A00"/><path d="m7.457 13.408 1.256.906 1.037 8.059-1.256-.905-1.037-8.06Z" fill="#CA9800"/><path d="m8.494 21.467 1.256.906c.005.045.017.089.035.13l-1.256-.905a.471.471 0 0 1-.035-.131Z" fill="#BD8E00"/><path d="m8.529 21.598 1.256.906c.01.024.021.047.034.07l-1.254-.912a.403.403 0 0 1-.036-.07" fill="#B88A00"/><path d="m8.565 21.662 1.254.906.035.047-1.255-.906a.346.346 0 0 1-.034-.047Z" fill="#B38600"/><path d="m8.599 21.714 1.255.906c.01.013.022.024.034.037l-1.256-.906a.412.412 0 0 1-.033-.037Z" fill="#AD8300"/><path d="m8.632 21.751 1.256.906.034.03-1.255-.905-.035-.03Z" fill="#A87F00"/><path d="m8.667 21.782 1.255.905.02.014-1.256-.897-.02-.014" fill="#A37B00"/><path d="m17.857 9.823 1.256.905a.57.57 0 0 0-.277-.103.663.663 0 0 0-.4.093l-1.255-.906a.657.657 0 0 1 .4-.093c.1.01.195.046.276.104Z" fill="#856400"/><path d="m17.181 9.812 1.255.906c-.024.014-.047.03-.07.047L17.11 9.86a.569.569 0 0 1 .072-.048Z" fill="#8A6800"/><path d="m17.11 9.856 1.256.904c-.019.014-.036.03-.054.046L17.057 9.9c.017-.017.036-.031.053-.045Z" fill="#8F6C00"/><path d="m17.057 9.905 1.255.905-.04.043-1.256-.906.04-.042Z" fill="#946F00"/><path d="m21.345 16.343 1.256.906a.562.562 0 0 1-.29.051.488.488 0 0 1-.238-.09l-1.254-.904c.07.05.151.08.236.088.1.01.2-.008.29-.05Z" fill="#856400"/><path d="m24.563 2.054 1.255.906c.194.142.386.285.58.44l-1.254-.906a15.67 15.67 0 0 0-.58-.44" fill="#A37B00"/><path d="m25.141 2.494 1.254.906c.42.337.822.696 1.204 1.075l-1.256-.906c-.396-.39-.797-.748-1.202-1.075Z" fill="#A87F00"/><path d="m26.343 3.569 1.256.906c.532.526 1.034 1.08 1.505 1.658l-1.256-.904c-.47-.58-.973-1.134-1.505-1.66Z" fill="#AD8300"/><path d="m27.848 5.229 1.256.904c.375.461.747.953 1.117 1.475l-1.255-.906a25.428 25.428 0 0 0-1.118-1.473Z" fill="#B38600"/><path d="m25.25 14.515 1.255.905-3.904 1.83-1.254-.907 3.903-1.828Z" fill="#886700"/><path d="m25.77 14.55 1.256.906a.471.471 0 0 0-.232-.088c-.1-.008-.2.01-.29.054l-1.254-.906a.555.555 0 0 1 .29-.054.471.471 0 0 1 .232.088M13.022 33.05l1.255.905c-1.803-.182-3.5-.853-5.117-2.021l-1.256-.906c1.618 1.168 3.314 1.839 5.118 2.022Z" fill="#856400"/><path d="M28.966 6.702c5.825 8.232 4.413 15.056-4.28 21.787-4.35 3.364-8.186 4.897-11.664 4.563-3.504-.356-6.608-2.56-9.508-6.657C.614 22.3-.492 18.548.2 14.985.924 11.36 3.449 7.973 7.795 4.61c4.347-3.362 8.2-4.907 11.685-4.563 3.485.344 6.58 2.555 9.486 6.655Zm-3.07 8.535c.2-.367-.023-.737-.358-.771-.1-.009-.2.01-.29.054l-3.904 1.829a.56.56 0 0 1-.29.051.48.48 0 0 1-.393-.284l-2.627-6.064a.542.542 0 0 0-.458-.329.683.683 0 0 0-.564.228l-4.869 5.323a.58.58 0 0 1-.484.196.48.48 0 0 1-.255-.105l-3.045-2.517a.477.477 0 0 0-.26-.108.629.629 0 0 0-.478.191.603.603 0 0 0-.164.48l1.037 8.06c.01.108.06.21.14.286.08.076.184.123.295.13l12.299 1.218a.606.606 0 0 0 .571-.319l4.105-7.55" fill="url(#a)"/><path d="m28.966 6.702 1.255.906c.297.42.575.836.835 1.25l-1.254-.906a26.703 26.703 0 0 0-.836-1.25Z" fill="#B38600"/><path d="m29.802 7.952 1.254.906a20.598 20.598 0 0 1 1.595 3.028l-1.255-.906A20.743 20.743 0 0 0 29.8 7.952" fill="#B88A00"/><path d="m31.391 10.98 1.256.907c.83 1.991 1.184 3.906 1.064 5.765l-1.255-.906c.121-1.86-.234-3.774-1.065-5.765Z" fill="#BD8E00"/><path d="m32.456 16.746 1.255.906a11.054 11.054 0 0 1-.228 1.613l-1.255-.906c.115-.532.191-1.071.227-1.613Z" fill="#B88A00"/><path d="m32.228 18.359 1.255.906c-.086.394-.193.783-.321 1.166l-1.256-.903c.128-.383.236-.772.322-1.167" fill="#B38600"/><path d="m31.906 19.528 1.255.906c-.116.347-.249.692-.4 1.037l-1.254-.906c.145-.345.29-.69.399-1.037Z" fill="#AD8300"/><path d="m31.507 20.562 1.254.906c-.145.334-.308.665-.488.995l-1.254-.906c.178-.331.342-.663.488-.995Z" fill="#A87F00"/><path d="m31.022 21.559 1.254.906c-.185.34-.386.68-.605 1.018l-1.255-.906c.218-.338.42-.677.606-1.018Z" fill="#A37B00"/><path d="m30.413 22.577 1.255.906c-.24.367-.499.733-.778 1.098l-1.254-.904c.279-.366.538-.732.777-1.1Z" fill="#9E7700"/><path d="m29.636 23.677 1.254.904c-.32.42-.669.838-1.046 1.255l-1.255-.906c.377-.417.726-.834 1.047-1.253Z" fill="#997300"/><path d="m28.589 24.932 1.255.907c-.455.503-.95 1.005-1.484 1.506l-1.256-.905a25.214 25.214 0 0 0 1.485-1.508Z" fill="#946F00"/><path d="m27.107 26.437 1.256.905c-.731.686-1.537 1.37-2.419 2.051l-.017.013-1.256-.905.018-.014a33.613 33.613 0 0 0 2.418-2.05Z" fill="#8F6C00"/><path d="m24.669 28.501 1.255.905a32.18 32.18 0 0 1-3.13 2.154l-1.256-.907a32.179 32.179 0 0 0 3.13-2.152Z" fill="#8A6800"/><path d="m21.538 30.653 1.256.907c-3.085 1.849-5.902 2.647-8.517 2.395l-1.255-.905c2.61.25 5.431-.553 8.516-2.397Z" fill="#856400"/><g fill="#363845"><path d="M43.855 13.838a4.341 4.341 0 0 1-1.476-.25 3.085 3.085 0 0 1-1.206-.8 3.831 3.831 0 0 1-.814-1.39 6.142 6.142 0 0 1-.299-2.027v-.25a5.611 5.611 0 0 1 .304-1.955c.181-.504.469-.962.843-1.343a3.32 3.32 0 0 1 1.21-.787c.465-.17.956-.256 1.45-.255.453-.005.903.057 1.338.183.392.11.76.294 1.083.544.314.244.573.553.76.905.209.395.333.83.366 1.275h-1.602a1.818 1.818 0 0 0-.662-1.194 2.096 2.096 0 0 0-1.265-.374 2.17 2.17 0 0 0-.844.162c-.268.114-.506.29-.695.514a2.476 2.476 0 0 0-.485.93 4.656 4.656 0 0 0-.182 1.403v.25c-.012.5.052.997.19 1.476.106.35.278.678.506.964.19.234.433.418.709.536.248.104.514.159.784.161a2 2 0 0 0 1.35-.425c.334-.292.547-.702.594-1.147h1.602c-.04.463-.17.914-.384 1.326-.189.352-.452.658-.771.897a3.203 3.203 0 0 1-1.084.514c-.431.11-.875.162-1.32.157ZM50.952 13.762a3.498 3.498 0 0 1-.936-.11 1.402 1.402 0 0 1-.633-.38 1.538 1.538 0 0 1-.367-.688 3.907 3.907 0 0 1-.118-1.04V4.916h1.367v6.524c-.003.181.012.362.046.54a.7.7 0 0 0 .148.34.603.603 0 0 0 .29.183c.148.038.3.056.452.055h.434v1.19l-.152.021h-.531v-.008ZM53.706 6.26a.867.867 0 0 1-.637-.238.815.815 0 0 1-.236-.603.818.818 0 0 1 .236-.6.842.842 0 0 1 .636-.237.837.837 0 0 1 .633.238.8.8 0 0 1 .21.59.809.809 0 0 1-.24.604.843.843 0 0 1-.602.246Zm-.684 7.438V7.05h1.367v6.647h-1.367ZM58.976 13.838c-.42.006-.839-.065-1.235-.208a2.58 2.58 0 0 1-.987-.633 3.05 3.05 0 0 1-.653-1.067 4.323 4.323 0 0 1-.237-1.492v-.25c-.008-.485.08-.966.258-1.416.152-.386.383-.735.678-1.024.284-.273.62-.484.987-.62.38-.144.784-.216 1.19-.213.386-.008.771.051 1.138.174.309.106.595.27.843.485.234.201.429.445.574.718.144.28.243.58.29.892h-1.37a1.87 1.87 0 0 0-.485-.765 1.396 1.396 0 0 0-.974-.301c-.221 0-.44.042-.645.127-.208.08-.395.207-.548.37-.17.181-.3.4-.375.637a2.93 2.93 0 0 0-.135.935v.251c-.006.338.04.675.135.999.077.25.201.482.367.684.15.17.335.301.543.387.21.085.433.129.658.127.332.01.658-.09.928-.284a1.48 1.48 0 0 0 .531-.782h1.404a2.865 2.865 0 0 1-.328.947 2.498 2.498 0 0 1-.616.714c-.253.198-.539.35-.843.45a3.374 3.374 0 0 1-1.093.158ZM63.147 13.698v-8.78h1.37v5.031l2.737-2.898h1.632l-2.602 2.758 2.85 3.889h-1.686l-2.138-2.92-.797.803v2.125l-1.366-.008Z"/></g><g fill="#FFC000"><path d="M40.059 29.21V18.657h4.263a6.42 6.42 0 0 1 1.893.247c.488.142.941.383 1.332.71.353.303.623.692.785 1.13.175.486.26 1 .253 1.517a4.281 4.281 0 0 1-.253 1.513 2.733 2.733 0 0 1-.785 1.13c-.39.328-.844.57-1.332.71a6.414 6.414 0 0 1-1.893.251h-1.569v3.345H40.06Zm2.694-5.576h1.265a2.293 2.293 0 0 0 1.45-.349 1.276 1.276 0 0 0 .422-1.024 1.255 1.255 0 0 0-.421-1.024 2.293 2.293 0 0 0-1.45-.349h-1.266v2.746ZM49.782 29.21v-7.99h2.109v1.088c.07-.156.164-.3.278-.425.126-.156.267-.298.422-.425.175-.135.37-.243.577-.319.223-.081.46-.122.696-.119a2.09 2.09 0 0 1 .422.03l.265.06v2.005a1.488 1.488 0 0 0-.341-.106 3.068 3.068 0 0 0-.628-.06 1.675 1.675 0 0 0-.688.128 1.267 1.267 0 0 0-.463.34c-.125.147-.217.32-.27.506a2.139 2.139 0 0 0-.093.625v4.675l-2.286-.013ZM59.207 29.414a5.179 5.179 0 0 1-1.624-.251 3.53 3.53 0 0 1-1.307-.76 3.573 3.573 0 0 1-.869-1.276 4.817 4.817 0 0 1-.311-1.819v-.302a4.545 4.545 0 0 1 .303-1.733c.19-.469.478-.89.843-1.237a3.445 3.445 0 0 1 1.266-.748 4.794 4.794 0 0 1 1.564-.247c1.316 0 2.3.337 2.952 1.012.652.674.983 1.666.995 2.975v.782h-5.566c.002.272.057.54.164.79.092.203.224.386.388.536.161.142.351.248.557.31.207.067.423.1.64.098.362.018.722-.052 1.05-.204a1 1 0 0 0 .494-.549h2.108c-.069.403-.212.79-.421 1.14a2.717 2.717 0 0 1-.742.854c-.33.23-.701.396-1.093.489a5.64 5.64 0 0 1-1.391.14Zm-1.733-5.1h3.289a1.64 1.64 0 0 0-.127-.693c-.08-.169-.2-.315-.35-.425a1.357 1.357 0 0 0-.527-.234 2.73 2.73 0 0 0-1.231.005 1.496 1.496 0 0 0-.523.25c-.156.11-.284.256-.375.425-.102.205-.156.43-.156.659v.013ZM64.22 29.21v-7.99h2.168v1.147c.203-.375.492-.696.843-.935.414-.29.91-.439 1.413-.425.51-.03 1.018.093 1.459.353.35.24.614.588.755.99.216-.398.535-.73.923-.96.451-.266.967-.398 1.489-.383a2.541 2.541 0 0 1 1.965.723c.488.619.726 1.4.666 2.189v5.29h-2.32v-4.704a2.074 2.074 0 0 0-.26-1.203.999.999 0 0 0-.844-.348 1.18 1.18 0 0 0-.502.106c-.162.07-.306.176-.421.31-.12.145-.21.31-.266.489a1.945 1.945 0 0 0-.097.646v4.705H68.9v-4.705a2.04 2.04 0 0 0-.261-1.203.982.982 0 0 0-.844-.348 1.155 1.155 0 0 0-.502.106 1.105 1.105 0 0 0-.421.31c-.119.145-.21.311-.27.489-.066.209-.1.427-.097.646v4.705h-2.285ZM78.612 20.472a1.372 1.372 0 0 1-.995-.34 1.138 1.138 0 0 1-.354-.85 1.147 1.147 0 0 1 .354-.85c.274-.242.632-.364.995-.34.363-.022.72.1.996.34a1.154 1.154 0 0 1 .35.85 1.162 1.162 0 0 1-.35.85c-.276.24-.633.361-.996.34Zm-1.15 8.738v-7.99h2.301v7.99h-2.302ZM84.124 29.414a2.667 2.667 0 0 1-2.08-.787c-.48-.524-.72-1.317-.72-2.38v-5.023h2.306v4.675c-.03.423.084.844.32 1.194a1.265 1.265 0 0 0 1.042.404c.23.006.457-.035.67-.119a1.21 1.21 0 0 0 .473-.34c.128-.148.223-.322.278-.51.06-.204.09-.416.089-.629v-4.675h2.302v7.986h-2.108v-1.084c-.229.379-.552.69-.936.905a3.16 3.16 0 0 1-1.636.383ZM90.31 29.21v-7.99h2.171v1.147c.202-.376.491-.697.844-.935.413-.29.908-.44 1.412-.425.51-.03 1.018.093 1.46.353.346.243.61.59.754.99a2.49 2.49 0 0 1 .92-.96 2.783 2.783 0 0 1 1.488-.383 2.552 2.552 0 0 1 1.969.723c.487.619.723 1.4.662 2.189v5.29h-2.302v-4.704a2.074 2.074 0 0 0-.262-1.203.982.982 0 0 0-.843-.348 1.155 1.155 0 0 0-.502.106 1.107 1.107 0 0 0-.422.31c-.12.144-.211.31-.27.489-.066.209-.099.427-.096.646v4.705H94.99v-4.705a2.075 2.075 0 0 0-.261-1.203.999.999 0 0 0-.844-.348 1.18 1.18 0 0 0-.501.106c-.162.07-.306.176-.422.31-.119.145-.209.31-.266.489a1.945 1.945 0 0 0-.097.646v4.705h-2.29Z"/></g><defs><linearGradient id="a" x1="28.8" y1="4.225" x2="5.841" y2="30.359" gradientUnits="userSpaceOnUse"><stop stop-color="#FFB900"/><stop offset=".29" stop-color="#FFE89F"/><stop offset="1" stop-color="#A37207"/></linearGradient></defs></svg>