<svg width="80" height="28" fill="none" xmlns="http://www.w3.org/2000/svg"><path d="M35.754 18.868a4.99 4.99 0 0 1-1.664-.272 3.586 3.586 0 0 1-1.32-.808c-.368-.356-.656-.808-.864-1.352-.208-.544-.312-1.184-.312-1.92v-.32c0-.68.112-1.28.336-1.8a3.94 3.94 0 0 1 .904-1.312c.38-.356.82-.624 1.328-.808a4.722 4.722 0 0 1 1.592-.272c.596 0 1.12.08 1.576.24.452.16.84.38 1.16.656.32.276.568.604.752.976.18.372.3.772.352 1.2h-2.16c-.116-.396-.304-.704-.56-.936-.256-.228-.628-.344-1.12-.344-.276 0-.536.048-.776.144a1.72 1.72 0 0 0-.632.44c-.18.196-.324.444-.432.744-.108.3-.16.656-.16 1.072v.32c0 .448.052.832.152 1.152.1.32.244.584.424.792.18.208.396.36.64.456.244.096.504.144.784.144.428 0 .784-.108 1.08-.32.292-.212.492-.528.6-.944h2.16a3.406 3.406 0 0 1-.392 1.272c-.208.38-.476.7-.808.968a3.577 3.577 0 0 1-1.16.616 4.775 4.775 0 0 1-1.48.216ZM43.906 18.772c-.492 0-.912-.044-1.264-.136a1.877 1.877 0 0 1-.872-.48c-.228-.228-.396-.532-.504-.912-.108-.38-.16-.86-.16-1.448V7.488h2.112v8.072c0 .268.02.492.056.672.036.18.1.328.184.44a.696.696 0 0 0 .352.24c.148.048.336.072.56.072.128 0 .236-.004.32-.008.084-.004.172-.012.256-.024v1.76c-.064.012-.136.02-.216.032-.08.012-.164.02-.256.024s-.184.008-.28.008h-.288v-.004ZM47.518 9.292c-.396 0-.708-.112-.936-.336a1.12 1.12 0 0 1-.344-.832c0-.34.116-.62.344-.84.228-.22.54-.328.936-.328s.704.112.936.336c.228.224.344.5.344.832 0 .34-.116.62-.344.84-.228.22-.54.328-.936.328Zm-1.052.912h2.112v8.472h-2.112v-8.472ZM54.41 18.868a4.99 4.99 0 0 1-1.663-.272 3.585 3.585 0 0 1-1.32-.808c-.368-.356-.657-.808-.864-1.352-.209-.544-.313-1.184-.313-1.92v-.32c0-.68.112-1.28.337-1.8.223-.516.523-.952.904-1.312.38-.356.82-.624 1.328-.808a4.722 4.722 0 0 1 1.592-.272c.596 0 1.12.08 1.576.24.452.16.84.38 1.16.656.32.276.568.604.752.976.18.372.3.772.352 1.2h-2.16c-.116-.396-.304-.704-.56-.936-.256-.228-.628-.344-1.12-.344-.276 0-.536.048-.776.144-.24.096-.452.244-.632.44s-.324.444-.432.744c-.108.3-.16.656-.16 1.072v.32c0 .448.052.832.152 1.152.1.32.244.584.424.792.18.208.396.36.64.456.244.096.504.144.784.144.428 0 .784-.108 1.08-.32.292-.212.492-.528.6-.944h2.16a3.406 3.406 0 0 1-.392 1.272c-.208.38-.476.7-.808.968a3.577 3.577 0 0 1-1.16.616 4.775 4.775 0 0 1-1.48.216ZM59.687 18.676V7.488h2.108v6.184l3.116-3.468h2.432l-3.148 3.548 3.484 4.924h-2.496l-2.428-3.468-.96 1.04v2.428h-2.108Z" fill="#000"/><path d="M8.92 19.041c-3.462-3.476-3.429-6.639 0-10.082 3.429-3.444 6.577-3.477 10.04 0 3.461 3.476 3.428 6.639 0 10.082-1.719 1.726-3.368 2.595-5.02 2.597-1.645 0-3.293-.862-5.02-2.597ZM4.737 4.757C1.593 7.915.007 10.944 0 13.98v.04c.007 3.022 1.579 6.052 4.737 9.224 3.158 3.171 6.174 4.75 9.184 4.757h.04c3.023-.007 6.038-1.6 9.181-4.757 6.288-6.315 6.347-12.114 0-18.486C19.977 1.58 16.954 0 13.937 0c-3.028-.002-6.05 1.593-9.2 4.757Z" fill="url(#a)"/><path d="M70.56 10.228c-.629 0-1.105-.18-1.425-.536-.324-.356-.484-.904-.484-1.64V4.744h1.337v3.124c0 .404.084.708.248.916.163.204.431.308.803.308.205 0 .377-.032.52-.096a.981.981 0 0 0 .365-.268c.096-.116.168-.248.212-.396.044-.148.064-.304.064-.464V4.744h1.336v5.36h-1.232v-.82c-.128.256-.336.476-.628.664-.296.188-.665.28-1.117.28Z" fill="url(#b)"/><path d="M74.744 4.748h1.232v.82c.148-.264.372-.484.672-.668.3-.184.66-.272 1.076-.272.728 0 1.288.224 1.684.668C79.804 5.74 80 6.4 80 7.28v.204c0 .452-.056.852-.16 1.2-.108.348-.26.632-.46.86-.2.224-.44.396-.716.516-.28.116-.592.176-.936.176-.356 0-.676-.08-.96-.236a1.92 1.92 0 0 1-.688-.652v2.792h-1.336V4.748Zm2.66 4.36a1.135 1.135 0 0 0 .888-.416c.112-.136.196-.304.256-.504.06-.204.092-.44.092-.708v-.204c0-.256-.028-.48-.084-.668a1.26 1.26 0 0 0-.252-.476 1.076 1.076 0 0 0-.396-.288 1.28 1.28 0 0 0-.5-.096c-.188 0-.364.028-.524.084-.16.056-.3.144-.42.264a1.219 1.219 0 0 0-.276.42c-.068.16-.1.348-.1.556v.608c0 .224.032.42.1.596s.16.324.276.448c.116.124.256.22.42.284.156.068.332.1.52.1Z" fill="url(#c)"/><defs><linearGradient id="a" x1="12.873" y1="23.441" x2="24.601" y2="-9.88" gradientUnits="userSpaceOnUse"><stop stop-color="#0073FF"/><stop offset="1" stop-color="#00DEFF"/></linearGradient><linearGradient id="b" x1="6.81" y1="27.084" x2="23.126" y2="-40.738" gradientUnits="userSpaceOnUse"><stop offset=".102" stop-color="#0073FF"/><stop offset="1" stop-color="#00DEFF"/></linearGradient><linearGradient id="c" x1="72.674" y1="12.831" x2="79.471" y2="4.024" gradientUnits="userSpaceOnUse"><stop stop-color="#0073FF"/><stop offset="1" stop-color="#00DEFF"/></linearGradient></defs></svg>